<svg width="16" height="16" viewBox="0 0 16 16" fill="none" xmlns="http://www.w3.org/2000/svg">
<g clip-path="url(#clip0_69_2)">
<g clip-path="url(#clip1_69_2)">
<path d="M14.9616 15.9978C14.8731 15.9978 14.8062 15.9978 14.7392 15.9978C13.2039 15.9978 11.6686 15.9961 10.1333 16.0007C9.70067 16.0019 9.2902 15.9227 8.91641 15.7044C8.73127 15.5961 8.55951 15.4628 8.39242 15.3265C8.25385 15.2136 8.13216 15.0802 7.98079 14.9347C7.92664 14.997 7.87075 15.0668 7.80903 15.1315C7.5482 15.404 7.25359 15.6293 6.90775 15.7871C6.62596 15.9151 6.33368 15.9961 6.02452 15.9967C4.37917 15.9984 2.73381 15.9978 1.08904 15.9978C1.07332 15.9978 1.05702 15.9961 1.02791 15.9943V15.8709C1.02791 13.7365 1.02791 11.6021 1.02791 9.46705C1.02791 9.20214 1.01393 8.93665 1.02208 8.67174C1.03198 8.35093 1.05527 8.03071 1.07798 7.71049C1.09195 7.51079 1.10825 7.31051 1.13853 7.11313C1.17113 6.90179 1.22062 6.69277 1.26371 6.48317C1.35279 6.04767 1.49194 5.62731 1.66602 5.22033C1.87795 4.72486 2.14053 4.25559 2.45609 3.81602C2.76234 3.39042 3.09712 2.9881 3.48721 2.63935C3.84993 2.31564 4.23012 2.00881 4.62137 1.71944C5.1116 1.3573 5.64375 1.06037 6.18755 0.784979C6.75987 0.495033 7.34616 0.238856 7.94411 0.00829664C7.97322 -0.00276555 8.01455 -0.00276555 8.04425 0.00829664C8.7336 0.272043 9.40897 0.567228 10.0616 0.912485C10.7318 1.26706 11.3711 1.67112 11.9667 2.14155C12.4022 2.48564 12.8068 2.86525 13.1701 3.2862C13.8304 4.05065 14.3247 4.90943 14.621 5.87883C14.7357 6.25436 14.8271 6.63513 14.8708 7.0258C14.8976 7.26335 14.9331 7.50089 14.9453 7.73902C14.9663 8.15705 14.9837 8.57567 14.9832 8.99371C14.9808 10.6443 14.9703 12.2943 14.9645 13.9449C14.9622 14.6238 14.9645 15.3026 14.9645 15.9961L14.9616 15.9978ZM14.0283 15.0674C14.0283 14.912 14.0283 14.767 14.0283 14.622C14.0359 12.7129 14.0446 10.8044 14.051 8.89531C14.0516 8.68979 14.044 8.48368 14.033 8.27816C14.0172 7.97773 14.0044 7.6773 13.973 7.37863C13.9451 7.11779 13.9113 6.85521 13.8467 6.60194C13.7663 6.28929 13.6563 5.98363 13.5497 5.67854C13.3588 5.13417 13.0566 4.65034 12.7061 4.19854C12.5006 3.93421 12.2688 3.68851 12.0319 3.45155C11.8205 3.23962 11.594 3.04108 11.3594 2.85535C11.1073 2.65682 10.8436 2.47051 10.5734 2.29701C10.2742 2.10487 9.97023 1.91798 9.65351 1.75787C9.17434 1.51567 8.68353 1.29617 8.19504 1.07318C8.1112 1.03475 8.02445 0.971289 7.91965 1.01728C7.61631 1.15061 7.30948 1.27521 7.01022 1.41727C6.34009 1.73458 5.68858 2.08741 5.09414 2.53222C4.74189 2.79539 4.39372 3.06903 4.077 3.37295C3.78705 3.65067 3.52854 3.96507 3.27877 4.28179C2.94691 4.70332 2.69539 5.17492 2.49277 5.67156C2.31345 6.11171 2.17197 6.56293 2.10443 7.03512C2.05494 7.38445 2.00778 7.73436 1.97285 8.08486C1.95422 8.27175 1.96354 8.46156 1.96237 8.65019C1.96121 9.00244 1.96121 9.35468 1.96121 9.70751C1.96121 11.4507 1.96121 13.1938 1.96121 14.937V15.0663C2.01128 15.0663 2.0497 15.0663 2.08813 15.0663C3.39056 15.0663 4.69357 15.0657 5.99599 15.0663C6.35464 15.0663 6.64808 14.9079 6.91241 14.689C7.05913 14.5673 7.17965 14.4142 7.32171 14.2861C7.4038 14.2121 7.40555 14.1557 7.34384 14.0701C7.19362 13.8605 7.05389 13.6445 6.83672 13.4914C6.5491 13.2882 6.23005 13.2032 5.88363 13.2032C5.079 13.2026 4.27379 13.2032 3.46916 13.2032C3.43539 13.2032 3.40162 13.2032 3.37018 13.2032V12.2716H3.44063C4.29067 12.2716 5.14071 12.2687 5.99076 12.2745C6.15902 12.2757 6.33019 12.2955 6.49438 12.3333C7.02885 12.4562 7.47716 12.7263 7.8265 13.1537C7.88414 13.2241 7.94178 13.294 8.00116 13.3662C8.16651 13.135 8.34526 12.9365 8.56301 12.7688C8.9921 12.4387 9.47593 12.2757 10.0127 12.2728C10.8628 12.2687 11.7128 12.2716 12.5629 12.2716C12.5937 12.2716 12.6246 12.2716 12.6537 12.2716V13.2032C12.5856 13.2032 12.5215 13.2032 12.4575 13.2032C11.583 13.2096 10.7079 13.2067 9.83341 13.227C9.46603 13.2358 9.16502 13.4285 8.9234 13.6957C8.7924 13.8407 8.69168 14.013 8.57873 14.1708C8.77028 14.4346 8.99501 14.6494 9.25236 14.827C9.45031 14.9638 9.67388 15.0616 9.91609 15.0634C11.2511 15.0703 12.5856 15.0674 13.9206 15.068C13.952 15.068 13.9835 15.068 14.0283 15.068V15.0674Z" fill="#C19D5C"/>
<path d="M12.6365 11.3361H11.7236C11.7236 11.2965 11.7236 11.2593 11.7236 11.2214C11.7236 10.2934 11.7282 9.36474 11.7218 8.43668C11.7189 7.99711 11.6717 7.55986 11.546 7.13658C11.4092 6.67488 11.1949 6.25044 10.9149 5.85628C10.6849 5.53257 10.4159 5.24495 10.1289 4.97713C9.74926 4.62256 9.33239 4.31223 8.88757 4.04266C8.62557 3.88372 8.35833 3.73234 8.09051 3.58387C8.05383 3.5635 7.98862 3.5635 7.95078 3.58271C7.34236 3.89362 6.75373 4.23654 6.23148 4.68078C5.97181 4.90144 5.71389 5.12792 5.48158 5.37711C5.02978 5.86094 4.68976 6.41812 4.48074 7.05041C4.30666 7.57558 4.28337 8.11704 4.29036 8.66549C4.30084 9.55163 4.29327 10.4378 4.29327 11.3315H3.36346C3.36346 11.2965 3.36346 11.2593 3.36346 11.222C3.36288 10.365 3.36288 9.50797 3.36055 8.65094C3.36055 8.45822 3.34017 8.26493 3.35065 8.07279C3.3623 7.86145 3.38733 7.64894 3.42809 7.44109C3.47583 7.19364 3.5259 6.94387 3.61207 6.70807C3.7192 6.41463 3.85253 6.12934 3.99517 5.85104C4.19487 5.4627 4.45745 5.11395 4.74856 4.79024C4.92207 4.59752 5.10372 4.40888 5.29934 4.24004C5.55494 4.01996 5.82451 3.8156 6.09466 3.61357C6.65708 3.19204 7.27657 2.86774 7.90478 2.558C7.98571 2.51841 8.05558 2.50386 8.14466 2.55102C8.67739 2.83339 9.21187 3.11286 9.70326 3.46452C10.027 3.69624 10.342 3.94194 10.6459 4.1987C11.0965 4.57947 11.4866 5.01672 11.8092 5.51277C12.1707 6.06937 12.4321 6.66731 12.5393 7.32464C12.5853 7.6076 12.6289 7.89405 12.6336 8.17992C12.6493 9.22676 12.6481 10.2736 12.6528 11.321C12.6475 11.3262 12.6423 11.3321 12.6377 11.3373L12.6365 11.3361Z" fill="#C19D5C"/>
<path d="M7.97788 5.06855C8.50304 5.40973 9.00666 5.77071 9.43693 6.22484C9.83225 6.64287 10.1437 7.11214 10.2602 7.68272C10.3155 7.95345 10.3335 8.23524 10.3394 8.51238C10.3487 8.95836 10.3318 9.40434 10.3295 9.85032C10.3271 10.3417 10.3295 10.8331 10.3295 11.3309H9.3985C9.3985 11.2983 9.3985 11.264 9.3985 11.2296C9.40141 10.2753 9.40316 9.32167 9.40723 8.36741C9.40898 7.89756 9.25993 7.48243 8.97057 7.11331C8.70973 6.78086 8.39999 6.50372 8.05648 6.26152C8.03494 6.24638 7.9837 6.24754 7.96274 6.26326C7.86202 6.33721 7.76304 6.41406 7.67163 6.49848C7.40265 6.74709 7.13715 7.00035 6.93629 7.31126C6.75929 7.5849 6.63295 7.88125 6.62771 8.21137C6.61549 8.9799 6.61199 9.74902 6.60675 10.5181C6.60501 10.7865 6.60675 11.0549 6.60675 11.3303H5.67578C5.67578 11.2989 5.67578 11.2645 5.67578 11.2308C5.67695 10.2963 5.67986 9.36126 5.67753 8.4268C5.67695 8.10017 5.72702 7.78169 5.82716 7.47312C5.9436 7.11389 6.13282 6.79017 6.37328 6.49848C6.48099 6.36748 6.59161 6.23765 6.7133 6.12004C7.04982 5.79458 7.40439 5.49007 7.78633 5.21818C7.8527 5.17102 7.915 5.11804 7.97963 5.06738L7.97788 5.06855Z" fill="#C19D5C"/>
<path d="M7.9832 11.3152C7.77709 11.1091 7.56225 10.8942 7.33984 10.6718C7.50228 10.5094 7.6688 10.3435 7.83473 10.1775C7.93992 10.0723 8.04511 10.0723 8.15029 10.1775C8.31506 10.3417 8.48041 10.5053 8.63761 10.6608C8.41462 10.8838 8.19629 11.1027 7.9832 11.3152Z" fill="#C19D5C"/>
<path d="M12.6367 11.3371C12.6421 11.3317 12.6475 11.3257 12.6523 11.3203C12.6469 11.3257 12.6415 11.3317 12.6367 11.3371Z" fill="#C2A121"/>
</g>
</g>
<defs>
<clipPath id="clip0_69_2">
<rect width="16" height="16" fill="white"/>
</clipPath>
<clipPath id="clip1_69_2">
<rect width="13.9622" height="16" fill="white" transform="translate(1.01953)"/>
</clipPath>
</defs>
</svg>
