<svg width="24" height="25" viewBox="0 0 24 25" fill="none" xmlns="http://www.w3.org/2000/svg">
<path d="M19 4.51691H18V2.51691H16V4.51691H8V2.51691H6V4.51691H5C3.89 4.51691 3.01 5.41691 3.01 6.51691L3 20.5169C3 21.0473 3.21071 21.556 3.58579 21.9311C3.96086 22.3062 4.46957 22.5169 5 22.5169H19C20.1 22.5169 21 21.6169 21 20.5169V6.51691C21 5.41691 20.1 4.51691 19 4.51691ZM19 20.5169H5V10.5169H19V20.5169ZM9 14.5169H7V12.5169H9V14.5169ZM13 14.5169H11V12.5169H13V14.5169ZM17 14.5169H15V12.5169H17V14.5169ZM9 18.5169H7V16.5169H9V18.5169ZM13 18.5169H11V16.5169H13V18.5169ZM17 18.5169H15V16.5169H17V18.5169Z" fill="#676767"/>
</svg>
