<svg width="144" height="40" viewBox="0 0 144 40" fill="none" xmlns="http://www.w3.org/2000/svg">
<g clip-path="url(#clip0_88_3105)">
<path d="M142.777 38.1999C142.579 38.1999 142.428 38.1999 142.278 38.1999C138.832 38.1999 135.386 38.196 131.94 38.2065C130.969 38.2091 130.048 38.0313 129.209 37.5413C128.793 37.2982 128.408 36.999 128.033 36.6932C127.722 36.4397 127.449 36.1404 127.109 35.8137C126.987 35.9536 126.862 36.1104 126.723 36.2554C126.138 36.867 125.477 37.3727 124.7 37.7269C124.068 38.0144 123.412 38.196 122.718 38.1973C119.025 38.2012 115.332 38.1999 111.64 38.1999C111.605 38.1999 111.569 38.196 111.503 38.1921V37.915C111.503 33.1244 111.503 28.3337 111.503 23.5417C111.503 22.9471 111.472 22.3512 111.49 21.7566C111.512 21.0366 111.565 20.3178 111.616 19.5991C111.647 19.1509 111.684 18.7013 111.751 18.2583C111.825 17.784 111.936 17.3148 112.032 16.8444C112.232 15.8669 112.545 14.9234 112.935 14.01C113.411 12.8979 114 11.8446 114.709 10.858C115.396 9.90272 116.147 8.99973 117.023 8.21697C117.837 7.49039 118.691 6.80172 119.569 6.15224C120.669 5.33942 121.863 4.67296 123.084 4.05485C124.369 3.40407 125.684 2.82908 127.027 2.31159C127.092 2.28676 127.185 2.28676 127.251 2.31159C128.799 2.90357 130.314 3.56611 131.779 4.34103C133.283 5.13687 134.718 6.04378 136.055 7.09966C137.033 7.87197 137.941 8.724 138.756 9.66881C140.238 11.3846 141.348 13.3121 142.013 15.4879C142.27 16.3308 142.475 17.1855 142.573 18.0623C142.633 18.5955 142.713 19.1286 142.741 19.6631C142.788 20.6014 142.827 21.541 142.826 22.4793C142.82 26.184 142.797 29.8874 142.784 33.5922C142.779 35.1159 142.784 36.6396 142.784 38.196L142.777 38.1999ZM140.682 36.1117C140.682 35.7628 140.682 35.4374 140.682 35.112C140.699 30.827 140.719 26.5434 140.733 22.2584C140.735 21.7971 140.718 21.3345 140.693 20.8732C140.658 20.1989 140.629 19.5246 140.558 18.8542C140.496 18.2688 140.42 17.6794 140.275 17.111C140.094 16.4092 139.847 15.7232 139.608 15.0384C139.18 13.8166 138.501 12.7306 137.715 11.7165C137.253 11.1233 136.733 10.5718 136.201 10.0399C135.727 9.56427 135.219 9.11865 134.692 8.70179C134.126 8.25617 133.534 7.838 132.928 7.44858C132.256 7.01733 131.574 6.59786 130.863 6.23849C129.788 5.69487 128.686 5.20221 127.59 4.70171C127.402 4.61546 127.207 4.47302 126.972 4.57625C126.291 4.87551 125.602 5.15516 124.93 5.47402C123.426 6.18622 121.964 6.97813 120.63 7.97652C119.839 8.56719 119.058 9.18138 118.347 9.86352C117.696 10.4869 117.116 11.1925 116.555 11.9034C115.81 12.8495 115.246 13.908 114.791 15.0227C114.389 16.0107 114.071 17.0234 113.919 18.0832C113.808 18.8673 113.702 19.6527 113.624 20.4394C113.582 20.8588 113.603 21.2848 113.601 21.7082C113.598 22.4989 113.598 23.2895 113.598 24.0814C113.598 27.9939 113.598 31.9064 113.598 35.819V36.1091C113.71 36.1091 113.797 36.1091 113.883 36.1091C116.806 36.1091 119.731 36.1078 122.654 36.1091C123.459 36.1091 124.118 35.7536 124.711 35.2623C125.04 34.9891 125.311 34.6455 125.63 34.358C125.814 34.192 125.818 34.0652 125.679 33.8731C125.342 33.4027 125.028 32.9179 124.541 32.5742C123.895 32.1181 123.179 31.9273 122.402 31.9273C120.596 31.926 118.789 31.9273 116.983 31.9273C116.907 31.9273 116.831 31.9273 116.76 31.9273V29.8365H116.919C118.826 29.8365 120.734 29.8299 122.642 29.843C123.02 29.8456 123.404 29.8901 123.773 29.975C124.972 30.2507 125.978 30.8571 126.763 31.8163C126.892 31.9744 127.021 32.1312 127.155 32.2932C127.526 31.7744 127.927 31.3288 128.416 30.9525C129.379 30.2115 130.465 29.8456 131.67 29.8391C133.577 29.8299 135.485 29.8365 137.393 29.8365C137.463 29.8365 137.532 29.8365 137.597 29.8365V31.9273C137.444 31.9273 137.3 31.9273 137.157 31.9273C135.194 31.9417 133.23 31.9352 131.267 31.9809C130.442 32.0005 129.767 32.4331 129.225 33.0329C128.931 33.3583 128.704 33.7451 128.451 34.0992C128.881 34.6912 129.385 35.1734 129.963 35.572C130.407 35.8791 130.909 36.0986 131.453 36.1025C134.449 36.1182 137.444 36.1117 140.441 36.113C140.511 36.113 140.582 36.113 140.682 36.113V36.1117Z" fill="#C19D5C"/>
<path d="M137.56 27.7375H135.511C135.511 27.6487 135.511 27.565 135.511 27.4801C135.511 25.3971 135.521 23.3128 135.507 21.2297C135.5 20.2431 135.394 19.2617 135.112 18.3117C134.805 17.2754 134.324 16.3227 133.695 15.438C133.179 14.7115 132.576 14.0659 131.931 13.4648C131.079 12.669 130.144 11.9724 129.145 11.3674C128.557 11.0106 127.957 10.6709 127.356 10.3377C127.274 10.2919 127.128 10.2919 127.043 10.335C125.677 11.0329 124.356 11.8026 123.184 12.7996C122.601 13.2949 122.022 13.8033 121.501 14.3626C120.486 15.4485 119.723 16.6991 119.254 18.1183C118.863 19.297 118.811 20.5123 118.827 21.7433C118.85 23.7322 118.833 25.7212 118.833 27.7271H116.746C116.746 27.6487 116.746 27.565 116.746 27.4814C116.745 25.5578 116.745 23.6342 116.74 21.7106C116.74 21.2781 116.694 20.8442 116.718 20.413C116.744 19.9386 116.8 19.4616 116.891 18.9951C116.999 18.4397 117.111 17.8791 117.304 17.3499C117.545 16.6913 117.844 16.0509 118.164 15.4263C118.613 14.5547 119.202 13.7719 119.855 13.0453C120.245 12.6128 120.652 12.1894 121.091 11.8104C121.665 11.3164 122.27 10.8578 122.877 10.4043C124.139 9.45818 125.529 8.7303 126.939 8.03509C127.121 7.94623 127.278 7.91356 127.478 8.01941C128.673 8.6532 129.873 9.28046 130.976 10.0698C131.703 10.5899 132.41 11.1413 133.092 11.7176C134.103 12.5723 134.979 13.5537 135.703 14.667C136.514 15.9163 137.101 17.2584 137.341 18.7338C137.445 19.3689 137.543 20.0118 137.553 20.6534C137.588 23.003 137.586 25.3526 137.596 27.7036C137.584 27.7153 137.573 27.7284 137.562 27.7402L137.56 27.7375Z" fill="#C19D5C"/>
<path d="M127.101 13.6725C128.279 14.4383 129.41 15.2485 130.375 16.2678C131.263 17.2061 131.962 18.2594 132.223 19.54C132.347 20.1477 132.388 20.7802 132.401 21.4022C132.422 22.4032 132.384 23.4042 132.379 24.4052C132.374 25.5081 132.379 26.611 132.379 27.7283H130.289C130.289 27.6552 130.289 27.5781 130.289 27.501C130.296 25.3591 130.3 23.2186 130.309 21.0768C130.313 20.0222 129.978 19.0905 129.329 18.262C128.743 17.5158 128.048 16.8938 127.277 16.3501C127.229 16.3162 127.114 16.3188 127.067 16.3541C126.841 16.52 126.618 16.6925 126.413 16.882C125.81 17.44 125.214 18.0085 124.763 18.7063C124.366 19.3205 124.082 19.9856 124.07 20.7266C124.043 22.4515 124.035 24.1778 124.023 25.9041C124.019 26.5065 124.023 27.1089 124.023 27.727H121.934C121.934 27.6565 121.934 27.5794 121.934 27.5036C121.936 25.4062 121.943 23.3075 121.938 21.2101C121.936 20.477 122.049 19.7622 122.273 19.0696C122.535 18.2633 122.959 17.5367 123.499 16.882C123.741 16.588 123.989 16.2966 124.262 16.0326C125.018 15.3021 125.813 14.6186 126.671 14.0084C126.82 13.9025 126.96 13.7836 127.105 13.6699L127.101 13.6725Z" fill="#C19D5C"/>
<path d="M127.112 27.6916C126.649 27.229 126.167 26.7468 125.668 26.2476C126.033 25.883 126.406 25.5106 126.779 25.1381C127.015 24.902 127.251 24.902 127.487 25.1381C127.857 25.5066 128.228 25.8739 128.581 26.2228C128.08 26.7233 127.59 27.2146 127.112 27.6916Z" fill="#C19D5C"/>
<path d="M137.559 27.7386C137.57 27.7269 137.582 27.7139 137.592 27.7021C137.581 27.7139 137.569 27.7269 137.559 27.7386Z" fill="#C19D5C"/>
</g>
<path d="M3.10894 16.9833C3.10894 16.818 3.13589 16.6492 3.18978 16.4767C3.24366 16.3043 3.31731 16.139 3.41072 15.981C3.50413 15.8229 3.6155 15.6738 3.74484 15.5337C3.87777 15.3936 4.02327 15.2732 4.18135 15.1726C4.33942 15.0684 4.51007 14.9894 4.6933 14.9355C4.87652 14.878 5.06693 14.8511 5.26453 14.8547L6.89739 14.8762C6.97643 14.8762 7.05008 14.8924 7.11834 14.9247C7.19019 14.9535 7.25127 14.9948 7.30156 15.0487C7.35545 15.099 7.39677 15.1582 7.42551 15.2265C7.45784 15.2948 7.47401 15.3684 7.47401 15.4474V18.2982H8.28775V19.4568H3.63167C3.48437 19.4568 3.34965 19.4658 3.2275 19.4838C3.10894 19.4982 3.00655 19.5323 2.92033 19.5862C2.8377 19.6401 2.77303 19.7191 2.72632 19.8233C2.67962 19.9239 2.65627 20.0604 2.65627 20.2329V22.0867H1.49764V20.2329C1.49764 19.9383 1.53716 19.6814 1.61619 19.4622C1.69883 19.2395 1.81199 19.0509 1.9557 18.8964C2.09941 18.7419 2.27006 18.6198 2.46765 18.5299C2.66525 18.4365 2.87901 18.3719 3.10894 18.3359V16.9833ZM4.26757 18.3036L6.31538 18.2982V16.0241C6.04952 16.0205 5.84474 16.0187 5.70104 16.0187C5.56092 16.0151 5.45674 16.0133 5.38848 16.0133C5.32022 16.0097 5.2789 16.0079 5.26453 16.0079C5.25375 16.0079 5.24836 16.0079 5.24836 16.0079C5.12262 16.0079 5.00047 16.0348 4.88191 16.0887C4.76695 16.1426 4.66276 16.2163 4.56935 16.3097C4.47954 16.3995 4.40589 16.5055 4.3484 16.6276C4.29451 16.7462 4.26757 16.8737 4.26757 17.0102V18.3036ZM8.18535 18.2982H10.1254V15.0325H11.2786V18.8263C11.2822 18.8407 11.284 18.8587 11.284 18.8802C11.284 18.9593 11.2678 19.0347 11.2355 19.1066C11.2068 19.1748 11.1655 19.2359 11.1116 19.2898C11.0613 19.3401 11.0002 19.3814 10.9283 19.4137C10.8565 19.4425 10.781 19.4568 10.702 19.4568H8.18535V18.2982ZM9.73738 20.928C9.73738 20.8418 9.75355 20.7592 9.78588 20.6801C9.81821 20.6047 9.86133 20.5382 9.91522 20.4807C9.9727 20.4269 10.0392 20.3837 10.1146 20.3514C10.1901 20.3191 10.2709 20.3029 10.3571 20.3029C10.4433 20.3029 10.5242 20.3191 10.5996 20.3514C10.6787 20.3837 10.7451 20.4269 10.799 20.4807C10.8565 20.5382 10.9014 20.6047 10.9337 20.6801C10.9661 20.7592 10.9822 20.8418 10.9822 20.928C10.9822 21.0143 10.9661 21.0951 10.9337 21.1705C10.9014 21.246 10.8565 21.3107 10.799 21.3645C10.7451 21.422 10.6787 21.4669 10.5996 21.4993C10.5242 21.5316 10.4433 21.5478 10.3571 21.5478C10.2709 21.5478 10.1901 21.5316 10.1146 21.4993C10.0392 21.4669 9.9727 21.422 9.91522 21.3645C9.86133 21.3107 9.81821 21.246 9.78588 21.1705C9.75355 21.0951 9.73738 21.0143 9.73738 20.928ZM8.29313 20.928C8.29313 20.8418 8.3093 20.7592 8.34163 20.6801C8.37397 20.6047 8.41708 20.5382 8.47097 20.4807C8.52845 20.4269 8.59492 20.3837 8.67036 20.3514C8.74581 20.3191 8.82664 20.3029 8.91287 20.3029C8.99909 20.3029 9.07992 20.3191 9.15537 20.3514C9.23441 20.3837 9.30087 20.4269 9.35476 20.4807C9.41224 20.5382 9.45715 20.6047 9.48949 20.6801C9.52182 20.7592 9.53799 20.8418 9.53799 20.928C9.53799 21.0143 9.52182 21.0951 9.48949 21.1705C9.45715 21.246 9.41224 21.3107 9.35476 21.3645C9.30087 21.422 9.23441 21.4669 9.15537 21.4993C9.07992 21.5316 8.99909 21.5478 8.91287 21.5478C8.82664 21.5478 8.74581 21.5316 8.67036 21.4993C8.59492 21.4669 8.52845 21.422 8.47097 21.3645C8.41708 21.3107 8.37397 21.246 8.34163 21.1705C8.3093 21.0951 8.29313 21.0143 8.29313 20.928ZM14.8353 15.5929C14.8353 15.8804 14.8443 16.1965 14.8623 16.5414C14.8803 16.8827 14.8892 17.242 14.8892 17.6192C14.8892 17.8455 14.8839 18.0719 14.8731 18.2982H15.6706V19.4568H14.7276C14.6485 19.8269 14.5354 20.1736 14.3881 20.4969C14.2444 20.8203 14.0522 21.1005 13.8114 21.3376C13.5743 21.5783 13.2833 21.7669 12.9384 21.9034C12.5935 22.04 12.1822 22.1082 11.7044 22.1082V20.9496C12.0133 20.9496 12.2774 20.9029 12.4965 20.8095C12.7193 20.7197 12.9043 20.5939 13.0516 20.4322C13.2025 20.2706 13.3228 20.082 13.4127 19.8664C13.5025 19.6473 13.5689 19.4137 13.6121 19.1658C13.6588 18.9144 13.6893 18.6539 13.7037 18.3844C13.718 18.1114 13.7252 17.8419 13.7252 17.5761C13.7252 17.2168 13.718 16.8665 13.7037 16.5252C13.6893 16.1803 13.6821 15.8696 13.6821 15.5929H14.8353ZM15.4712 18.2982H20.7039V17.7378C20.7039 17.5402 20.6968 17.3875 20.6824 17.2797C20.6716 17.1719 20.6429 17.0929 20.5962 17.0426C20.5531 16.9887 20.4848 16.9564 20.3914 16.9456C20.3016 16.9312 20.1776 16.924 20.0195 16.924L17.2227 16.9132C16.9999 16.9132 16.8203 16.8665 16.6838 16.7731C16.5508 16.6797 16.4556 16.5594 16.3982 16.4121C16.3443 16.2612 16.3263 16.0941 16.3443 15.9109C16.3658 15.7277 16.4215 15.5444 16.5113 15.3612C16.7053 14.9696 16.9622 14.6265 17.2819 14.3319C17.6053 14.0337 17.9628 13.7876 18.3543 13.5936C18.7459 13.396 19.1573 13.2523 19.5884 13.1625C20.0231 13.0727 20.4471 13.035 20.8602 13.0494L20.8225 14.2026C20.5243 14.1918 20.2153 14.217 19.8956 14.278C19.5794 14.3391 19.2759 14.4361 18.9849 14.569C18.6939 14.6984 18.428 14.8636 18.1873 15.0648C17.9466 15.2624 17.7544 15.4959 17.6107 15.7654H19.6531C19.9405 15.7654 20.1938 15.7708 20.4129 15.7816C20.6357 15.7887 20.8279 15.8103 20.9896 15.8462C21.1548 15.8822 21.2931 15.9378 21.4045 16.0133C21.5159 16.0887 21.6057 16.1929 21.674 16.3258C21.7422 16.4552 21.7907 16.6204 21.8195 16.8216C21.8518 17.0192 21.868 17.2617 21.868 17.5491V18.2982H22.7571V19.4568H15.4712V18.2982ZM22.6224 18.2982H23.6571V12.947H24.8103V18.8263C24.8139 18.8407 24.8157 18.8587 24.8157 18.8802C24.8157 18.9593 24.7996 19.0347 24.7672 19.1066C24.7385 19.1748 24.6972 19.2359 24.6433 19.2898C24.5894 19.3401 24.5265 19.3814 24.4547 19.4137C24.3864 19.4425 24.3128 19.4568 24.2337 19.4568H22.6224V18.2982ZM27.2138 19.4461H26.0606V12.947H27.2138V19.4461ZM31.8753 17.118V19.1066C31.8753 19.279 31.9076 19.4281 31.9723 19.5538C32.037 19.6796 32.1214 19.7856 32.2256 19.8718C32.3298 19.9544 32.4501 20.0155 32.5866 20.055C32.7232 20.0945 32.8651 20.1143 33.0124 20.1143C33.1561 20.1143 33.2962 20.0945 33.4327 20.055C33.5728 20.0155 33.695 19.9544 33.7992 19.8718C33.9033 19.7856 33.9878 19.6796 34.0524 19.5538C34.1171 19.4281 34.1494 19.279 34.1494 19.1066V15.1026H35.3135V19.1066C35.3135 19.4586 35.247 19.7694 35.1141 20.0389C34.9811 20.3083 34.8069 20.5346 34.5913 20.7179C34.3758 20.9011 34.1297 21.0394 33.853 21.1328C33.58 21.2262 33.2998 21.2729 33.0124 21.2729C32.7214 21.2729 32.4375 21.2262 32.1609 21.1328C31.8879 21.0394 31.6436 20.9011 31.428 20.7179C31.216 20.5346 31.0436 20.3083 30.9107 20.0389C30.7813 19.7694 30.7167 19.4586 30.7167 19.1066V17.118H31.8753ZM32.2579 14.0301C32.2579 13.9439 32.2741 13.8631 32.3064 13.7876C32.3387 13.7086 32.3819 13.6421 32.4357 13.5883C32.4932 13.5308 32.5597 13.4859 32.6351 13.4535C32.7106 13.4212 32.7914 13.405 32.8776 13.405C32.9639 13.405 33.0447 13.4212 33.1201 13.4535C33.1992 13.4859 33.2656 13.5308 33.3195 13.5883C33.377 13.6421 33.4219 13.7086 33.4543 13.7876C33.4866 13.8631 33.5028 13.9439 33.5028 14.0301C33.5028 14.1164 33.4866 14.1972 33.4543 14.2727C33.4219 14.3481 33.377 14.4146 33.3195 14.472C33.2656 14.5259 33.1992 14.569 33.1201 14.6014C33.0447 14.6337 32.9639 14.6499 32.8776 14.6499C32.7914 14.6499 32.7106 14.6337 32.6351 14.6014C32.5597 14.569 32.4932 14.5259 32.4357 14.472C32.3819 14.4146 32.3387 14.3481 32.3064 14.2727C32.2741 14.1972 32.2579 14.1164 32.2579 14.0301ZM37.5822 19.4461H36.429V12.947H37.5822V19.4461ZM41.4246 15.5929C41.4246 15.8804 41.4335 16.1965 41.4515 16.5414C41.4695 16.8827 41.4784 17.242 41.4784 17.6192C41.4784 17.8455 41.4731 18.0719 41.4623 18.2982H42.2598V19.4568H41.3168C41.2377 19.8269 41.1246 20.1736 40.9773 20.4969C40.8336 20.8203 40.6414 21.1005 40.4006 21.3376C40.1635 21.5783 39.8725 21.7669 39.5276 21.9034C39.1827 22.04 38.7714 22.1082 38.2936 22.1082V20.9496C38.6025 20.9496 38.8666 20.9029 39.0857 20.8095C39.3085 20.7197 39.4935 20.5939 39.6408 20.4322C39.7917 20.2706 39.912 20.082 40.0019 19.8664C40.0917 19.6473 40.1581 19.4137 40.2013 19.1658C40.248 18.9144 40.2785 18.6539 40.2929 18.3844C40.3072 18.1114 40.3144 17.8419 40.3144 17.5761C40.3144 17.2168 40.3072 16.8665 40.2929 16.5252C40.2785 16.1803 40.2713 15.8696 40.2713 15.5929H41.4246ZM42.1521 19.4568V18.2982H43.1867C43.1005 18.1258 43.0359 17.9443 42.9927 17.7539C42.9532 17.5599 42.9335 17.3623 42.9335 17.1611C42.9335 16.8701 42.9784 16.5863 43.0682 16.3097C43.1616 16.033 43.2981 15.787 43.4778 15.5714C43.6574 15.3558 43.8801 15.1834 44.146 15.0541C44.4118 14.9211 44.719 14.8547 45.0675 14.8547H46.4848C46.5854 14.8547 46.6806 14.8744 46.7704 14.9139C46.8602 14.9535 46.9375 15.0073 47.0021 15.0756C47.0704 15.1439 47.1225 15.2247 47.1584 15.3181C47.1979 15.4079 47.2177 15.5031 47.2177 15.6037V18.2982H48.0314V19.4568H42.1521ZM44.1783 17.6677C44.243 17.8473 44.349 17.9982 44.4963 18.1204C44.6436 18.2389 44.834 18.2982 45.0675 18.2982H46.0645V16.0133H45.0675C44.8986 16.0133 44.7531 16.0474 44.631 16.1157C44.5088 16.1803 44.4065 16.2684 44.3238 16.3797C44.2448 16.4875 44.1855 16.6097 44.146 16.7462C44.1065 16.8827 44.0867 17.021 44.0867 17.1611C44.0867 17.2474 44.0939 17.3336 44.1083 17.4198C44.1226 17.5024 44.146 17.5851 44.1783 17.6677ZM43.9089 13.6206C43.9089 13.5344 43.925 13.4535 43.9574 13.3781C43.9897 13.299 44.0328 13.2326 44.0867 13.1787C44.1442 13.1212 44.2107 13.0763 44.2861 13.044C44.3615 13.0116 44.4424 12.9955 44.5286 12.9955C44.6148 12.9955 44.6957 13.0116 44.7711 13.044C44.8501 13.0763 44.9166 13.1212 44.9705 13.1787C45.028 13.2326 45.0729 13.299 45.1052 13.3781C45.1376 13.4535 45.1537 13.5344 45.1537 13.6206C45.1537 13.7068 45.1376 13.7876 45.1052 13.8631C45.0729 13.9385 45.028 14.005 44.9705 14.0625C44.9166 14.1164 44.8501 14.1595 44.7711 14.1918C44.6957 14.2241 44.6148 14.2403 44.5286 14.2403C44.4424 14.2403 44.3615 14.2241 44.2861 14.1918C44.2107 14.1595 44.1442 14.1164 44.0867 14.0625C44.0328 14.005 43.9897 13.9385 43.9574 13.8631C43.925 13.7876 43.9089 13.7068 43.9089 13.6206ZM45.3531 13.6206C45.3531 13.5344 45.3693 13.4535 45.4016 13.3781C45.4339 13.299 45.4771 13.2326 45.531 13.1787C45.5884 13.1212 45.6549 13.0763 45.7303 13.044C45.8058 13.0116 45.8866 12.9955 45.9728 12.9955C46.0591 12.9955 46.1399 13.0116 46.2154 13.044C46.2944 13.0763 46.3609 13.1212 46.4147 13.1787C46.4722 13.2326 46.5171 13.299 46.5495 13.3781C46.5818 13.4535 46.598 13.5344 46.598 13.6206C46.598 13.7068 46.5818 13.7876 46.5495 13.8631C46.5171 13.9385 46.4722 14.005 46.4147 14.0625C46.3609 14.1164 46.2944 14.1595 46.2154 14.1918C46.1399 14.2241 46.0591 14.2403 45.9728 14.2403C45.8866 14.2403 45.8058 14.2241 45.7303 14.1918C45.6549 14.1595 45.5884 14.1164 45.531 14.0625C45.4771 14.005 45.4339 13.9385 45.4016 13.8631C45.3693 13.7876 45.3531 13.7068 45.3531 13.6206ZM47.9237 19.4568V18.2982H48.9907V12.947H50.1439V18.2982H51.1301V19.4568H47.9237ZM51.0331 18.2982H52.0678V12.947H53.221V18.8263C53.2246 18.8407 53.2264 18.8587 53.2264 18.8802C53.2264 18.9593 53.2102 19.0347 53.1779 19.1066C53.1492 19.1748 53.1078 19.2359 53.054 19.2898C53.0001 19.3401 52.9372 19.3814 52.8653 19.4137C52.7971 19.4425 52.7234 19.4568 52.6444 19.4568H51.0331V18.2982ZM57.9795 16.9833C57.9795 16.818 58.0064 16.6492 58.0603 16.4767C58.1142 16.3043 58.1879 16.139 58.2813 15.981C58.3747 15.8229 58.486 15.6738 58.6154 15.5337C58.7483 15.3936 58.8938 15.2732 59.0519 15.1726C59.21 15.0684 59.3806 14.9894 59.5638 14.9355C59.7471 14.878 59.9375 14.8511 60.1351 14.8547L61.7679 14.8762C61.847 14.8762 61.9206 14.8924 61.9889 14.9247C62.0607 14.9535 62.1218 14.9948 62.1721 15.0487C62.226 15.099 62.2673 15.1582 62.296 15.2265C62.3284 15.2948 62.3446 15.3684 62.3446 15.4474V18.2982H63.1583V19.4568H58.5022C58.3549 19.4568 58.2202 19.4658 58.098 19.4838C57.9795 19.4982 57.8771 19.5323 57.7909 19.5862C57.7082 19.6401 57.6436 19.7191 57.5969 19.8233C57.5502 19.9239 57.5268 20.0604 57.5268 20.2329V22.0867H56.3682V20.2329C56.3682 19.9383 56.4077 19.6814 56.4867 19.4622C56.5694 19.2395 56.6825 19.0509 56.8262 18.8964C56.9699 18.7419 57.1406 18.6198 57.3382 18.5299C57.5358 18.4365 57.7496 18.3719 57.9795 18.3359V16.9833ZM59.1381 18.3036L61.1859 18.2982V16.0241C60.9201 16.0205 60.7153 16.0187 60.5716 16.0187C60.4315 16.0151 60.3273 16.0133 60.259 16.0133C60.1908 16.0097 60.1494 16.0079 60.1351 16.0079C60.1243 16.0079 60.1189 16.0079 60.1189 16.0079C59.9932 16.0079 59.871 16.0348 59.7525 16.0887C59.6375 16.1426 59.5333 16.2163 59.4399 16.3097C59.3501 16.3995 59.2764 16.5055 59.2189 16.6276C59.1651 16.7462 59.1381 16.8737 59.1381 17.0102V18.3036ZM63.0559 19.4568V18.2982H64.1229V12.947H65.2762V18.2982H66.2623V19.4568H63.0559ZM66.1599 18.2982H67.3024V15.0325H68.461V18.2982H69.6682V15.0325H70.8214V18.2982H72.0339V15.0325H73.1872V18.8802C73.1872 18.9593 73.171 19.0347 73.1387 19.1066C73.1099 19.1748 73.0686 19.2359 73.0147 19.2898C72.9644 19.3401 72.9034 19.3814 72.8315 19.4137C72.7632 19.4425 72.6896 19.4568 72.6105 19.4568H70.7945V19.0634C70.7549 19.1784 70.6849 19.2736 70.5843 19.3491C70.4873 19.4209 70.3741 19.4568 70.2448 19.4568H68.4341V19.0634C68.3946 19.1784 68.3245 19.2736 68.2239 19.3491C68.1233 19.4209 68.0102 19.4568 67.8844 19.4568H66.1599V18.2982ZM75.4883 19.4461H74.335V12.947H75.4883V19.4461ZM74.3512 11.9338C74.3332 11.8943 74.3207 11.853 74.3135 11.8099C74.3099 11.7668 74.3081 11.7237 74.3081 11.6806C74.3081 11.5907 74.3224 11.5045 74.3512 11.4219C74.3799 11.3357 74.4212 11.2602 74.4751 11.1955C74.5326 11.1273 74.6027 11.0734 74.6853 11.0339C74.7715 10.9944 74.8685 10.9746 74.9763 10.9746H75.5745V11.4219L74.9763 11.4165C74.8793 11.4165 74.8093 11.4452 74.7661 11.5027C74.723 11.5566 74.7015 11.6159 74.7015 11.6806C74.7015 11.7416 74.7212 11.7973 74.7608 11.8476C74.8003 11.8979 74.8631 11.9267 74.9494 11.9338H75.623V12.3811H74.1464V11.9338H74.3512ZM82.9143 19.3006C82.6448 19.3724 82.3646 19.4281 82.0736 19.4676C81.7862 19.5035 81.497 19.5215 81.206 19.5215C81.0515 19.5215 80.9006 19.5161 80.7533 19.5053C80.606 19.4946 80.4587 19.4802 80.3114 19.4622C80.1749 19.4407 80.0312 19.4191 79.8803 19.3976C79.733 19.3724 79.5965 19.3365 79.4707 19.2898C79.345 19.2431 79.2408 19.1766 79.1581 19.0904C79.0791 19.0042 79.0396 18.8856 79.0396 18.7347V17.0264C79.0396 16.7282 79.0953 16.448 79.2067 16.1857C79.3216 15.9199 79.4761 15.69 79.6701 15.4959C79.8677 15.2984 80.0976 15.1421 80.3599 15.0271C80.6222 14.9121 80.9042 14.8547 81.206 14.8547H82.6394C82.74 14.8547 82.8334 14.8744 82.9197 14.9139C83.0095 14.9499 83.0867 15.002 83.1514 15.0702C83.2196 15.1349 83.2735 15.2121 83.313 15.3019C83.3526 15.3918 83.3723 15.4888 83.3723 15.5929L83.3777 18.7347C83.3777 18.8748 83.3328 18.997 83.243 19.1012C83.1568 19.2054 83.0472 19.2718 82.9143 19.3006ZM81.206 18.3629C81.3856 18.3629 81.558 18.3557 81.7233 18.3413C81.8922 18.3234 82.0574 18.3 82.2191 18.2713V16.0133L81.206 16.0079C81.0694 16.0079 80.9383 16.0348 80.8126 16.0887C80.6904 16.1426 80.5826 16.2163 80.4892 16.3097C80.3994 16.4031 80.3276 16.5127 80.2737 16.6384C80.2198 16.7606 80.1928 16.8899 80.1928 17.0264L80.1982 18.2713C80.306 18.2964 80.4012 18.3162 80.4838 18.3305C80.5701 18.3413 80.6509 18.3503 80.7263 18.3575C80.8018 18.3611 80.8772 18.3629 80.9527 18.3629C81.0317 18.3629 81.1161 18.3629 81.206 18.3629ZM80.0851 13.6206C80.0851 13.5344 80.1012 13.4535 80.1336 13.3781C80.1659 13.299 80.209 13.2326 80.2629 13.1787C80.3204 13.1212 80.3868 13.0763 80.4623 13.044C80.5377 13.0116 80.6186 12.9955 80.7048 12.9955C80.791 12.9955 80.8718 13.0116 80.9473 13.044C81.0263 13.0763 81.0928 13.1212 81.1467 13.1787C81.2042 13.2326 81.2491 13.299 81.2814 13.3781C81.3137 13.4535 81.3299 13.5344 81.3299 13.6206C81.3299 13.7068 81.3137 13.7876 81.2814 13.8631C81.2491 13.9385 81.2042 14.005 81.1467 14.0625C81.0928 14.1164 81.0263 14.1595 80.9473 14.1918C80.8718 14.2241 80.791 14.2403 80.7048 14.2403C80.6186 14.2403 80.5377 14.2241 80.4623 14.1918C80.3868 14.1595 80.3204 14.1164 80.2629 14.0625C80.209 14.005 80.1659 13.9385 80.1336 13.8631C80.1012 13.7876 80.0851 13.7068 80.0851 13.6206ZM81.5293 13.6206C81.5293 13.5344 81.5455 13.4535 81.5778 13.3781C81.6101 13.299 81.6532 13.2326 81.7071 13.1787C81.7646 13.1212 81.8311 13.0763 81.9065 13.044C81.982 13.0116 82.0628 12.9955 82.149 12.9955C82.2353 12.9955 82.3161 13.0116 82.3915 13.044C82.4706 13.0763 82.537 13.1212 82.5909 13.1787C82.6484 13.2326 82.6933 13.299 82.7257 13.3781C82.758 13.4535 82.7742 13.5344 82.7742 13.6206C82.7742 13.7068 82.758 13.7876 82.7257 13.8631C82.6933 13.9385 82.6484 14.005 82.5909 14.0625C82.537 14.1164 82.4706 14.1595 82.3915 14.1918C82.3161 14.2241 82.2353 14.2403 82.149 14.2403C82.0628 14.2403 81.982 14.2241 81.9065 14.1918C81.8311 14.1595 81.7646 14.1164 81.7071 14.0625C81.6532 14.005 81.6101 13.9385 81.5778 13.8631C81.5455 13.7876 81.5293 13.7068 81.5293 13.6206ZM86.8644 15.5929C86.8644 15.8804 86.8734 16.1965 86.8913 16.5414C86.9093 16.8827 86.9183 17.242 86.9183 17.6192C86.9183 17.8455 86.9129 18.0719 86.9021 18.2982H87.6997V19.4568H86.7566C86.6776 19.8269 86.5644 20.1736 86.4171 20.4969C86.2734 20.8203 86.0812 21.1005 85.8405 21.3376C85.6034 21.5783 85.3124 21.7669 84.9675 21.9034C84.6226 22.04 84.2112 22.1082 83.7334 22.1082V20.9496C84.0424 20.9496 84.3064 20.9029 84.5256 20.8095C84.7483 20.7197 84.9333 20.5939 85.0806 20.4322C85.2315 20.2706 85.3519 20.082 85.4417 19.8664C85.5315 19.6473 85.598 19.4137 85.6411 19.1658C85.6878 18.9144 85.7183 18.6539 85.7327 18.3844C85.7471 18.1114 85.7543 17.8419 85.7543 17.5761C85.7543 17.2168 85.7471 16.8665 85.7327 16.5252C85.7183 16.1803 85.7111 15.8696 85.7111 15.5929H86.8644ZM85.6088 13.9493C85.6088 13.8631 85.6249 13.7823 85.6573 13.7068C85.6896 13.6278 85.7327 13.5613 85.7866 13.5074C85.8441 13.4499 85.9105 13.405 85.986 13.3727C86.0614 13.3404 86.1423 13.3242 86.2285 13.3242C86.3147 13.3242 86.3955 13.3404 86.471 13.3727C86.55 13.405 86.6165 13.4499 86.6704 13.5074C86.7279 13.5613 86.7728 13.6278 86.8051 13.7068C86.8374 13.7823 86.8536 13.8631 86.8536 13.9493C86.8536 14.0355 86.8374 14.1164 86.8051 14.1918C86.7728 14.2673 86.7279 14.3337 86.6704 14.3912C86.6165 14.4451 86.55 14.4882 86.471 14.5205C86.3955 14.5529 86.3147 14.569 86.2285 14.569C86.1423 14.569 86.0614 14.5529 85.986 14.5205C85.9105 14.4882 85.8441 14.4451 85.7866 14.3912C85.7327 14.3337 85.6896 14.2673 85.6573 14.1918C85.6249 14.1164 85.6088 14.0355 85.6088 13.9493ZM87.565 18.2982H89.0793V16.0241H90.2325V18.8263C90.2361 18.8407 90.2379 18.8587 90.2379 18.8802C90.2379 18.9593 90.2217 19.0347 90.1894 19.1066C90.1606 19.1748 90.1193 19.2359 90.0654 19.2898C90.0151 19.3401 89.9541 19.3814 89.8822 19.4137C89.8104 19.4425 89.7349 19.4568 89.6559 19.4568H87.565V18.2982ZM88.3571 14.8439C88.3356 14.7936 88.3194 14.7397 88.3086 14.6822C88.2979 14.6211 88.2925 14.5601 88.2925 14.499C88.2925 14.3804 88.314 14.2637 88.3571 14.1487C88.4038 14.0337 88.4703 13.9313 88.5565 13.8415C88.6427 13.7517 88.7487 13.6799 88.8745 13.626C89.0038 13.5685 89.1529 13.5397 89.3218 13.5397H90.2379V14.1487L89.3218 14.1433C89.1709 14.1433 89.0613 14.181 88.993 14.2565C88.9284 14.3319 88.896 14.4128 88.896 14.499C88.896 14.5852 88.9266 14.6625 88.9876 14.7307C89.0487 14.799 89.1457 14.8367 89.2786 14.8439H90.3187V15.4528H88.0446V14.8439H88.3571ZM93.4982 19.4568H91.86C91.7809 19.4568 91.7055 19.4425 91.6336 19.4137C91.5654 19.3814 91.5043 19.3401 91.4504 19.2898C91.3965 19.2359 91.3534 19.1748 91.3211 19.1066C91.2923 19.0347 91.278 18.9593 91.278 18.8802C91.278 18.8587 91.2798 18.8407 91.2833 18.8263V12.947H92.4366V18.2982H93.4982V19.4568ZM94.0048 14.8762C94.1952 14.8942 94.4018 14.9068 94.6245 14.9139C94.8473 14.9175 95.0754 14.9283 95.3089 14.9463C95.546 14.9642 95.7831 14.9966 96.0203 15.0433C96.2574 15.0864 96.4855 15.1546 96.7047 15.2481C96.9274 15.3415 97.1358 15.4672 97.3298 15.6253C97.5238 15.7798 97.6944 15.9792 97.8417 16.2235C97.9926 16.4642 98.113 16.7552 98.2028 17.0965C98.2962 17.4342 98.3501 17.8348 98.3645 18.2982H98.8441V19.4568H93.3743V18.2982H97.2058C97.1843 17.8707 97.1106 17.5204 96.9849 17.2474C96.8591 16.9707 96.7011 16.7498 96.5107 16.5845C96.3202 16.4193 96.1083 16.3007 95.8748 16.2288C95.6412 16.1534 95.4059 16.1031 95.1688 16.078C94.9353 16.0528 94.7071 16.042 94.4844 16.0456C94.2652 16.0456 94.073 16.0402 93.9078 16.0295L94.0048 14.8762ZM95.2011 20.928C95.2011 20.8418 95.2173 20.7592 95.2496 20.6801C95.282 20.6047 95.3251 20.5382 95.379 20.4807C95.4365 20.4269 95.5029 20.3837 95.5784 20.3514C95.6538 20.3191 95.7346 20.3029 95.8209 20.3029C95.9071 20.3029 95.9879 20.3191 96.0634 20.3514C96.1424 20.3837 96.2089 20.4269 96.2628 20.4807C96.3202 20.5382 96.3652 20.6047 96.3975 20.6801C96.4298 20.7592 96.446 20.8418 96.446 20.928C96.446 21.0143 96.4298 21.0951 96.3975 21.1705C96.3652 21.246 96.3202 21.3107 96.2628 21.3645C96.2089 21.422 96.1424 21.4669 96.0634 21.4993C95.9879 21.5316 95.9071 21.5478 95.8209 21.5478C95.7346 21.5478 95.6538 21.5316 95.5784 21.4993C95.5029 21.4669 95.4365 21.422 95.379 21.3645C95.3251 21.3107 95.282 21.246 95.2496 21.1705C95.2173 21.0951 95.2011 21.0143 95.2011 20.928Z" fill="#2A2A2A"/>
<path d="M3.32238 25.6168H3.80422L5.6428 30.1182H5.03417L4.50161 28.7995H2.61231L2.0861 30.1182H1.47746L3.32238 25.6168ZM4.37481 28.3557L3.5633 26.2762L2.72643 28.3557H4.37481ZM9.2692 26.5615C9.21848 26.5023 9.15085 26.4452 9.06632 26.3903C8.98179 26.3353 8.88669 26.2867 8.78102 26.2445C8.67536 26.198 8.55913 26.162 8.43233 26.1367C8.30975 26.1071 8.18084 26.0923 8.04559 26.0923C7.69901 26.0923 7.4433 26.1578 7.27846 26.2888C7.11362 26.4199 7.0312 26.5995 7.0312 26.8277C7.0312 26.9883 7.07347 27.1151 7.158 27.2081C7.24253 27.3011 7.37144 27.3772 7.54474 27.4364C7.72225 27.4955 7.94626 27.5568 8.21677 27.6202C8.52954 27.6879 8.80004 27.7703 9.02828 27.8675C9.25652 27.9647 9.43192 28.0957 9.5545 28.2606C9.67707 28.4212 9.73835 28.6367 9.73835 28.9072C9.73835 29.1228 9.69609 29.3109 9.61156 29.4715C9.53125 29.6279 9.41713 29.7589 9.2692 29.8646C9.12127 29.966 8.94798 30.0421 8.74932 30.0928C8.55067 30.1393 8.33511 30.1625 8.10265 30.1625C7.87441 30.1625 7.6504 30.1393 7.43062 30.0928C7.21506 30.0421 7.01007 29.9702 6.81564 29.8772C6.62122 29.7843 6.43947 29.668 6.27041 29.5285L6.54302 29.0467C6.61065 29.1186 6.6973 29.1904 6.80296 29.2623C6.91285 29.3299 7.03543 29.3933 7.17068 29.4525C7.31016 29.5116 7.4602 29.5602 7.62081 29.5983C7.78143 29.6321 7.94626 29.649 8.11533 29.649C8.43655 29.649 8.68592 29.5919 8.86344 29.4778C9.04096 29.3595 9.12972 29.1883 9.12972 28.9643C9.12972 28.7952 9.079 28.66 8.97756 28.5585C8.88035 28.4571 8.73453 28.3726 8.54011 28.3049C8.34568 28.2373 8.10899 28.1697 7.83003 28.1021C7.52572 28.026 7.27 27.9436 7.0629 27.8548C6.85579 27.7618 6.69941 27.6414 6.59374 27.4934C6.4923 27.3455 6.44159 27.1532 6.44159 26.9165C6.44159 26.6291 6.51132 26.3861 6.6508 26.1874C6.79028 25.9887 6.98259 25.8387 7.22774 25.7373C7.47288 25.6358 7.74973 25.5851 8.05827 25.5851C8.26115 25.5851 8.44923 25.6062 8.62252 25.6485C8.80004 25.6908 8.96488 25.7499 9.11704 25.826C9.2692 25.9021 9.40868 25.993 9.53548 26.0986L9.2692 26.5615ZM10.9326 30.1182V25.6168H11.5032V29.611H14.0139V30.1182H10.9326ZM16.4483 25.6168H16.9301L18.7687 30.1182H18.1601L17.6275 28.7995H15.7382L15.212 30.1182H14.6034L16.4483 25.6168ZM17.5007 28.3557L16.6892 26.2762L15.8523 28.3557H17.5007ZM23.706 30.1182V26.6819L22.2224 29.3257H21.8737L20.3839 26.6819V30.1182H19.8133V25.6168H20.4156L22.0449 28.5395L23.6806 25.6168H24.2766V30.1182H23.706ZM31.4658 25.6168V30.1182H30.8952V28.0704H28.4163V30.1182H27.8457V25.6168H28.4163V27.5632H30.8952V25.6168H31.4658ZM34.8146 30.1499C34.4976 30.1499 34.2102 30.0865 33.9524 29.9597C33.6945 29.8329 33.4705 29.6617 33.2803 29.4461C33.0944 29.2263 32.9507 28.9812 32.8492 28.7107C32.7478 28.436 32.6971 28.1549 32.6971 27.8675C32.6971 27.5674 32.7499 27.2821 32.8556 27.0116C32.9655 26.7369 33.1155 26.4938 33.3057 26.2825C33.5001 26.0669 33.7262 25.8979 33.9841 25.7753C34.2419 25.6485 34.523 25.5851 34.8273 25.5851C35.1443 25.5851 35.4317 25.6506 35.6895 25.7816C35.9473 25.9127 36.1692 26.0881 36.3552 26.3079C36.5412 26.5276 36.6849 26.7728 36.7863 27.0433C36.8878 27.3138 36.9385 27.5906 36.9385 27.8738C36.9385 28.1739 36.8856 28.4613 36.78 28.7361C36.6743 29.0066 36.5243 29.2496 36.3298 29.4652C36.1396 29.6765 35.9156 29.8434 35.6578 29.966C35.4 30.0886 35.1189 30.1499 34.8146 30.1499ZM33.274 27.8675C33.274 28.0957 33.3099 28.3176 33.3818 28.5332C33.4579 28.7445 33.5635 28.9326 33.6988 29.0974C33.834 29.2623 33.9967 29.3933 34.1869 29.4905C34.3771 29.5877 34.5885 29.6363 34.8209 29.6363C35.0619 29.6363 35.2774 29.5856 35.4676 29.4842C35.6578 29.3827 35.8184 29.2475 35.9494 29.0784C36.0847 28.9093 36.1861 28.7192 36.2538 28.5078C36.3256 28.2965 36.3615 28.083 36.3615 27.8675C36.3615 27.6392 36.3235 27.4195 36.2474 27.2081C36.1756 26.9968 36.0699 26.8087 35.9304 26.6439C35.7952 26.4748 35.6325 26.3438 35.4423 26.2508C35.2563 26.1536 35.0492 26.105 34.8209 26.105C34.58 26.105 34.3645 26.1557 34.1743 26.2571C33.9841 26.3544 33.8213 26.4875 33.6861 26.6566C33.5551 26.8256 33.4536 27.0158 33.3818 27.2272C33.3099 27.4343 33.274 27.6477 33.274 27.8675ZM38.1751 30.1182V25.6168H38.7457V29.611H41.2563V30.1182H38.1751ZM41.799 25.6168L43.1621 27.9626L44.5379 25.6168H45.1592L43.4474 28.4761V30.1182H42.8768V28.4634L41.1714 25.6168H41.799ZM49.864 30.1499C49.547 30.1499 49.2596 30.0865 49.0018 29.9597C48.744 29.8286 48.52 29.6553 48.3298 29.4398C48.1438 29.2242 48.0001 28.9812 47.8987 28.7107C47.7972 28.436 47.7465 28.1549 47.7465 27.8675C47.7465 27.5674 47.7993 27.2821 47.905 27.0116C48.0149 26.7369 48.1649 26.4938 48.3551 26.2825C48.5496 26.0669 48.7757 25.8979 49.0335 25.7753C49.2913 25.6485 49.5724 25.5851 49.8767 25.5851C50.1937 25.5851 50.4811 25.6506 50.7389 25.7816C50.9968 25.9127 51.2187 26.0881 51.4046 26.3079C51.5906 26.5276 51.7343 26.7728 51.8358 27.0433C51.9372 27.3138 51.9879 27.5906 51.9879 27.8738C51.9879 28.1739 51.9351 28.4613 51.8294 28.7361C51.7238 29.0066 51.5737 29.2496 51.3793 29.4652C51.1891 29.6765 50.9651 29.8434 50.7072 29.966C50.4494 30.0886 50.1684 30.1499 49.864 30.1499ZM49.8704 29.6363C50.1113 29.6363 50.3269 29.5856 50.517 29.4842C50.7072 29.3827 50.8679 29.2475 50.9989 29.0784C51.1341 28.9093 51.2356 28.7192 51.3032 28.5078C51.3751 28.2965 51.411 28.083 51.411 27.8675C51.411 27.6392 51.3729 27.4195 51.2969 27.2081C51.225 26.9926 51.1193 26.8024 50.9799 26.6375C50.8446 26.4727 50.6819 26.3417 50.4917 26.2445C50.3057 26.1472 50.0986 26.0986 49.8704 26.0986C49.6295 26.0986 49.4139 26.1494 49.2237 26.2508C49.0335 26.3522 48.8708 26.4875 48.7355 26.6566C48.6045 26.8256 48.5031 27.0158 48.4312 27.2272C48.3594 27.4343 48.3234 27.6477 48.3234 27.8675C48.3234 28.0957 48.3594 28.3176 48.4312 28.5332C48.5073 28.7445 48.613 28.9326 48.7482 29.0974C48.8835 29.2623 49.0462 29.3933 49.2364 29.4905C49.4266 29.5877 49.6379 29.6363 49.8704 29.6363ZM50.124 28.6473H50.6819L51.9435 30.1182H51.3856L50.124 28.6473ZM55.0697 30.1499C54.7105 30.1499 54.4083 30.0886 54.1631 29.966C53.918 29.8392 53.7214 29.6701 53.5735 29.4588C53.4256 29.2433 53.3178 29.0002 53.2502 28.7297C53.1825 28.4592 53.1487 28.1803 53.1487 27.8928V25.6168H53.7193V27.8928C53.7193 28.1126 53.7404 28.3282 53.7827 28.5395C53.8292 28.7466 53.9032 28.9326 54.0046 29.0974C54.106 29.2623 54.2434 29.3933 54.4167 29.4905C54.59 29.5877 54.8056 29.6363 55.0634 29.6363C55.3254 29.6363 55.5431 29.5877 55.7164 29.4905C55.8897 29.3891 56.0271 29.2559 56.1285 29.0911C56.2299 28.922 56.3018 28.7339 56.344 28.5268C56.3905 28.3197 56.4138 28.1084 56.4138 27.8928V25.6168H56.9844V27.8928C56.9844 28.1972 56.9485 28.4867 56.8766 28.7614C56.809 29.0319 56.6991 29.2707 56.5469 29.4778C56.3948 29.6849 56.1961 29.8498 55.951 29.9723C55.7101 30.0907 55.4163 30.1499 55.0697 30.1499ZM58.4418 30.1182V25.6168H60.3692C60.5678 25.6168 60.7496 25.6591 60.9144 25.7436C61.0792 25.8239 61.2229 25.9338 61.3455 26.0733C61.4681 26.2085 61.5632 26.3628 61.6308 26.5361C61.6984 26.7052 61.7323 26.8785 61.7323 27.056C61.7323 27.2631 61.6921 27.4596 61.6118 27.6456C61.5357 27.8316 61.4258 27.9901 61.2821 28.1211C61.1426 28.2521 60.9778 28.343 60.7876 28.3937L61.8781 30.1182H61.2314L60.2043 28.5015H59.0124V30.1182H58.4418ZM59.0124 27.9943H60.3755C60.5319 27.9943 60.6671 27.952 60.7813 27.8675C60.8996 27.7787 60.9905 27.6625 61.0539 27.5188C61.1215 27.3751 61.1553 27.2208 61.1553 27.056C61.1553 26.8869 61.1173 26.7326 61.0412 26.5932C60.9651 26.4495 60.8658 26.3353 60.7432 26.2508C60.6206 26.1663 60.4854 26.124 60.3375 26.124H59.0124V27.9943ZM62.5612 26.9419L62.688 26.2128H62.4978V25.49H63.024V26.2128L62.8338 26.9419H62.5612ZM65.299 25.6168H65.7809L67.6194 30.1182H67.0108L66.4782 28.7995H64.5889L64.0627 30.1182H63.4541L65.299 25.6168ZM66.3514 28.3557L65.5399 26.2762L64.7031 28.3557H66.3514ZM69.2346 26.6692V30.1182H68.664V25.6168H69.1458L71.8974 29.1355V25.6231H72.468V30.1182H71.9481L69.2346 26.6692ZM77.2052 25.6168H77.6871L79.5256 30.1182H78.917L78.3844 28.7995H76.4951L75.9689 30.1182H75.3603L77.2052 25.6168ZM78.2576 28.3557L77.4461 26.2762L76.6093 28.3557H78.2576ZM81.8471 25.6422H82.386L82.9819 27.2081L83.5842 25.6422H84.1231L83.3433 27.6012L84.1168 29.4588L85.6384 25.6168H86.2597L84.3767 30.1182H83.8822L82.9883 27.9943L82.088 30.1182H81.5935L79.7169 25.6168H80.3319L81.8598 29.4588L82.6269 27.6012L81.8471 25.6422ZM88.29 25.6168H88.7718L90.6104 30.1182H90.0018L89.4692 28.7995H87.5799L87.0537 30.1182H86.445L88.29 25.6168ZM89.3424 28.3557L88.5309 26.2762L87.694 28.3557H89.3424ZM91.6549 30.1182V25.6168H93.5823C93.7809 25.6168 93.9627 25.6591 94.1275 25.7436C94.2924 25.8239 94.4361 25.9338 94.5586 26.0733C94.6812 26.2085 94.7763 26.3628 94.8439 26.5361C94.9116 26.7052 94.9454 26.8785 94.9454 27.056C94.9454 27.2631 94.9052 27.4596 94.8249 27.6456C94.7488 27.8316 94.6389 27.9901 94.4952 28.1211C94.3558 28.2521 94.1909 28.343 94.0007 28.3937L95.0912 30.1182H94.4445L93.4174 28.5015H92.2255V30.1182H91.6549ZM92.2255 27.9943H93.5886C93.745 27.9943 93.8803 27.952 93.9944 27.8675C94.1127 27.7787 94.2036 27.6625 94.267 27.5188C94.3346 27.3751 94.3684 27.2208 94.3684 27.056C94.3684 26.8869 94.3304 26.7326 94.2543 26.5932C94.1782 26.4495 94.0789 26.3353 93.9563 26.2508C93.8338 26.1663 93.6985 26.124 93.5506 26.124H92.2255V27.9943ZM96.2655 30.1182V25.6168H97.8251C98.307 25.6168 98.7085 25.7182 99.0297 25.9211C99.3552 26.1198 99.5982 26.3903 99.7588 26.7326C99.9194 27.0708 99.9997 27.4469 99.9997 27.8611C99.9997 28.3176 99.911 28.7149 99.7335 29.0531C99.5559 29.3912 99.3045 29.6532 98.979 29.8392C98.6536 30.0252 98.2689 30.1182 97.8251 30.1182H96.2655ZM99.4228 27.8611C99.4228 27.523 99.3594 27.2229 99.2326 26.9609C99.11 26.6988 98.9304 26.4938 98.6937 26.3459C98.457 26.198 98.1675 26.124 97.8251 26.124H96.8361V29.611H97.8251C98.1717 29.611 98.4634 29.5349 98.7 29.3827C98.9367 29.2263 99.1164 29.0171 99.2389 28.7551C99.3615 28.4888 99.4228 28.1908 99.4228 27.8611Z" fill="#2A2A2A"/>
<defs>
<clipPath id="clip0_88_3105">
<rect width="31.3381" height="35.9118" fill="white" transform="translate(111.48 2.29492)"/>
</clipPath>
</defs>
</svg>
