<svg width="142" height="37" viewBox="0 0 142 37" fill="none" xmlns="http://www.w3.org/2000/svg">
<g clip-path="url(#clip0_88_4912)">
<path d="M141.777 36.1999C141.579 36.1999 141.428 36.1999 141.278 36.1999C137.832 36.1999 134.386 36.196 130.94 36.2065C129.969 36.2091 129.048 36.0313 128.209 35.5413C127.793 35.2982 127.408 34.999 127.033 34.6932C126.722 34.4397 126.449 34.1404 126.109 33.8137C125.987 33.9536 125.862 34.1104 125.723 34.2554C125.138 34.867 124.477 35.3727 123.7 35.7269C123.068 36.0144 122.412 36.196 121.718 36.1973C118.025 36.2012 114.332 36.1999 110.64 36.1999C110.605 36.1999 110.569 36.196 110.503 36.1921V35.915C110.503 31.1244 110.503 26.3337 110.503 21.5417C110.503 20.9471 110.472 20.3512 110.49 19.7566C110.512 19.0366 110.565 18.3178 110.616 17.5991C110.647 17.1509 110.684 16.7013 110.751 16.2583C110.825 15.784 110.936 15.3148 111.032 14.8444C111.232 13.8669 111.545 12.9234 111.935 12.01C112.411 10.8979 113 9.84461 113.709 8.85799C114.396 7.90272 115.147 6.99973 116.023 6.21697C116.837 5.49039 117.691 4.80172 118.569 4.15224C119.669 3.33942 120.863 2.67296 122.084 2.05485C123.369 1.40407 124.684 0.829079 126.027 0.31159C126.092 0.286762 126.185 0.286762 126.251 0.31159C127.799 0.903566 129.314 1.56611 130.779 2.34103C132.283 3.13687 133.718 4.04378 135.055 5.09966C136.033 5.87197 136.941 6.724 137.756 7.66881C139.238 9.38462 140.348 11.3121 141.013 13.4879C141.27 14.3308 141.475 15.1855 141.573 16.0623C141.633 16.5955 141.713 17.1286 141.741 17.6631C141.788 18.6014 141.827 19.541 141.826 20.4793C141.82 24.184 141.797 27.8874 141.784 31.5922C141.779 33.1159 141.784 34.6396 141.784 36.196L141.777 36.1999ZM139.682 34.1117C139.682 33.7628 139.682 33.4374 139.682 33.112C139.699 28.827 139.719 24.5434 139.733 20.2584C139.735 19.7971 139.718 19.3345 139.693 18.8732C139.658 18.1989 139.629 17.5246 139.558 16.8542C139.496 16.2688 139.42 15.6794 139.275 15.111C139.094 14.4092 138.847 13.7232 138.608 13.0384C138.18 11.8166 137.501 10.7306 136.715 9.71655C136.253 9.12326 135.733 8.5718 135.201 8.03994C134.727 7.56427 134.219 7.11865 133.692 6.70179C133.126 6.25617 132.534 5.838 131.928 5.44858C131.256 5.01733 130.574 4.59786 129.863 4.23849C128.788 3.69487 127.686 3.20221 126.59 2.70171C126.402 2.61546 126.207 2.47302 125.972 2.57625C125.291 2.87551 124.602 3.15516 123.93 3.47402C122.426 4.18622 120.964 4.97813 119.63 5.97652C118.839 6.56719 118.058 7.18138 117.347 7.86352C116.696 8.48686 116.116 9.19252 115.555 9.90342C114.81 10.8495 114.246 11.908 113.791 13.0227C113.389 14.0107 113.071 15.0234 112.919 16.0832C112.808 16.8673 112.702 17.6527 112.624 18.4394C112.582 18.8588 112.603 19.2848 112.601 19.7082C112.598 20.4989 112.598 21.2895 112.598 22.0814C112.598 25.9939 112.598 29.9064 112.598 33.819V34.1091C112.71 34.1091 112.797 34.1091 112.883 34.1091C115.806 34.1091 118.731 34.1078 121.654 34.1091C122.459 34.1091 123.118 33.7536 123.711 33.2623C124.04 32.9891 124.311 32.6455 124.63 32.358C124.814 32.192 124.818 32.0652 124.679 31.8731C124.342 31.4027 124.028 30.9179 123.541 30.5742C122.895 30.1181 122.179 29.9273 121.402 29.9273C119.596 29.926 117.789 29.9273 115.983 29.9273C115.907 29.9273 115.831 29.9273 115.76 29.9273V27.8365H115.919C117.826 27.8365 119.734 27.8299 121.642 27.843C122.02 27.8456 122.404 27.8901 122.773 27.975C123.972 28.2507 124.978 28.8571 125.763 29.8163C125.892 29.9744 126.021 30.1312 126.155 30.2932C126.526 29.7744 126.927 29.3288 127.416 28.9525C128.379 28.2115 129.465 27.8456 130.67 27.8391C132.577 27.8299 134.485 27.8365 136.393 27.8365C136.463 27.8365 136.532 27.8365 136.597 27.8365V29.9273C136.444 29.9273 136.3 29.9273 136.157 29.9273C134.194 29.9417 132.23 29.9352 130.267 29.9809C129.442 30.0005 128.767 30.4331 128.225 31.0329C127.931 31.3583 127.704 31.7451 127.451 32.0992C127.881 32.6912 128.385 33.1734 128.963 33.572C129.407 33.8791 129.909 34.0986 130.453 34.1025C133.449 34.1182 136.444 34.1117 139.441 34.113C139.511 34.113 139.582 34.113 139.682 34.113V34.1117Z" fill="white"/>
<path d="M136.56 25.7375H134.511C134.511 25.6487 134.511 25.565 134.511 25.4801C134.511 23.3971 134.521 21.3128 134.507 19.2297C134.5 18.2431 134.394 17.2617 134.112 16.3117C133.805 15.2754 133.324 14.3227 132.695 13.438C132.179 12.7115 131.576 12.0659 130.931 11.4648C130.079 10.669 129.144 9.97244 128.145 9.3674C127.557 9.01065 126.957 8.67088 126.356 8.33765C126.274 8.29191 126.128 8.29191 126.043 8.33504C124.677 9.03286 123.356 9.80256 122.184 10.7996C121.601 11.2949 121.022 11.8033 120.501 12.3626C119.486 13.4485 118.723 14.6991 118.254 16.1183C117.863 17.297 117.811 18.5123 117.827 19.7433C117.85 21.7322 117.833 23.7212 117.833 25.7271H115.746C115.746 25.6487 115.746 25.565 115.746 25.4814C115.745 23.5578 115.745 21.6342 115.74 19.7106C115.74 19.2781 115.694 18.8442 115.718 18.413C115.744 17.9386 115.8 17.4616 115.891 16.9951C115.999 16.4397 116.111 15.8791 116.304 15.3499C116.545 14.6913 116.844 14.0509 117.164 13.4263C117.613 12.5547 118.202 11.7719 118.855 11.0453C119.245 10.6128 119.652 10.1894 120.091 9.8104C120.665 9.31643 121.27 8.85775 121.877 8.4043C123.139 7.45818 124.529 6.7303 125.939 6.03509C126.121 5.94623 126.278 5.91356 126.478 6.01941C127.673 6.6532 128.873 7.28046 129.976 8.06976C130.703 8.58986 131.41 9.14132 132.092 9.71762C133.103 10.5723 133.979 11.5537 134.703 12.667C135.514 13.9163 136.101 15.2584 136.341 16.7338C136.445 17.3689 136.543 18.0118 136.553 18.6534C136.588 21.003 136.586 23.3526 136.596 25.7036C136.584 25.7153 136.573 25.7284 136.562 25.7402L136.56 25.7375Z" fill="white"/>
<path d="M126.101 11.6725C127.279 12.4383 128.41 13.2485 129.375 14.2678C130.263 15.2061 130.962 16.2594 131.223 17.54C131.347 18.1477 131.388 18.7802 131.401 19.4022C131.422 20.4032 131.384 21.4042 131.379 22.4052C131.374 23.5081 131.379 24.611 131.379 25.7283H129.289C129.289 25.6552 129.289 25.5781 129.289 25.501C129.296 23.3591 129.3 21.2186 129.309 19.0768C129.313 18.0222 128.978 17.0905 128.329 16.262C127.743 15.5158 127.048 14.8938 126.277 14.3501C126.229 14.3162 126.114 14.3188 126.067 14.3541C125.841 14.52 125.618 14.6925 125.413 14.882C124.81 15.44 124.214 16.0085 123.763 16.7063C123.366 17.3205 123.082 17.9856 123.07 18.7266C123.043 20.4515 123.035 22.1778 123.023 23.9041C123.019 24.5065 123.023 25.1089 123.023 25.727H120.934C120.934 25.6565 120.934 25.5794 120.934 25.5036C120.936 23.4062 120.943 21.3075 120.938 19.2101C120.936 18.477 121.049 17.7622 121.273 17.0696C121.535 16.2633 121.959 15.5367 122.499 14.882C122.741 14.588 122.989 14.2966 123.262 14.0326C124.018 13.3021 124.813 12.6186 125.671 12.0084C125.82 11.9025 125.96 11.7836 126.105 11.6699L126.101 11.6725Z" fill="white"/>
<path d="M126.112 25.6916C125.649 25.229 125.167 24.7468 124.668 24.2476C125.033 23.883 125.406 23.5106 125.779 23.1381C126.015 22.902 126.251 22.902 126.487 23.1381C126.857 23.5066 127.228 23.8739 127.581 24.2228C127.08 24.7233 126.59 25.2146 126.112 25.6916Z" fill="white"/>
<path d="M136.559 25.7386C136.57 25.7269 136.582 25.7139 136.592 25.7021C136.581 25.7139 136.569 25.7269 136.559 25.7386Z" fill="white"/>
</g>
<path d="M2.10894 14.9833C2.10894 14.818 2.13589 14.6492 2.18978 14.4767C2.24366 14.3043 2.31731 14.139 2.41072 13.981C2.50413 13.8229 2.6155 13.6738 2.74484 13.5337C2.87777 13.3936 3.02327 13.2732 3.18135 13.1726C3.33942 13.0684 3.51007 12.9894 3.6933 12.9355C3.87652 12.878 4.06693 12.8511 4.26453 12.8547L5.89739 12.8762C5.97643 12.8762 6.05008 12.8924 6.11834 12.9247C6.19019 12.9535 6.25127 12.9948 6.30156 13.0487C6.35545 13.099 6.39677 13.1582 6.42551 13.2265C6.45784 13.2948 6.47401 13.3684 6.47401 13.4474V16.2982H7.28775V17.4568H2.63167C2.48437 17.4568 2.34965 17.4658 2.2275 17.4838C2.10894 17.4982 2.00655 17.5323 1.92033 17.5862C1.8377 17.6401 1.77303 17.7191 1.72632 17.8233C1.67962 17.9239 1.65627 18.0604 1.65627 18.2329V20.0867H0.497637V18.2329C0.497637 17.9383 0.537156 17.6814 0.616194 17.4622C0.698825 17.2395 0.811994 17.0509 0.9557 16.8964C1.09941 16.7419 1.27006 16.6198 1.46765 16.5299C1.66525 16.4365 1.87901 16.3719 2.10894 16.3359V14.9833ZM3.26757 16.3036L5.31538 16.2982V14.0241C5.04952 14.0205 4.84474 14.0187 4.70104 14.0187C4.56092 14.0151 4.45674 14.0133 4.38848 14.0133C4.32022 14.0097 4.2789 14.0079 4.26453 14.0079C4.25375 14.0079 4.24836 14.0079 4.24836 14.0079C4.12262 14.0079 4.00047 14.0348 3.88191 14.0887C3.76695 14.1426 3.66276 14.2163 3.56935 14.3097C3.47954 14.3995 3.40589 14.5055 3.3484 14.6276C3.29451 14.7462 3.26757 14.8737 3.26757 15.0102V16.3036ZM7.18535 16.2982H9.12539V13.0325H10.2786V16.8263C10.2822 16.8407 10.284 16.8587 10.284 16.8802C10.284 16.9593 10.2678 17.0347 10.2355 17.1066C10.2068 17.1748 10.1655 17.2359 10.1116 17.2898C10.0613 17.3401 10.0002 17.3814 9.92834 17.4137C9.85649 17.4425 9.78104 17.4568 9.70201 17.4568H7.18535V16.2982ZM8.73738 18.928C8.73738 18.8418 8.75355 18.7592 8.78588 18.6801C8.81821 18.6047 8.86133 18.5382 8.91522 18.4807C8.9727 18.4269 9.03916 18.3837 9.11461 18.3514C9.19005 18.3191 9.27089 18.3029 9.35711 18.3029C9.44334 18.3029 9.52417 18.3191 9.59962 18.3514C9.67865 18.3837 9.74512 18.4269 9.79901 18.4807C9.85649 18.5382 9.9014 18.6047 9.93373 18.6801C9.96607 18.7592 9.98223 18.8418 9.98223 18.928C9.98223 19.0143 9.96607 19.0951 9.93373 19.1705C9.9014 19.246 9.85649 19.3107 9.79901 19.3645C9.74512 19.422 9.67865 19.4669 9.59962 19.4993C9.52417 19.5316 9.44334 19.5478 9.35711 19.5478C9.27089 19.5478 9.19005 19.5316 9.11461 19.4993C9.03916 19.4669 8.9727 19.422 8.91522 19.3645C8.86133 19.3107 8.81821 19.246 8.78588 19.1705C8.75355 19.0951 8.73738 19.0143 8.73738 18.928ZM7.29313 18.928C7.29313 18.8418 7.3093 18.7592 7.34163 18.6801C7.37397 18.6047 7.41708 18.5382 7.47097 18.4807C7.52845 18.4269 7.59492 18.3837 7.67036 18.3514C7.74581 18.3191 7.82664 18.3029 7.91287 18.3029C7.99909 18.3029 8.07992 18.3191 8.15537 18.3514C8.23441 18.3837 8.30087 18.4269 8.35476 18.4807C8.41224 18.5382 8.45715 18.6047 8.48949 18.6801C8.52182 18.7592 8.53799 18.8418 8.53799 18.928C8.53799 19.0143 8.52182 19.0951 8.48949 19.1705C8.45715 19.246 8.41224 19.3107 8.35476 19.3645C8.30087 19.422 8.23441 19.4669 8.15537 19.4993C8.07992 19.5316 7.99909 19.5478 7.91287 19.5478C7.82664 19.5478 7.74581 19.5316 7.67036 19.4993C7.59492 19.4669 7.52845 19.422 7.47097 19.3645C7.41708 19.3107 7.37397 19.246 7.34163 19.1705C7.3093 19.0951 7.29313 19.0143 7.29313 18.928ZM13.8353 13.5929C13.8353 13.8804 13.8443 14.1965 13.8623 14.5414C13.8803 14.8827 13.8892 15.242 13.8892 15.6192C13.8892 15.8455 13.8839 16.0719 13.8731 16.2982H14.6706V17.4568H13.7276C13.6485 17.8269 13.5354 18.1736 13.3881 18.4969C13.2444 18.8203 13.0522 19.1005 12.8114 19.3376C12.5743 19.5783 12.2833 19.7669 11.9384 19.9034C11.5935 20.04 11.1822 20.1082 10.7044 20.1082V18.9496C11.0133 18.9496 11.2774 18.9029 11.4965 18.8095C11.7193 18.7197 11.9043 18.5939 12.0516 18.4322C12.2025 18.2706 12.3228 18.082 12.4127 17.8664C12.5025 17.6473 12.5689 17.4137 12.6121 17.1658C12.6588 16.9144 12.6893 16.6539 12.7037 16.3844C12.718 16.1114 12.7252 15.8419 12.7252 15.5761C12.7252 15.2168 12.718 14.8665 12.7037 14.5252C12.6893 14.1803 12.6821 13.8696 12.6821 13.5929H13.8353ZM14.4712 16.2982H19.7039V15.7378C19.7039 15.5402 19.6968 15.3875 19.6824 15.2797C19.6716 15.1719 19.6429 15.0929 19.5962 15.0426C19.5531 14.9887 19.4848 14.9564 19.3914 14.9456C19.3016 14.9312 19.1776 14.924 19.0195 14.924L16.2227 14.9132C15.9999 14.9132 15.8203 14.8665 15.6838 14.7731C15.5508 14.6797 15.4556 14.5594 15.3982 14.4121C15.3443 14.2612 15.3263 14.0941 15.3443 13.9109C15.3658 13.7277 15.4215 13.5444 15.5113 13.3612C15.7053 12.9696 15.9622 12.6265 16.2819 12.3319C16.6053 12.0337 16.9628 11.7876 17.3543 11.5936C17.7459 11.396 18.1573 11.2523 18.5884 11.1625C19.0231 11.0727 19.4471 11.035 19.8602 11.0494L19.8225 12.2026C19.5243 12.1918 19.2153 12.217 18.8956 12.278C18.5794 12.3391 18.2759 12.4361 17.9849 12.569C17.6939 12.6984 17.428 12.8636 17.1873 13.0648C16.9466 13.2624 16.7544 13.4959 16.6107 13.7654H18.6531C18.9405 13.7654 19.1938 13.7708 19.4129 13.7816C19.6357 13.7887 19.8279 13.8103 19.9896 13.8462C20.1548 13.8822 20.2931 13.9378 20.4045 14.0133C20.5159 14.0887 20.6057 14.1929 20.674 14.3258C20.7422 14.4552 20.7907 14.6204 20.8195 14.8216C20.8518 15.0192 20.868 15.2617 20.868 15.5491V16.2982H21.7571V17.4568H14.4712V16.2982ZM21.6224 16.2982H22.6571V10.947H23.8103V16.8263C23.8139 16.8407 23.8157 16.8587 23.8157 16.8802C23.8157 16.9593 23.7996 17.0347 23.7672 17.1066C23.7385 17.1748 23.6972 17.2359 23.6433 17.2898C23.5894 17.3401 23.5265 17.3814 23.4547 17.4137C23.3864 17.4425 23.3128 17.4568 23.2337 17.4568H21.6224V16.2982ZM26.2138 17.4461H25.0606V10.947H26.2138V17.4461ZM30.8753 15.118V17.1066C30.8753 17.279 30.9076 17.4281 30.9723 17.5538C31.037 17.6796 31.1214 17.7856 31.2256 17.8718C31.3298 17.9544 31.4501 18.0155 31.5866 18.055C31.7232 18.0945 31.8651 18.1143 32.0124 18.1143C32.1561 18.1143 32.2962 18.0945 32.4327 18.055C32.5728 18.0155 32.695 17.9544 32.7992 17.8718C32.9033 17.7856 32.9878 17.6796 33.0524 17.5538C33.1171 17.4281 33.1494 17.279 33.1494 17.1066V13.1026H34.3135V17.1066C34.3135 17.4586 34.247 17.7694 34.1141 18.0389C33.9811 18.3083 33.8069 18.5346 33.5913 18.7179C33.3758 18.9011 33.1297 19.0394 32.853 19.1328C32.58 19.2262 32.2998 19.2729 32.0124 19.2729C31.7214 19.2729 31.4375 19.2262 31.1609 19.1328C30.8879 19.0394 30.6436 18.9011 30.428 18.7179C30.216 18.5346 30.0436 18.3083 29.9107 18.0389C29.7813 17.7694 29.7167 17.4586 29.7167 17.1066V15.118H30.8753ZM31.2579 12.0301C31.2579 11.9439 31.2741 11.8631 31.3064 11.7876C31.3387 11.7086 31.3819 11.6421 31.4357 11.5883C31.4932 11.5308 31.5597 11.4859 31.6351 11.4535C31.7106 11.4212 31.7914 11.405 31.8776 11.405C31.9639 11.405 32.0447 11.4212 32.1201 11.4535C32.1992 11.4859 32.2656 11.5308 32.3195 11.5883C32.377 11.6421 32.4219 11.7086 32.4543 11.7876C32.4866 11.8631 32.5028 11.9439 32.5028 12.0301C32.5028 12.1164 32.4866 12.1972 32.4543 12.2727C32.4219 12.3481 32.377 12.4146 32.3195 12.472C32.2656 12.5259 32.1992 12.569 32.1201 12.6014C32.0447 12.6337 31.9639 12.6499 31.8776 12.6499C31.7914 12.6499 31.7106 12.6337 31.6351 12.6014C31.5597 12.569 31.4932 12.5259 31.4357 12.472C31.3819 12.4146 31.3387 12.3481 31.3064 12.2727C31.2741 12.1972 31.2579 12.1164 31.2579 12.0301ZM36.5822 17.4461H35.429V10.947H36.5822V17.4461ZM40.4246 13.5929C40.4246 13.8804 40.4335 14.1965 40.4515 14.5414C40.4695 14.8827 40.4784 15.242 40.4784 15.6192C40.4784 15.8455 40.4731 16.0719 40.4623 16.2982H41.2598V17.4568H40.3168C40.2377 17.8269 40.1246 18.1736 39.9773 18.4969C39.8336 18.8203 39.6414 19.1005 39.4006 19.3376C39.1635 19.5783 38.8725 19.7669 38.5276 19.9034C38.1827 20.04 37.7714 20.1082 37.2936 20.1082V18.9496C37.6025 18.9496 37.8666 18.9029 38.0857 18.8095C38.3085 18.7197 38.4935 18.5939 38.6408 18.4322C38.7917 18.2706 38.912 18.082 39.0019 17.8664C39.0917 17.6473 39.1581 17.4137 39.2013 17.1658C39.248 16.9144 39.2785 16.6539 39.2929 16.3844C39.3072 16.1114 39.3144 15.8419 39.3144 15.5761C39.3144 15.2168 39.3072 14.8665 39.2929 14.5252C39.2785 14.1803 39.2713 13.8696 39.2713 13.5929H40.4246ZM41.1521 17.4568V16.2982H42.1867C42.1005 16.1258 42.0359 15.9443 41.9927 15.7539C41.9532 15.5599 41.9335 15.3623 41.9335 15.1611C41.9335 14.8701 41.9784 14.5863 42.0682 14.3097C42.1616 14.033 42.2981 13.787 42.4778 13.5714C42.6574 13.3558 42.8801 13.1834 43.146 13.0541C43.4118 12.9211 43.719 12.8547 44.0675 12.8547H45.4848C45.5854 12.8547 45.6806 12.8744 45.7704 12.9139C45.8602 12.9535 45.9375 13.0073 46.0021 13.0756C46.0704 13.1439 46.1225 13.2247 46.1584 13.3181C46.1979 13.4079 46.2177 13.5031 46.2177 13.6037V16.2982H47.0314V17.4568H41.1521ZM43.1783 15.6677C43.243 15.8473 43.349 15.9982 43.4963 16.1204C43.6436 16.2389 43.834 16.2982 44.0675 16.2982H45.0645V14.0133H44.0675C43.8986 14.0133 43.7531 14.0474 43.631 14.1157C43.5088 14.1803 43.4065 14.2684 43.3238 14.3797C43.2448 14.4875 43.1855 14.6097 43.146 14.7462C43.1065 14.8827 43.0867 15.021 43.0867 15.1611C43.0867 15.2474 43.0939 15.3336 43.1083 15.4198C43.1226 15.5024 43.146 15.5851 43.1783 15.6677ZM42.9089 11.6206C42.9089 11.5344 42.925 11.4535 42.9574 11.3781C42.9897 11.299 43.0328 11.2326 43.0867 11.1787C43.1442 11.1212 43.2107 11.0763 43.2861 11.044C43.3615 11.0116 43.4424 10.9955 43.5286 10.9955C43.6148 10.9955 43.6957 11.0116 43.7711 11.044C43.8501 11.0763 43.9166 11.1212 43.9705 11.1787C44.028 11.2326 44.0729 11.299 44.1052 11.3781C44.1376 11.4535 44.1537 11.5344 44.1537 11.6206C44.1537 11.7068 44.1376 11.7876 44.1052 11.8631C44.0729 11.9385 44.028 12.005 43.9705 12.0625C43.9166 12.1164 43.8501 12.1595 43.7711 12.1918C43.6957 12.2241 43.6148 12.2403 43.5286 12.2403C43.4424 12.2403 43.3615 12.2241 43.2861 12.1918C43.2107 12.1595 43.1442 12.1164 43.0867 12.0625C43.0328 12.005 42.9897 11.9385 42.9574 11.8631C42.925 11.7876 42.9089 11.7068 42.9089 11.6206ZM44.3531 11.6206C44.3531 11.5344 44.3693 11.4535 44.4016 11.3781C44.4339 11.299 44.4771 11.2326 44.531 11.1787C44.5884 11.1212 44.6549 11.0763 44.7303 11.044C44.8058 11.0116 44.8866 10.9955 44.9728 10.9955C45.0591 10.9955 45.1399 11.0116 45.2154 11.044C45.2944 11.0763 45.3609 11.1212 45.4147 11.1787C45.4722 11.2326 45.5171 11.299 45.5495 11.3781C45.5818 11.4535 45.598 11.5344 45.598 11.6206C45.598 11.7068 45.5818 11.7876 45.5495 11.8631C45.5171 11.9385 45.4722 12.005 45.4147 12.0625C45.3609 12.1164 45.2944 12.1595 45.2154 12.1918C45.1399 12.2241 45.0591 12.2403 44.9728 12.2403C44.8866 12.2403 44.8058 12.2241 44.7303 12.1918C44.6549 12.1595 44.5884 12.1164 44.531 12.0625C44.4771 12.005 44.4339 11.9385 44.4016 11.8631C44.3693 11.7876 44.3531 11.7068 44.3531 11.6206ZM46.9237 17.4568V16.2982H47.9907V10.947H49.1439V16.2982H50.1301V17.4568H46.9237ZM50.0331 16.2982H51.0678V10.947H52.221V16.8263C52.2246 16.8407 52.2264 16.8587 52.2264 16.8802C52.2264 16.9593 52.2102 17.0347 52.1779 17.1066C52.1492 17.1748 52.1078 17.2359 52.054 17.2898C52.0001 17.3401 51.9372 17.3814 51.8653 17.4137C51.7971 17.4425 51.7234 17.4568 51.6444 17.4568H50.0331V16.2982ZM56.9795 14.9833C56.9795 14.818 57.0064 14.6492 57.0603 14.4767C57.1142 14.3043 57.1879 14.139 57.2813 13.981C57.3747 13.8229 57.486 13.6738 57.6154 13.5337C57.7483 13.3936 57.8938 13.2732 58.0519 13.1726C58.21 13.0684 58.3806 12.9894 58.5638 12.9355C58.7471 12.878 58.9375 12.8511 59.1351 12.8547L60.7679 12.8762C60.847 12.8762 60.9206 12.8924 60.9889 12.9247C61.0607 12.9535 61.1218 12.9948 61.1721 13.0487C61.226 13.099 61.2673 13.1582 61.296 13.2265C61.3284 13.2948 61.3446 13.3684 61.3446 13.4474V16.2982H62.1583V17.4568H57.5022C57.3549 17.4568 57.2202 17.4658 57.098 17.4838C56.9795 17.4982 56.8771 17.5323 56.7909 17.5862C56.7082 17.6401 56.6436 17.7191 56.5969 17.8233C56.5502 17.9239 56.5268 18.0604 56.5268 18.2329V20.0867H55.3682V18.2329C55.3682 17.9383 55.4077 17.6814 55.4867 17.4622C55.5694 17.2395 55.6825 17.0509 55.8262 16.8964C55.9699 16.7419 56.1406 16.6198 56.3382 16.5299C56.5358 16.4365 56.7496 16.3719 56.9795 16.3359V14.9833ZM58.1381 16.3036L60.1859 16.2982V14.0241C59.9201 14.0205 59.7153 14.0187 59.5716 14.0187C59.4315 14.0151 59.3273 14.0133 59.259 14.0133C59.1908 14.0097 59.1494 14.0079 59.1351 14.0079C59.1243 14.0079 59.1189 14.0079 59.1189 14.0079C58.9932 14.0079 58.871 14.0348 58.7525 14.0887C58.6375 14.1426 58.5333 14.2163 58.4399 14.3097C58.3501 14.3995 58.2764 14.5055 58.2189 14.6276C58.1651 14.7462 58.1381 14.8737 58.1381 15.0102V16.3036ZM62.0559 17.4568V16.2982H63.1229V10.947H64.2762V16.2982H65.2623V17.4568H62.0559ZM65.1599 16.2982H66.3024V13.0325H67.461V16.2982H68.6682V13.0325H69.8214V16.2982H71.0339V13.0325H72.1872V16.8802C72.1872 16.9593 72.171 17.0347 72.1387 17.1066C72.1099 17.1748 72.0686 17.2359 72.0147 17.2898C71.9644 17.3401 71.9034 17.3814 71.8315 17.4137C71.7632 17.4425 71.6896 17.4568 71.6105 17.4568H69.7945V17.0634C69.7549 17.1784 69.6849 17.2736 69.5843 17.3491C69.4873 17.4209 69.3741 17.4568 69.2448 17.4568H67.4341V17.0634C67.3946 17.1784 67.3245 17.2736 67.2239 17.3491C67.1233 17.4209 67.0102 17.4568 66.8844 17.4568H65.1599V16.2982ZM74.4883 17.4461H73.335V10.947H74.4883V17.4461ZM73.3512 9.93384C73.3332 9.89432 73.3207 9.853 73.3135 9.80989C73.3099 9.76678 73.3081 9.72367 73.3081 9.68055C73.3081 9.59074 73.3224 9.50451 73.3512 9.42188C73.3799 9.33566 73.4212 9.26021 73.4751 9.19555C73.5326 9.12729 73.6027 9.0734 73.6853 9.03388C73.7715 8.99436 73.8685 8.9746 73.9763 8.9746H74.5745V9.42188L73.9763 9.41649C73.8793 9.41649 73.8093 9.44524 73.7661 9.50272C73.723 9.55661 73.7015 9.61589 73.7015 9.68055C73.7015 9.74163 73.7212 9.79731 73.7608 9.84761C73.8003 9.89791 73.8631 9.92665 73.9494 9.93384H74.623V10.3811H73.1464V9.93384H73.3512ZM81.9143 17.3006C81.6448 17.3724 81.3646 17.4281 81.0736 17.4676C80.7862 17.5035 80.497 17.5215 80.206 17.5215C80.0515 17.5215 79.9006 17.5161 79.7533 17.5053C79.606 17.4946 79.4587 17.4802 79.3114 17.4622C79.1749 17.4407 79.0312 17.4191 78.8803 17.3976C78.733 17.3724 78.5965 17.3365 78.4707 17.2898C78.345 17.2431 78.2408 17.1766 78.1581 17.0904C78.0791 17.0042 78.0396 16.8856 78.0396 16.7347V15.0264C78.0396 14.7282 78.0953 14.448 78.2067 14.1857C78.3216 13.9199 78.4761 13.69 78.6701 13.4959C78.8677 13.2984 79.0976 13.1421 79.3599 13.0271C79.6222 12.9121 79.9042 12.8547 80.206 12.8547H81.6394C81.74 12.8547 81.8334 12.8744 81.9197 12.9139C82.0095 12.9499 82.0867 13.002 82.1514 13.0702C82.2196 13.1349 82.2735 13.2121 82.313 13.3019C82.3526 13.3918 82.3723 13.4888 82.3723 13.5929L82.3777 16.7347C82.3777 16.8748 82.3328 16.997 82.243 17.1012C82.1568 17.2054 82.0472 17.2718 81.9143 17.3006ZM80.206 16.3629C80.3856 16.3629 80.558 16.3557 80.7233 16.3413C80.8922 16.3234 81.0574 16.3 81.2191 16.2713V14.0133L80.206 14.0079C80.0694 14.0079 79.9383 14.0348 79.8126 14.0887C79.6904 14.1426 79.5826 14.2163 79.4892 14.3097C79.3994 14.4031 79.3276 14.5127 79.2737 14.6384C79.2198 14.7606 79.1928 14.8899 79.1928 15.0264L79.1982 16.2713C79.306 16.2964 79.4012 16.3162 79.4838 16.3305C79.5701 16.3413 79.6509 16.3503 79.7263 16.3575C79.8018 16.3611 79.8772 16.3629 79.9527 16.3629C80.0317 16.3629 80.1161 16.3629 80.206 16.3629ZM79.0851 11.6206C79.0851 11.5344 79.1012 11.4535 79.1336 11.3781C79.1659 11.299 79.209 11.2326 79.2629 11.1787C79.3204 11.1212 79.3868 11.0763 79.4623 11.044C79.5377 11.0116 79.6186 10.9955 79.7048 10.9955C79.791 10.9955 79.8718 11.0116 79.9473 11.044C80.0263 11.0763 80.0928 11.1212 80.1467 11.1787C80.2042 11.2326 80.2491 11.299 80.2814 11.3781C80.3137 11.4535 80.3299 11.5344 80.3299 11.6206C80.3299 11.7068 80.3137 11.7876 80.2814 11.8631C80.2491 11.9385 80.2042 12.005 80.1467 12.0625C80.0928 12.1164 80.0263 12.1595 79.9473 12.1918C79.8718 12.2241 79.791 12.2403 79.7048 12.2403C79.6186 12.2403 79.5377 12.2241 79.4623 12.1918C79.3868 12.1595 79.3204 12.1164 79.2629 12.0625C79.209 12.005 79.1659 11.9385 79.1336 11.8631C79.1012 11.7876 79.0851 11.7068 79.0851 11.6206ZM80.5293 11.6206C80.5293 11.5344 80.5455 11.4535 80.5778 11.3781C80.6101 11.299 80.6532 11.2326 80.7071 11.1787C80.7646 11.1212 80.8311 11.0763 80.9065 11.044C80.982 11.0116 81.0628 10.9955 81.149 10.9955C81.2353 10.9955 81.3161 11.0116 81.3915 11.044C81.4706 11.0763 81.537 11.1212 81.5909 11.1787C81.6484 11.2326 81.6933 11.299 81.7257 11.3781C81.758 11.4535 81.7742 11.5344 81.7742 11.6206C81.7742 11.7068 81.758 11.7876 81.7257 11.8631C81.6933 11.9385 81.6484 12.005 81.5909 12.0625C81.537 12.1164 81.4706 12.1595 81.3915 12.1918C81.3161 12.2241 81.2353 12.2403 81.149 12.2403C81.0628 12.2403 80.982 12.2241 80.9065 12.1918C80.8311 12.1595 80.7646 12.1164 80.7071 12.0625C80.6532 12.005 80.6101 11.9385 80.5778 11.8631C80.5455 11.7876 80.5293 11.7068 80.5293 11.6206ZM85.8644 13.5929C85.8644 13.8804 85.8734 14.1965 85.8913 14.5414C85.9093 14.8827 85.9183 15.242 85.9183 15.6192C85.9183 15.8455 85.9129 16.0719 85.9021 16.2982H86.6997V17.4568H85.7566C85.6776 17.8269 85.5644 18.1736 85.4171 18.4969C85.2734 18.8203 85.0812 19.1005 84.8405 19.3376C84.6034 19.5783 84.3124 19.7669 83.9675 19.9034C83.6226 20.04 83.2112 20.1082 82.7334 20.1082V18.9496C83.0424 18.9496 83.3064 18.9029 83.5256 18.8095C83.7483 18.7197 83.9333 18.5939 84.0806 18.4322C84.2315 18.2706 84.3519 18.082 84.4417 17.8664C84.5315 17.6473 84.598 17.4137 84.6411 17.1658C84.6878 16.9144 84.7183 16.6539 84.7327 16.3844C84.7471 16.1114 84.7543 15.8419 84.7543 15.5761C84.7543 15.2168 84.7471 14.8665 84.7327 14.5252C84.7183 14.1803 84.7111 13.8696 84.7111 13.5929H85.8644ZM84.6088 11.9493C84.6088 11.8631 84.6249 11.7823 84.6573 11.7068C84.6896 11.6278 84.7327 11.5613 84.7866 11.5074C84.8441 11.4499 84.9105 11.405 84.986 11.3727C85.0614 11.3404 85.1423 11.3242 85.2285 11.3242C85.3147 11.3242 85.3955 11.3404 85.471 11.3727C85.55 11.405 85.6165 11.4499 85.6704 11.5074C85.7279 11.5613 85.7728 11.6278 85.8051 11.7068C85.8374 11.7823 85.8536 11.8631 85.8536 11.9493C85.8536 12.0355 85.8374 12.1164 85.8051 12.1918C85.7728 12.2673 85.7279 12.3337 85.6704 12.3912C85.6165 12.4451 85.55 12.4882 85.471 12.5205C85.3955 12.5529 85.3147 12.569 85.2285 12.569C85.1423 12.569 85.0614 12.5529 84.986 12.5205C84.9105 12.4882 84.8441 12.4451 84.7866 12.3912C84.7327 12.3337 84.6896 12.2673 84.6573 12.1918C84.6249 12.1164 84.6088 12.0355 84.6088 11.9493ZM86.565 16.2982H88.0793V14.0241H89.2325V16.8263C89.2361 16.8407 89.2379 16.8587 89.2379 16.8802C89.2379 16.9593 89.2217 17.0347 89.1894 17.1066C89.1606 17.1748 89.1193 17.2359 89.0654 17.2898C89.0151 17.3401 88.9541 17.3814 88.8822 17.4137C88.8104 17.4425 88.7349 17.4568 88.6559 17.4568H86.565V16.2982ZM87.3571 12.8439C87.3356 12.7936 87.3194 12.7397 87.3086 12.6822C87.2979 12.6211 87.2925 12.5601 87.2925 12.499C87.2925 12.3804 87.314 12.2637 87.3571 12.1487C87.4038 12.0337 87.4703 11.9313 87.5565 11.8415C87.6427 11.7517 87.7487 11.6799 87.8745 11.626C88.0038 11.5685 88.1529 11.5397 88.3218 11.5397H89.2379V12.1487L88.3218 12.1433C88.1709 12.1433 88.0613 12.181 87.993 12.2565C87.9284 12.3319 87.896 12.4128 87.896 12.499C87.896 12.5852 87.9266 12.6625 87.9876 12.7307C88.0487 12.799 88.1457 12.8367 88.2786 12.8439H89.3187V13.4528H87.0446V12.8439H87.3571ZM92.4982 17.4568H90.86C90.7809 17.4568 90.7055 17.4425 90.6336 17.4137C90.5654 17.3814 90.5043 17.3401 90.4504 17.2898C90.3965 17.2359 90.3534 17.1748 90.3211 17.1066C90.2923 17.0347 90.278 16.9593 90.278 16.8802C90.278 16.8587 90.2798 16.8407 90.2833 16.8263V10.947H91.4366V16.2982H92.4982V17.4568ZM93.0048 12.8762C93.1952 12.8942 93.4018 12.9068 93.6245 12.9139C93.8473 12.9175 94.0754 12.9283 94.3089 12.9463C94.546 12.9642 94.7831 12.9966 95.0203 13.0433C95.2574 13.0864 95.4855 13.1546 95.7047 13.2481C95.9274 13.3415 96.1358 13.4672 96.3298 13.6253C96.5238 13.7798 96.6944 13.9792 96.8417 14.2235C96.9926 14.4642 97.113 14.7552 97.2028 15.0965C97.2962 15.4342 97.3501 15.8348 97.3645 16.2982H97.8441V17.4568H92.3743V16.2982H96.2058C96.1843 15.8707 96.1106 15.5204 95.9849 15.2474C95.8591 14.9707 95.7011 14.7498 95.5107 14.5845C95.3202 14.4193 95.1083 14.3007 94.8748 14.2288C94.6412 14.1534 94.4059 14.1031 94.1688 14.078C93.9353 14.0528 93.7071 14.042 93.4844 14.0456C93.2652 14.0456 93.073 14.0402 92.9078 14.0295L93.0048 12.8762ZM94.2011 18.928C94.2011 18.8418 94.2173 18.7592 94.2496 18.6801C94.282 18.6047 94.3251 18.5382 94.379 18.4807C94.4365 18.4269 94.5029 18.3837 94.5784 18.3514C94.6538 18.3191 94.7346 18.3029 94.8209 18.3029C94.9071 18.3029 94.9879 18.3191 95.0634 18.3514C95.1424 18.3837 95.2089 18.4269 95.2628 18.4807C95.3202 18.5382 95.3652 18.6047 95.3975 18.6801C95.4298 18.7592 95.446 18.8418 95.446 18.928C95.446 19.0143 95.4298 19.0951 95.3975 19.1705C95.3652 19.246 95.3202 19.3107 95.2628 19.3645C95.2089 19.422 95.1424 19.4669 95.0634 19.4993C94.9879 19.5316 94.9071 19.5478 94.8209 19.5478C94.7346 19.5478 94.6538 19.5316 94.5784 19.4993C94.5029 19.4669 94.4365 19.422 94.379 19.3645C94.3251 19.3107 94.282 19.246 94.2496 19.1705C94.2173 19.0951 94.2011 19.0143 94.2011 18.928Z" fill="white"/>
<path d="M2.32238 23.6168H2.80422L4.6428 28.1182H4.03417L3.50161 26.7995H1.61231L1.0861 28.1182H0.477462L2.32238 23.6168ZM3.37481 26.3557L2.5633 24.2762L1.72643 26.3557H3.37481ZM8.2692 24.5615C8.21848 24.5023 8.15085 24.4452 8.06632 24.3903C7.98179 24.3353 7.88669 24.2867 7.78102 24.2445C7.67536 24.198 7.55913 24.162 7.43233 24.1367C7.30975 24.1071 7.18084 24.0923 7.04559 24.0923C6.69901 24.0923 6.4433 24.1578 6.27846 24.2888C6.11362 24.4199 6.0312 24.5995 6.0312 24.8277C6.0312 24.9883 6.07347 25.1151 6.158 25.2081C6.24253 25.3011 6.37144 25.3772 6.54474 25.4364C6.72225 25.4955 6.94626 25.5568 7.21677 25.6202C7.52954 25.6879 7.80004 25.7703 8.02828 25.8675C8.25652 25.9647 8.43192 26.0957 8.5545 26.2606C8.67707 26.4212 8.73835 26.6367 8.73835 26.9072C8.73835 27.1228 8.69609 27.3109 8.61156 27.4715C8.53125 27.6279 8.41713 27.7589 8.2692 27.8646C8.12127 27.966 7.94798 28.0421 7.74932 28.0928C7.55067 28.1393 7.33511 28.1625 7.10265 28.1625C6.87441 28.1625 6.6504 28.1393 6.43062 28.0928C6.21506 28.0421 6.01007 27.9702 5.81564 27.8772C5.62122 27.7843 5.43947 27.668 5.27041 27.5285L5.54302 27.0467C5.61065 27.1186 5.6973 27.1904 5.80296 27.2623C5.91285 27.3299 6.03543 27.3933 6.17068 27.4525C6.31016 27.5116 6.4602 27.5602 6.62081 27.5983C6.78143 27.6321 6.94626 27.649 7.11533 27.649C7.43655 27.649 7.68592 27.5919 7.86344 27.4778C8.04096 27.3595 8.12972 27.1883 8.12972 26.9643C8.12972 26.7952 8.079 26.66 7.97756 26.5585C7.88035 26.4571 7.73453 26.3726 7.54011 26.3049C7.34568 26.2373 7.10899 26.1697 6.83003 26.1021C6.52572 26.026 6.27 25.9436 6.0629 25.8548C5.85579 25.7618 5.69941 25.6414 5.59374 25.4934C5.4923 25.3455 5.44159 25.1532 5.44159 24.9165C5.44159 24.6291 5.51132 24.3861 5.6508 24.1874C5.79028 23.9887 5.98259 23.8387 6.22774 23.7373C6.47288 23.6358 6.74973 23.5851 7.05827 23.5851C7.26115 23.5851 7.44923 23.6062 7.62252 23.6485C7.80004 23.6908 7.96488 23.7499 8.11704 23.826C8.2692 23.9021 8.40868 23.993 8.53548 24.0986L8.2692 24.5615ZM9.93264 28.1182V23.6168H10.5032V27.611H13.0139V28.1182H9.93264ZM15.4483 23.6168H15.9301L17.7687 28.1182H17.1601L16.6275 26.7995H14.7382L14.212 28.1182H13.6034L15.4483 23.6168ZM16.5007 26.3557L15.6892 24.2762L14.8523 26.3557H16.5007ZM22.706 28.1182V24.6819L21.2224 27.3257H20.8737L19.3839 24.6819V28.1182H18.8133V23.6168H19.4156L21.0449 26.5395L22.6806 23.6168H23.2766V28.1182H22.706ZM30.4658 23.6168V28.1182H29.8952V26.0704H27.4163V28.1182H26.8457V23.6168H27.4163V25.5632H29.8952V23.6168H30.4658ZM33.8146 28.1499C33.4976 28.1499 33.2102 28.0865 32.9524 27.9597C32.6945 27.8329 32.4705 27.6617 32.2803 27.4461C32.0944 27.2263 31.9507 26.9812 31.8492 26.7107C31.7478 26.436 31.6971 26.1549 31.6971 25.8675C31.6971 25.5674 31.7499 25.2821 31.8556 25.0116C31.9655 24.7369 32.1155 24.4938 32.3057 24.2825C32.5001 24.0669 32.7262 23.8979 32.9841 23.7753C33.2419 23.6485 33.523 23.5851 33.8273 23.5851C34.1443 23.5851 34.4317 23.6506 34.6895 23.7816C34.9473 23.9127 35.1692 24.0881 35.3552 24.3079C35.5412 24.5276 35.6849 24.7728 35.7863 25.0433C35.8878 25.3138 35.9385 25.5906 35.9385 25.8738C35.9385 26.1739 35.8856 26.4613 35.78 26.7361C35.6743 27.0066 35.5243 27.2496 35.3298 27.4652C35.1396 27.6765 34.9156 27.8434 34.6578 27.966C34.4 28.0886 34.1189 28.1499 33.8146 28.1499ZM32.274 25.8675C32.274 26.0957 32.3099 26.3176 32.3818 26.5332C32.4579 26.7445 32.5635 26.9326 32.6988 27.0974C32.834 27.2623 32.9967 27.3933 33.1869 27.4905C33.3771 27.5877 33.5885 27.6363 33.8209 27.6363C34.0619 27.6363 34.2774 27.5856 34.4676 27.4842C34.6578 27.3827 34.8184 27.2475 34.9494 27.0784C35.0847 26.9093 35.1861 26.7192 35.2538 26.5078C35.3256 26.2965 35.3615 26.083 35.3615 25.8675C35.3615 25.6392 35.3235 25.4195 35.2474 25.2081C35.1756 24.9968 35.0699 24.8087 34.9304 24.6439C34.7952 24.4748 34.6325 24.3438 34.4423 24.2508C34.2563 24.1536 34.0492 24.105 33.8209 24.105C33.58 24.105 33.3645 24.1557 33.1743 24.2571C32.9841 24.3544 32.8213 24.4875 32.6861 24.6566C32.5551 24.8256 32.4536 25.0158 32.3818 25.2272C32.3099 25.4343 32.274 25.6477 32.274 25.8675ZM37.1751 28.1182V23.6168H37.7457V27.611H40.2563V28.1182H37.1751ZM40.799 23.6168L42.1621 25.9626L43.5379 23.6168H44.1592L42.4474 26.4761V28.1182H41.8768V26.4634L40.1714 23.6168H40.799ZM48.864 28.1499C48.547 28.1499 48.2596 28.0865 48.0018 27.9597C47.744 27.8286 47.52 27.6553 47.3298 27.4398C47.1438 27.2242 47.0001 26.9812 46.8987 26.7107C46.7972 26.436 46.7465 26.1549 46.7465 25.8675C46.7465 25.5674 46.7993 25.2821 46.905 25.0116C47.0149 24.7369 47.1649 24.4938 47.3551 24.2825C47.5496 24.0669 47.7757 23.8979 48.0335 23.7753C48.2913 23.6485 48.5724 23.5851 48.8767 23.5851C49.1937 23.5851 49.4811 23.6506 49.7389 23.7816C49.9968 23.9127 50.2187 24.0881 50.4046 24.3079C50.5906 24.5276 50.7343 24.7728 50.8358 25.0433C50.9372 25.3138 50.9879 25.5906 50.9879 25.8738C50.9879 26.1739 50.9351 26.4613 50.8294 26.7361C50.7238 27.0066 50.5737 27.2496 50.3793 27.4652C50.1891 27.6765 49.9651 27.8434 49.7072 27.966C49.4494 28.0886 49.1684 28.1499 48.864 28.1499ZM48.8704 27.6363C49.1113 27.6363 49.3269 27.5856 49.517 27.4842C49.7072 27.3827 49.8679 27.2475 49.9989 27.0784C50.1341 26.9093 50.2356 26.7192 50.3032 26.5078C50.3751 26.2965 50.411 26.083 50.411 25.8675C50.411 25.6392 50.3729 25.4195 50.2969 25.2081C50.225 24.9926 50.1193 24.8024 49.9799 24.6375C49.8446 24.4727 49.6819 24.3417 49.4917 24.2445C49.3057 24.1472 49.0986 24.0986 48.8704 24.0986C48.6295 24.0986 48.4139 24.1494 48.2237 24.2508C48.0335 24.3522 47.8708 24.4875 47.7355 24.6566C47.6045 24.8256 47.5031 25.0158 47.4312 25.2272C47.3594 25.4343 47.3234 25.6477 47.3234 25.8675C47.3234 26.0957 47.3594 26.3176 47.4312 26.5332C47.5073 26.7445 47.613 26.9326 47.7482 27.0974C47.8835 27.2623 48.0462 27.3933 48.2364 27.4905C48.4266 27.5877 48.6379 27.6363 48.8704 27.6363ZM49.124 26.6473H49.6819L50.9435 28.1182H50.3856L49.124 26.6473ZM54.0697 28.1499C53.7105 28.1499 53.4083 28.0886 53.1631 27.966C52.918 27.8392 52.7214 27.6701 52.5735 27.4588C52.4256 27.2433 52.3178 27.0002 52.2502 26.7297C52.1825 26.4592 52.1487 26.1803 52.1487 25.8928V23.6168H52.7193V25.8928C52.7193 26.1126 52.7404 26.3282 52.7827 26.5395C52.8292 26.7466 52.9032 26.9326 53.0046 27.0974C53.106 27.2623 53.2434 27.3933 53.4167 27.4905C53.59 27.5877 53.8056 27.6363 54.0634 27.6363C54.3254 27.6363 54.5431 27.5877 54.7164 27.4905C54.8897 27.3891 55.0271 27.2559 55.1285 27.0911C55.2299 26.922 55.3018 26.7339 55.344 26.5268C55.3905 26.3197 55.4138 26.1084 55.4138 25.8928V23.6168H55.9844V25.8928C55.9844 26.1972 55.9485 26.4867 55.8766 26.7614C55.809 27.0319 55.6991 27.2707 55.5469 27.4778C55.3948 27.6849 55.1961 27.8498 54.951 27.9723C54.7101 28.0907 54.4163 28.1499 54.0697 28.1499ZM57.4418 28.1182V23.6168H59.3692C59.5678 23.6168 59.7496 23.6591 59.9144 23.7436C60.0792 23.8239 60.2229 23.9338 60.3455 24.0733C60.4681 24.2085 60.5632 24.3628 60.6308 24.5361C60.6984 24.7052 60.7323 24.8785 60.7323 25.056C60.7323 25.2631 60.6921 25.4596 60.6118 25.6456C60.5357 25.8316 60.4258 25.9901 60.2821 26.1211C60.1426 26.2521 59.9778 26.343 59.7876 26.3937L60.8781 28.1182H60.2314L59.2043 26.5015H58.0124V28.1182H57.4418ZM58.0124 25.9943H59.3755C59.5319 25.9943 59.6671 25.952 59.7813 25.8675C59.8996 25.7787 59.9905 25.6625 60.0539 25.5188C60.1215 25.3751 60.1553 25.2208 60.1553 25.056C60.1553 24.8869 60.1173 24.7326 60.0412 24.5932C59.9651 24.4495 59.8658 24.3353 59.7432 24.2508C59.6206 24.1663 59.4854 24.124 59.3375 24.124H58.0124V25.9943ZM61.5612 24.9419L61.688 24.2128H61.4978V23.49H62.024V24.2128L61.8338 24.9419H61.5612ZM64.299 23.6168H64.7809L66.6194 28.1182H66.0108L65.4782 26.7995H63.5889L63.0627 28.1182H62.4541L64.299 23.6168ZM65.3514 26.3557L64.5399 24.2762L63.7031 26.3557H65.3514ZM68.2346 24.6692V28.1182H67.664V23.6168H68.1458L70.8974 27.1355V23.6231H71.468V28.1182H70.9481L68.2346 24.6692ZM76.2052 23.6168H76.6871L78.5256 28.1182H77.917L77.3844 26.7995H75.4951L74.9689 28.1182H74.3603L76.2052 23.6168ZM77.2576 26.3557L76.4461 24.2762L75.6093 26.3557H77.2576ZM80.8471 23.6422H81.386L81.9819 25.2081L82.5842 23.6422H83.1231L82.3433 25.6012L83.1168 27.4588L84.6384 23.6168H85.2597L83.3767 28.1182H82.8822L81.9883 25.9943L81.088 28.1182H80.5935L78.7169 23.6168H79.3319L80.8598 27.4588L81.6269 25.6012L80.8471 23.6422ZM87.29 23.6168H87.7718L89.6104 28.1182H89.0018L88.4692 26.7995H86.5799L86.0537 28.1182H85.445L87.29 23.6168ZM88.3424 26.3557L87.5309 24.2762L86.694 26.3557H88.3424ZM90.6549 28.1182V23.6168H92.5823C92.7809 23.6168 92.9627 23.6591 93.1275 23.7436C93.2924 23.8239 93.4361 23.9338 93.5586 24.0733C93.6812 24.2085 93.7763 24.3628 93.8439 24.5361C93.9116 24.7052 93.9454 24.8785 93.9454 25.056C93.9454 25.2631 93.9052 25.4596 93.8249 25.6456C93.7488 25.8316 93.6389 25.9901 93.4952 26.1211C93.3558 26.2521 93.1909 26.343 93.0007 26.3937L94.0912 28.1182H93.4445L92.4174 26.5015H91.2255V28.1182H90.6549ZM91.2255 25.9943H92.5886C92.745 25.9943 92.8803 25.952 92.9944 25.8675C93.1127 25.7787 93.2036 25.6625 93.267 25.5188C93.3346 25.3751 93.3684 25.2208 93.3684 25.056C93.3684 24.8869 93.3304 24.7326 93.2543 24.5932C93.1782 24.4495 93.0789 24.3353 92.9563 24.2508C92.8338 24.1663 92.6985 24.124 92.5506 24.124H91.2255V25.9943ZM95.2655 28.1182V23.6168H96.8251C97.307 23.6168 97.7085 23.7182 98.0297 23.9211C98.3552 24.1198 98.5982 24.3903 98.7588 24.7326C98.9194 25.0708 98.9997 25.4469 98.9997 25.8611C98.9997 26.3176 98.911 26.7149 98.7335 27.0531C98.5559 27.3912 98.3045 27.6532 97.979 27.8392C97.6536 28.0252 97.2689 28.1182 96.8251 28.1182H95.2655ZM98.4228 25.8611C98.4228 25.523 98.3594 25.2229 98.2326 24.9609C98.11 24.6988 97.9304 24.4938 97.6937 24.3459C97.457 24.198 97.1675 24.124 96.8251 24.124H95.8361V27.611H96.8251C97.1717 27.611 97.4634 27.5349 97.7 27.3827C97.9367 27.2263 98.1164 27.0171 98.2389 26.7551C98.3615 26.4888 98.4228 26.1908 98.4228 25.8611Z" fill="white"/>
<defs>
<clipPath id="clip0_88_4912">
<rect width="31.3381" height="35.9118" fill="white" transform="translate(110.48 0.294922)"/>
</clipPath>
</defs>
</svg>
