<svg width="164" height="34" viewBox="0 0 164 34" fill="none" xmlns="http://www.w3.org/2000/svg">
<path d="M6.939 14.0892C6.62697 14.0892 6.28027 14.0817 5.89889 14.0669C5.52247 14.057 5.15348 14.0347 4.79192 14H4.04899C3.8162 14 3.55618 14.0297 3.26891 14.0892C2.98659 14.1486 2.73895 14.3071 2.52597 14.5646C2.35262 14.7727 2.24118 15.0104 2.19165 15.2778C2.14213 15.5453 2.11736 15.835 2.11736 16.1471V17.9375H0.33432V15.6716C0.33432 15.2159 0.388802 14.7875 0.497766 14.3863C0.601776 13.9703 0.827133 13.6186 1.17384 13.3314C1.30756 13.2075 1.45367 13.1035 1.61217 13.0193C1.77066 12.9351 1.93163 12.8683 2.09507 12.8187C2.25852 12.7643 2.42196 12.7246 2.58541 12.6999C2.74886 12.6751 2.90487 12.6578 3.05346 12.6479H3.12775C3.15747 12.6479 3.18471 12.6454 3.20947 12.6404C3.0807 12.4225 2.97669 12.1947 2.89744 11.9569C2.82315 11.7142 2.76619 11.4765 2.72657 11.2437C2.6919 11.006 2.66961 10.7806 2.6597 10.5676C2.6498 10.3497 2.64484 10.159 2.64484 9.99559C2.64484 9.77271 2.65475 9.51516 2.67456 9.22294C2.69437 8.93071 2.73895 8.63602 2.80829 8.33884C2.88258 8.03672 2.98659 7.74202 3.12032 7.45475C3.259 7.16749 3.44721 6.91489 3.68495 6.69696C3.90783 6.49389 4.15548 6.3354 4.42789 6.22148C4.70525 6.10757 4.98756 6.02337 5.27483 5.96889C5.56705 5.90945 5.85432 5.87478 6.13663 5.86487C6.4239 5.85002 6.69136 5.84259 6.939 5.84259C7.18169 5.84259 7.4442 5.85002 7.72651 5.86487C8.01378 5.87478 8.30105 5.90945 8.58831 5.96889C8.88054 6.02337 9.16533 6.10757 9.44269 6.22148C9.72005 6.3354 9.97017 6.49389 10.1931 6.69696C10.4258 6.91489 10.6091 7.16749 10.7428 7.45475C10.8815 7.73707 10.9855 8.02681 11.0549 8.32399C11.1291 8.62116 11.1762 8.9109 11.196 9.19322C11.2158 9.47553 11.2257 9.72318 11.2257 9.93615C11.2257 10.8029 11.1267 11.4963 10.9286 12.0164C10.8345 12.2541 10.7379 12.4597 10.6388 12.633H12.1247V14H8.95235L6.939 14.0892ZM4.48732 9.98073C4.48732 10.3175 4.50961 10.6741 4.55418 11.0506C4.59876 11.427 4.74982 11.7613 5.00737 12.0535C5.26492 12.3457 5.56953 12.5315 5.92118 12.6107C6.26788 12.685 6.60716 12.7222 6.939 12.7222C7.27085 12.7222 7.60764 12.685 7.94939 12.6107C8.29609 12.5265 8.59822 12.3408 8.85577 12.0535C9.11827 11.7514 9.27181 11.422 9.31639 11.0654C9.34115 10.8822 9.35849 10.7014 9.3684 10.5231C9.38325 10.3398 9.39068 10.159 9.39068 9.98073V9.49782C9.39068 9.36905 9.38325 9.23036 9.3684 9.08178C9.35354 8.93319 9.3263 8.78708 9.28667 8.64345C9.24705 8.49981 9.19257 8.36113 9.12323 8.2274C9.05884 8.08872 8.97464 7.9649 8.87063 7.85594C8.7369 7.70735 8.59079 7.59096 8.4323 7.50676C8.27876 7.42256 8.11779 7.36065 7.94939 7.32103C7.78099 7.27645 7.61012 7.24921 7.43677 7.2393C7.26837 7.22444 7.10245 7.21701 6.939 7.21701C6.79537 7.21701 6.6344 7.22197 6.45609 7.23187C6.28274 7.24178 6.10692 7.26902 5.92861 7.3136C5.75526 7.35817 5.58686 7.42256 5.42342 7.50676C5.25997 7.59096 5.11634 7.70735 4.99252 7.85594C4.86374 7.99957 4.76468 8.16797 4.69534 8.36113C4.63095 8.54934 4.58143 8.74251 4.54675 8.94062C4.51704 9.13874 4.4997 9.32942 4.49475 9.51268C4.4898 9.69594 4.48732 9.85195 4.48732 9.98073ZM11.9761 13.9926V12.6256H14.0266C14.3584 12.6256 14.6234 12.5884 14.8215 12.5141C15.0196 12.4398 15.1831 12.316 15.3119 12.1427C15.4555 11.9495 15.5471 11.7291 15.5868 11.4815C15.6264 11.2338 15.6462 10.9763 15.6462 10.7088V5.93174H17.4218V11.2437C17.4218 11.5211 17.3995 11.7687 17.3549 11.9866C17.3153 12.2046 17.2584 12.3977 17.1841 12.5661C17.1147 12.7345 17.0305 12.8831 16.9315 13.0119C16.8374 13.1357 16.7383 13.2447 16.6343 13.3388C16.4708 13.4874 16.3 13.6062 16.1217 13.6954C15.9483 13.7796 15.7675 13.844 15.5793 13.8886C15.3911 13.9331 15.1979 13.9629 14.9998 13.9777C14.8017 13.9876 14.5962 13.9926 14.3832 13.9926H11.9761ZM13.0088 16.6523V15.2333H14.7844V16.6523H13.0088ZM15.401 16.6523V15.2333H17.1766V16.6523H15.401ZM18.4619 15.3373H18.7368C18.8656 15.3373 18.9844 15.3348 19.0934 15.3299C19.2717 15.3249 19.4277 15.3076 19.5614 15.2778C19.7001 15.2531 19.8215 15.2159 19.9255 15.1664C20.0344 15.1218 20.1409 15.0624 20.2449 14.9881C20.349 14.9138 20.4381 14.8321 20.5124 14.7429C20.5916 14.6538 20.656 14.5473 20.7056 14.4235C20.76 14.3046 20.7997 14.1634 20.8244 14C20.8542 13.8415 20.869 13.6533 20.869 13.4354V5.93917H22.6446V12.633H23.967V14H22.6372C22.6223 14.3219 22.5753 14.5993 22.496 14.8321C22.4168 15.0698 22.3252 15.2729 22.2211 15.4413C22.1171 15.6097 22.0082 15.7484 21.8943 15.8573C21.7853 15.9663 21.6912 16.053 21.6119 16.1174C21.2851 16.3501 20.869 16.5136 20.3638 16.6077C19.9775 16.682 19.5169 16.7191 18.982 16.7191C18.8136 16.7191 18.6402 16.7167 18.4619 16.7117V15.3373ZM23.7516 14V12.633H31.6638C31.8867 12.633 32.0675 12.5934 32.2062 12.5141C32.3449 12.4299 32.4538 12.316 32.5331 12.1724C32.6173 12.0287 32.6742 11.8628 32.7039 11.6746C32.7337 11.4815 32.7535 11.2734 32.7634 11.0506C32.7535 10.8277 32.7337 10.6221 32.7039 10.4339C32.6742 10.2457 32.6173 10.0847 32.5331 9.95101C32.4538 9.81233 32.3449 9.70337 32.2062 9.62412C32.0675 9.54487 31.8867 9.50525 31.6638 9.50525H27.1542C26.6342 9.50525 26.2058 9.43343 25.869 9.2898C25.5371 9.14121 25.2746 8.953 25.0814 8.72517C24.8883 8.49238 24.7595 8.23483 24.6951 7.95252C24.6357 7.72469 24.606 7.50181 24.606 7.28388C24.606 7.2393 24.6084 7.19225 24.6134 7.14272C24.6283 6.87526 24.6654 6.60781 24.7248 6.34035C24.7892 6.06794 24.8957 5.81535 25.0443 5.58256C25.1978 5.34977 25.4034 5.14423 25.6609 4.96592C25.9234 4.78267 26.2578 4.64399 26.6639 4.54988L31.9684 3.33147V4.71333L27.2582 5.93174C27.0502 5.98622 26.8769 6.05804 26.7382 6.14719C26.6045 6.23139 26.4955 6.32797 26.4113 6.43693C26.332 6.54094 26.2726 6.65238 26.233 6.77125C26.1983 6.88517 26.1785 6.99661 26.1736 7.10557V7.17244C26.1736 7.39532 26.2429 7.59343 26.3816 7.76679C26.5302 7.95995 26.7877 8.08377 27.1542 8.13825H32.3771C32.7832 8.13825 33.1249 8.20264 33.4023 8.33142C33.6846 8.45524 33.9125 8.63849 34.0858 8.88119C34.2641 9.12388 34.3929 9.426 34.4721 9.78757C34.5514 10.1442 34.5984 10.5528 34.6133 11.0134C34.6133 11.0233 34.6108 11.0307 34.6059 11.0357C34.6059 11.0406 34.6059 11.0456 34.6059 11.0506V11.422C34.596 11.6598 34.5786 11.8802 34.5539 12.0832C34.534 12.2813 34.5018 12.4646 34.4573 12.633H35.2151V14H23.7516ZM35.0665 13.9926V12.6256H35.9357C36.2675 12.6256 36.5325 12.5884 36.7306 12.5141C36.9288 12.4398 37.0922 12.316 37.221 12.1427C37.3646 11.9495 37.4562 11.7291 37.4959 11.4815C37.5355 11.2338 37.5553 10.9763 37.5553 10.7088V3.34633H39.3309V11.2437C39.3309 11.5211 39.3086 11.7687 39.264 11.9866C39.2244 12.2046 39.1675 12.3977 39.0932 12.5661C39.0238 12.7345 38.9396 12.8831 38.8406 13.0119C38.7465 13.1357 38.6474 13.2447 38.5434 13.3388C38.38 13.4874 38.2091 13.6062 38.0308 13.6954C37.8574 13.7796 37.6766 13.844 37.4884 13.8886C37.3002 13.9331 37.1071 13.9629 36.9089 13.9777C36.7108 13.9876 36.5053 13.9926 36.2923 13.9926H35.0665ZM40.6533 3.34633H42.4364V14H40.6533V3.34633ZM53.6472 14.208C53.7612 14.0545 53.8379 13.8712 53.8776 13.6583C53.9221 13.4403 53.9444 13.1531 53.9444 12.7964V5.93174H55.7275V13.1159C55.7275 13.3636 55.7151 13.5988 55.6903 13.8217C55.6705 14.0446 55.6284 14.2526 55.564 14.4458C55.5046 14.6439 55.4204 14.8296 55.3114 15.003C55.2074 15.1763 55.0712 15.3373 54.9028 15.4859C54.6304 15.7236 54.3283 15.8846 53.9964 15.9688C53.6695 16.053 53.2733 16.0951 52.8077 16.0951H50.1109C49.6453 16.0951 49.2466 16.053 48.9148 15.9688C48.5879 15.8846 48.2882 15.7236 48.0158 15.4859C47.8474 15.3373 47.7087 15.1763 47.5998 15.003C47.4958 14.8296 47.4116 14.6439 47.3472 14.4458C47.2877 14.2526 47.2456 14.0446 47.2209 13.8217C47.2011 13.5988 47.1912 13.3636 47.1912 13.1159V8.03424H48.9742V12.7964C48.9742 13.1531 48.994 13.4403 49.0336 13.6583C49.0782 13.8712 49.1575 14.0545 49.2714 14.208C49.4348 14.4259 49.6354 14.5671 49.8731 14.6315C50.1109 14.6959 50.3932 14.7281 50.7201 14.7281H52.1985C52.5254 14.7281 52.8077 14.6959 53.0455 14.6315C53.2832 14.5671 53.4838 14.4259 53.6472 14.208ZM50.5566 4.76533V3.34633H52.3323V4.76533H50.5566ZM56.8344 3.34633H58.6175V14H56.8344V3.34633ZM59.5461 15.3373H59.821C59.9498 15.3373 60.0687 15.3348 60.1776 15.3299C60.3559 15.3249 60.512 15.3076 60.6457 15.2778C60.7844 15.2531 60.9057 15.2159 61.0097 15.1664C61.1187 15.1218 61.2252 15.0624 61.3292 14.9881C61.4332 14.9138 61.5223 14.8321 61.5966 14.7429C61.6759 14.6538 61.7403 14.5473 61.7898 14.4235C61.8443 14.3046 61.8839 14.1634 61.9087 14C61.9384 13.8415 61.9532 13.6533 61.9532 13.4354V5.93917H63.7289V12.633H65.0513V14H63.7214C63.7066 14.3219 63.6595 14.5993 63.5803 14.8321C63.501 15.0698 63.4094 15.2729 63.3054 15.4413C63.2014 15.6097 63.0924 15.7484 62.9785 15.8573C62.8695 15.9663 62.7754 16.053 62.6962 16.1174C62.3693 16.3501 61.9532 16.5136 61.4481 16.6077C61.0617 16.682 60.6011 16.7191 60.0662 16.7191C59.8978 16.7191 59.7244 16.7167 59.5461 16.7117V15.3373ZM64.873 12.633H66.1731C66.0295 12.42 65.918 12.1947 65.8388 11.9569C65.7595 11.7192 65.6976 11.4839 65.6531 11.2511C65.6134 11.0184 65.5887 10.7955 65.5788 10.5825C65.5689 10.3646 65.5639 10.1689 65.5639 9.99559C65.5639 9.77271 65.5738 9.51516 65.5936 9.22294C65.6134 8.93071 65.658 8.63354 65.7273 8.33142C65.8016 8.02929 65.9057 7.73459 66.0394 7.44732C66.1781 7.16006 66.3663 6.90994 66.604 6.69696C66.8269 6.48894 67.0745 6.32797 67.3469 6.21405C67.6243 6.10014 67.9066 6.01594 68.1939 5.96146C68.4861 5.90697 68.7759 5.87478 69.0631 5.86487C69.3504 5.85002 69.6154 5.84259 69.8581 5.84259C70.1007 5.84259 70.3633 5.85002 70.6456 5.86487C70.9328 5.87478 71.2201 5.90697 71.5074 5.96146C71.7996 6.01594 72.0844 6.10014 72.3617 6.21405C72.6391 6.32797 72.8892 6.48894 73.1121 6.69696C73.3498 6.90994 73.5356 7.16006 73.6693 7.44732C73.808 7.73459 73.912 8.02929 73.9813 8.33142C74.0507 8.62859 74.0953 8.91833 74.1151 9.20065C74.1349 9.48296 74.1448 9.72813 74.1448 9.93615C74.1448 10.58 74.0854 11.1199 73.9665 11.5557C73.8526 11.9866 73.704 12.3457 73.5207 12.633H74.8283V14H64.873V12.633ZM67.4064 9.98073C67.4064 10.1491 67.4089 10.32 67.4138 10.4934C67.4188 10.6618 67.4386 10.8301 67.4732 10.9985C67.5079 11.1669 67.5574 11.3329 67.6218 11.4963C67.6912 11.6598 67.7902 11.8158 67.919 11.9644C68.0379 12.103 68.1691 12.217 68.3128 12.3061C68.4564 12.3903 68.605 12.4572 68.7585 12.5067C68.9121 12.5513 69.0681 12.5835 69.2266 12.6033C69.39 12.6231 69.5485 12.633 69.702 12.633H69.8506C70.019 12.633 70.1874 12.6256 70.3558 12.6107C70.5292 12.5959 70.6976 12.5661 70.861 12.5216C71.0245 12.477 71.183 12.4101 71.3365 12.321C71.49 12.2318 71.6337 12.1129 71.7674 11.9644C71.9011 11.8158 72.0051 11.6622 72.0794 11.5037C72.1537 11.3452 72.2057 11.1843 72.2354 11.0208C72.2701 10.8524 72.2899 10.6816 72.2949 10.5082C72.3048 10.3349 72.3097 10.159 72.3097 9.98073V9.49782C72.3097 9.36409 72.3023 9.22541 72.2875 9.08178C72.2726 8.93319 72.2454 8.78708 72.2057 8.64345C72.1661 8.49486 72.1116 8.3537 72.0423 8.21997C71.9779 8.08625 71.8937 7.9649 71.7897 7.85594C71.656 7.7123 71.5098 7.59839 71.3514 7.51419C71.1978 7.42999 71.0368 7.3656 70.8684 7.32103C70.7 7.27645 70.5292 7.24921 70.3558 7.2393C70.1874 7.22444 70.0215 7.21701 69.8581 7.21701C69.7144 7.21701 69.5535 7.22444 69.3752 7.2393C69.2018 7.24921 69.026 7.27645 68.8477 7.32103C68.6743 7.3656 68.5059 7.42999 68.3425 7.51419C68.179 7.59839 68.0354 7.7123 67.9116 7.85594C67.7828 7.99957 67.6837 8.16797 67.6144 8.36113C67.55 8.54934 67.5005 8.74251 67.4658 8.94062C67.4361 9.13874 67.4188 9.32942 67.4138 9.51268C67.4089 9.69594 67.4064 9.85195 67.4064 9.98073ZM67.7778 4.73562V3.31661H69.5535V4.73562H67.7778ZM70.1701 4.73562V3.31661H71.9457V4.73562H70.1701ZM74.6871 13.9926V12.6256H74.8654C75.1973 12.6256 75.4623 12.5884 75.6604 12.5141C75.8585 12.4398 76.0219 12.316 76.1507 12.1427C76.2844 11.9545 76.3711 11.744 76.4107 11.5112C76.4553 11.2784 76.4801 11.0332 76.485 10.7757C76.485 10.7658 76.4826 10.7435 76.4776 10.7088C76.4776 10.6741 76.4776 10.585 76.4776 10.4413V8.50229C76.4776 7.95747 76.4776 7.26654 76.4776 6.4295C76.4826 5.59247 76.485 4.56722 76.485 3.35376H78.2606V10.5751L78.2978 11.6746C78.3572 11.8876 78.4513 12.0585 78.5801 12.1872C78.7089 12.3111 78.855 12.4076 79.0184 12.477C79.1819 12.5414 79.3552 12.5835 79.5385 12.6033C79.7217 12.6231 79.8951 12.633 80.0585 12.633H80.2517V14H79.5236C79.3503 14 79.172 13.995 78.9887 13.9851C78.8104 13.9703 78.6296 13.943 78.4464 13.9034C78.2631 13.8638 78.0823 13.8044 77.904 13.7251C77.7307 13.6409 77.5672 13.5295 77.4137 13.3908C77.2552 13.5295 77.0893 13.6384 76.9159 13.7177C76.7475 13.7969 76.5717 13.8588 76.3885 13.9034C76.2052 13.943 76.017 13.9678 75.8238 13.9777C75.6307 13.9876 75.4301 13.9926 75.222 13.9926H74.6871ZM80.1031 13.9926V12.6256H80.9724C81.3042 12.6256 81.5692 12.5884 81.7673 12.5141C81.9654 12.4398 82.1289 12.316 82.2576 12.1427C82.4013 11.9495 82.4929 11.7291 82.5325 11.4815C82.5721 11.2338 82.5919 10.9763 82.5919 10.7088V3.34633H84.3676V11.2437C84.3676 11.5211 84.3453 11.7687 84.3007 11.9866C84.2611 12.2046 84.2041 12.3977 84.1298 12.5661C84.0605 12.7345 83.9763 12.8831 83.8772 13.0119C83.7831 13.1357 83.6841 13.2447 83.5801 13.3388C83.4166 13.4874 83.2457 13.6062 83.0674 13.6954C82.8941 13.7796 82.7133 13.844 82.5251 13.8886C82.3369 13.9331 82.1437 13.9629 81.9456 13.9777C81.7475 13.9876 81.5419 13.9926 81.329 13.9926H80.1031ZM95.7939 14.0892C95.4819 14.0892 95.1351 14.0817 94.7538 14.0669C94.3774 14.057 94.0084 14.0347 93.6468 14H92.9039C92.6711 14 92.4111 14.0297 92.1238 14.0892C91.8415 14.1486 91.5938 14.3071 91.3809 14.5646C91.2075 14.7727 91.0961 15.0104 91.0465 15.2778C90.997 15.5453 90.9722 15.835 90.9722 16.1471V17.9375H89.1892V15.6716C89.1892 15.2159 89.2437 14.7875 89.3526 14.3863C89.4567 13.9703 89.682 13.6186 90.0287 13.3314C90.1624 13.2075 90.3086 13.1035 90.467 13.0193C90.6255 12.9351 90.7865 12.8683 90.95 12.8187C91.1134 12.7643 91.2768 12.7246 91.4403 12.6999C91.6037 12.6751 91.7598 12.6578 91.9083 12.6479H91.9826C92.0123 12.6479 92.0396 12.6454 92.0644 12.6404C91.9356 12.4225 91.8316 12.1947 91.7523 11.9569C91.678 11.7142 91.6211 11.4765 91.5814 11.2437C91.5468 11.006 91.5245 10.7806 91.5146 10.5676C91.5047 10.3497 91.4997 10.159 91.4997 9.99559C91.4997 9.77271 91.5096 9.51516 91.5294 9.22294C91.5493 8.93071 91.5938 8.63602 91.6632 8.33884C91.7375 8.03672 91.8415 7.74202 91.9752 7.45475C92.1139 7.16749 92.3021 6.91489 92.5398 6.69696C92.7627 6.49389 93.0104 6.3354 93.2828 6.22148C93.5601 6.10757 93.8424 6.02337 94.1297 5.96889C94.4219 5.90945 94.7092 5.87478 94.9915 5.86487C95.2788 5.85002 95.5462 5.84259 95.7939 5.84259C96.0366 5.84259 96.2991 5.85002 96.5814 5.86487C96.8687 5.87478 97.1559 5.90945 97.4432 5.96889C97.7354 6.02337 98.0202 6.10757 98.2976 6.22148C98.5749 6.3354 98.8251 6.49389 99.0479 6.69696C99.2807 6.91489 99.464 7.16749 99.5977 7.45475C99.7364 7.73707 99.8404 8.02681 99.9097 8.32399C99.984 8.62116 100.031 8.9109 100.051 9.19322C100.071 9.47553 100.081 9.72318 100.081 9.93615C100.081 10.8029 99.9816 11.4963 99.7834 12.0164C99.6893 12.2541 99.5928 12.4597 99.4937 12.633H100.98V14H97.8072L95.7939 14.0892ZM93.3422 9.98073C93.3422 10.3175 93.3645 10.6741 93.4091 11.0506C93.4536 11.427 93.6047 11.7613 93.8623 12.0535C94.1198 12.3457 94.4244 12.5315 94.7761 12.6107C95.1228 12.685 95.462 12.7222 95.7939 12.7222C96.1257 12.7222 96.4625 12.685 96.8043 12.6107C97.151 12.5265 97.4531 12.3408 97.7107 12.0535C97.9732 11.7514 98.1267 11.422 98.1713 11.0654C98.196 10.8822 98.2134 10.7014 98.2233 10.5231C98.2381 10.3398 98.2456 10.159 98.2456 9.98073V9.49782C98.2456 9.36905 98.2381 9.23036 98.2233 9.08178C98.2084 8.93319 98.1812 8.78708 98.1416 8.64345C98.1019 8.49981 98.0474 8.36113 97.9781 8.2274C97.9137 8.08872 97.8295 7.9649 97.7255 7.85594C97.5918 7.70735 97.4457 7.59096 97.2872 7.50676C97.1336 7.42256 96.9727 7.36065 96.8043 7.32103C96.6359 7.27645 96.465 7.24921 96.2916 7.2393C96.1233 7.22444 95.9573 7.21701 95.7939 7.21701C95.6502 7.21701 95.4893 7.22197 95.311 7.23187C95.1376 7.24178 94.9618 7.26902 94.7835 7.3136C94.6101 7.35817 94.4417 7.42256 94.2783 7.50676C94.1149 7.59096 93.9712 7.70735 93.8474 7.85594C93.7186 7.99957 93.6196 8.16797 93.5502 8.36113C93.4858 8.54934 93.4363 8.74251 93.4016 8.94062C93.3719 9.13874 93.3546 9.32942 93.3496 9.51268C93.3447 9.69594 93.3422 9.85195 93.3422 9.98073ZM100.838 13.9926V12.6256H101.017C101.349 12.6256 101.614 12.5884 101.812 12.5141C102.01 12.4398 102.173 12.316 102.302 12.1427C102.436 11.9545 102.522 11.744 102.562 11.5112C102.607 11.2784 102.631 11.0332 102.636 10.7757C102.636 10.7658 102.634 10.7435 102.629 10.7088C102.629 10.6741 102.629 10.585 102.629 10.4413V8.50229C102.629 7.95747 102.629 7.26654 102.629 6.4295C102.634 5.59247 102.636 4.56722 102.636 3.35376H104.412V10.5751L104.449 11.6746C104.508 11.8876 104.603 12.0585 104.731 12.1872C104.86 12.3111 105.006 12.4076 105.17 12.477C105.333 12.5414 105.507 12.5835 105.69 12.6033C105.873 12.6231 106.046 12.633 106.21 12.633H106.403V14H105.675C105.502 14 105.323 13.995 105.14 13.9851C104.962 13.9703 104.781 13.943 104.598 13.9034C104.414 13.8638 104.234 13.8044 104.055 13.7251C103.882 13.6409 103.719 13.5295 103.565 13.3908C103.406 13.5295 103.241 13.6384 103.067 13.7177C102.899 13.7969 102.723 13.8588 102.54 13.9034C102.356 13.943 102.168 13.9678 101.975 13.9777C101.782 13.9876 101.581 13.9926 101.373 13.9926H100.838ZM109.308 12.6404H112.376V5.9466H114.159V12.6404H115.816C115.895 12.6404 115.982 12.638 116.076 12.633C116.17 12.6231 116.264 12.6058 116.358 12.581C116.457 12.5562 116.551 12.5191 116.641 12.4696C116.735 12.42 116.819 12.3507 116.893 12.2615C116.967 12.1823 117.027 12.0956 117.072 12.0015C117.116 11.9025 117.151 11.8034 117.176 11.7043C117.2 11.6003 117.215 11.4988 117.22 11.3997C117.23 11.3007 117.235 11.2066 117.235 11.1174V5.9466H119.011V11.3923C119.011 11.7984 118.949 12.1749 118.825 12.5216C118.701 12.8633 118.52 13.1456 118.282 13.3685C118.134 13.5022 117.97 13.6112 117.792 13.6954C117.614 13.7796 117.433 13.844 117.25 13.8886C117.072 13.9331 116.893 13.9653 116.715 13.9851C116.537 14 116.373 14.0074 116.225 14.0074H106.217V12.6404H107.525V5.9466H109.308V12.6404ZM120.236 3.34633H122.019V14H120.236V3.34633ZM120.363 2.16506H121.262C121.296 2.16506 121.314 2.15021 121.314 2.12049C121.314 2.11058 121.311 2.10315 121.306 2.0982C121.306 2.09325 121.289 2.08582 121.254 2.07591C121.22 2.06105 121.163 2.04124 121.083 2.01648C121.004 1.99171 120.89 1.95457 120.742 1.90504C120.598 1.85551 120.494 1.7936 120.43 1.7193C120.37 1.64006 120.34 1.53605 120.34 1.40727C120.34 1.23887 120.383 1.12248 120.467 1.05809C120.551 0.988753 120.662 0.954082 120.801 0.954082H121.908V1.37755H121.009C120.999 1.37755 120.982 1.37508 120.957 1.37013H120.95C120.925 1.37013 120.912 1.38251 120.912 1.40727C120.912 1.41718 120.92 1.42956 120.935 1.44442C120.955 1.45432 120.984 1.46671 121.024 1.48157C121.068 1.49642 121.128 1.51624 121.202 1.541C121.277 1.56576 121.371 1.59796 121.485 1.63758C121.643 1.69206 121.759 1.75893 121.834 1.83817C121.913 1.91742 121.953 2.03134 121.953 2.17992C121.953 2.3087 121.915 2.41271 121.841 2.49196C121.772 2.5712 121.673 2.61082 121.544 2.61082H120.363V2.16506ZM131.091 5.84259C131.333 5.84259 131.596 5.85002 131.878 5.86487C132.165 5.87478 132.453 5.90697 132.74 5.96146C133.032 6.01594 133.317 6.10014 133.594 6.21405C133.872 6.32797 134.122 6.48894 134.345 6.69696C134.582 6.90994 134.768 7.16006 134.902 7.44732C135.041 7.73459 135.145 8.02929 135.214 8.33142C135.283 8.62859 135.328 8.91833 135.348 9.20065C135.367 9.48296 135.377 9.72813 135.377 9.93615C135.377 10.3671 135.35 10.7559 135.296 11.1026C135.246 11.4443 135.174 11.7489 135.08 12.0164C134.991 12.2838 134.882 12.5191 134.753 12.7222C134.63 12.9203 134.493 13.0887 134.345 13.2273C134.132 13.4304 133.884 13.5889 133.602 13.7028C133.324 13.8167 133.037 13.9034 132.74 13.9629C132.443 14.0173 132.151 14.052 131.863 14.0669C131.576 14.0817 131.319 14.0892 131.091 14.0892C130.848 14.0892 130.583 14.0817 130.296 14.0669C130.008 14.052 129.719 14.0173 129.426 13.9629C129.139 13.9034 128.857 13.8167 128.58 13.7028C128.307 13.5889 128.059 13.4304 127.837 13.2273C127.594 13.0045 127.403 12.7519 127.265 12.4696C127.126 12.1823 127.022 11.8901 126.953 11.5929C126.883 11.2957 126.839 11.0085 126.819 10.7311C126.804 10.4488 126.797 10.2036 126.797 9.99559C126.797 9.77271 126.806 9.51516 126.826 9.22294C126.846 8.93071 126.891 8.63354 126.96 8.33142C127.034 8.02929 127.138 7.73459 127.272 7.44732C127.411 7.16006 127.599 6.90994 127.837 6.69696C128.059 6.48894 128.307 6.32797 128.58 6.21405C128.857 6.10014 129.139 6.01594 129.426 5.96146C129.719 5.90697 130.008 5.87478 130.296 5.86487C130.583 5.85002 130.848 5.84259 131.091 5.84259ZM128.639 9.98073C128.639 10.1491 128.641 10.325 128.646 10.5082C128.656 10.6865 128.676 10.8673 128.706 11.0506C128.741 11.2289 128.793 11.4047 128.862 11.578C128.931 11.7464 129.03 11.9049 129.159 12.0535C129.293 12.2021 129.436 12.321 129.59 12.4101C129.748 12.4993 129.909 12.5661 130.073 12.6107C130.241 12.6553 130.412 12.685 130.585 12.6999C130.759 12.7147 130.927 12.7222 131.091 12.7222C131.259 12.7222 131.427 12.7147 131.596 12.6999C131.769 12.685 131.938 12.6553 132.101 12.6107C132.265 12.5661 132.423 12.4993 132.577 12.4101C132.73 12.321 132.874 12.2021 133.007 12.0535C133.141 11.9049 133.243 11.7489 133.312 11.5855C133.386 11.4171 133.441 11.2437 133.475 11.0654C133.51 10.8871 133.53 10.7063 133.535 10.5231C133.54 10.3398 133.542 10.159 133.542 9.98073V9.49782C133.542 9.36409 133.535 9.22541 133.52 9.08178C133.505 8.93319 133.478 8.78708 133.438 8.64345C133.399 8.49486 133.344 8.3537 133.275 8.21997C133.211 8.08625 133.126 7.9649 133.022 7.85594C132.889 7.7123 132.742 7.59839 132.584 7.51419C132.43 7.42999 132.269 7.3656 132.101 7.32103C131.933 7.27645 131.762 7.24921 131.588 7.2393C131.42 7.22444 131.254 7.21701 131.091 7.21701C130.947 7.21701 130.786 7.22444 130.608 7.2393C130.434 7.24921 130.259 7.27645 130.08 7.32103C129.907 7.3656 129.739 7.42999 129.575 7.51419C129.412 7.59839 129.268 7.7123 129.144 7.85594C129.015 7.99957 128.916 8.16797 128.847 8.36113C128.783 8.54934 128.733 8.74251 128.698 8.94062C128.669 9.13874 128.651 9.32942 128.646 9.51268C128.641 9.69594 128.639 9.85195 128.639 9.98073ZM128.988 4.30471V2.88571H130.764V4.30471H128.988ZM131.38 4.30471V2.88571H133.156V4.30471H131.38ZM136.098 15.3373H136.373C136.502 15.3373 136.621 15.3348 136.73 15.3299C136.908 15.3249 137.064 15.3076 137.198 15.2778C137.336 15.2531 137.458 15.2159 137.562 15.1664C137.671 15.1218 137.777 15.0624 137.881 14.9881C137.985 14.9138 138.074 14.8321 138.149 14.7429C138.228 14.6538 138.292 14.5473 138.342 14.4235C138.396 14.3046 138.436 14.1634 138.461 14C138.49 13.8415 138.505 13.6533 138.505 13.4354V5.93917H140.281V12.633H141.603V14H140.273C140.258 14.3219 140.211 14.5993 140.132 14.8321C140.053 15.0698 139.961 15.2729 139.857 15.4413C139.753 15.6097 139.644 15.7484 139.53 15.8573C139.421 15.9663 139.327 16.053 139.248 16.1174C138.921 16.3501 138.505 16.5136 138 16.6077C137.614 16.682 137.153 16.7191 136.618 16.7191C136.45 16.7191 136.276 16.7167 136.098 16.7117V15.3373ZM138.505 4.76533V3.34633H140.281V4.76533H138.505ZM141.425 13.9926V12.6256H142.294C142.626 12.6256 142.891 12.5884 143.089 12.5141C143.287 12.4398 143.451 12.316 143.579 12.1427C143.723 11.9495 143.815 11.7291 143.854 11.4815C143.894 11.2338 143.914 10.9763 143.914 10.7088V8.7326H145.689V11.2437C145.689 11.5211 145.667 11.7687 145.622 11.9866C145.583 12.2046 145.526 12.3977 145.452 12.5661C145.382 12.7345 145.298 12.8831 145.199 13.0119C145.105 13.1357 145.006 13.2447 144.902 13.3388C144.738 13.4874 144.567 13.6062 144.389 13.6954C144.216 13.7796 144.035 13.844 143.847 13.8886C143.659 13.9331 143.465 13.9629 143.267 13.9777C143.069 13.9876 142.864 13.9926 142.651 13.9926H141.425ZM142.272 6.9347H144.419C144.444 6.9347 144.471 6.92727 144.501 6.91241C144.53 6.89755 144.545 6.87031 144.545 6.83069C144.545 6.80592 144.54 6.78859 144.53 6.77868C144.525 6.76382 144.481 6.74401 144.397 6.71925C144.317 6.68953 144.184 6.64496 143.995 6.58552C143.812 6.52113 143.542 6.4295 143.186 6.31064C142.844 6.19672 142.599 6.05061 142.45 5.8723C142.302 5.68905 142.227 5.4414 142.227 5.12937C142.227 4.73809 142.326 4.46073 142.524 4.29728C142.727 4.13384 142.995 4.05212 143.327 4.05212H145.957V5.06251H143.817C143.802 5.06251 143.782 5.06003 143.758 5.05508H143.676C143.651 5.06003 143.629 5.06746 143.609 5.07736C143.589 5.08727 143.579 5.10708 143.579 5.1368C143.579 5.16156 143.599 5.18633 143.639 5.21109C143.678 5.23586 143.748 5.26805 143.847 5.30767C143.951 5.34234 144.092 5.3894 144.27 5.44883C144.449 5.50331 144.676 5.57761 144.954 5.67171C145.137 5.73115 145.296 5.80049 145.429 5.87973C145.568 5.95403 145.684 6.04318 145.778 6.14719C145.873 6.24625 145.942 6.36264 145.986 6.49637C146.036 6.6301 146.061 6.78611 146.061 6.96442C146.061 7.26654 145.977 7.51419 145.808 7.70735C145.64 7.89556 145.4 7.98967 145.088 7.98967H142.272V6.9347ZM150.006 13.9926C149.793 13.9926 149.587 13.9876 149.389 13.9777C149.191 13.9629 148.998 13.9331 148.81 13.8886C148.621 13.844 148.438 13.7796 148.26 13.6954C148.087 13.6062 147.918 13.4874 147.755 13.3388C147.651 13.2447 147.549 13.1357 147.45 13.0119C147.356 12.8831 147.272 12.7345 147.197 12.5661C147.128 12.3977 147.071 12.2046 147.027 11.9866C146.987 11.7687 146.967 11.5211 146.967 11.2437V3.34633H148.743V10.7088C148.743 10.9763 148.763 11.2338 148.802 11.4815C148.842 11.7291 148.933 11.9495 149.077 12.1427C149.206 12.316 149.369 12.4398 149.567 12.5141C149.766 12.5884 150.031 12.6256 150.362 12.6256H151.232V13.9926H150.006ZM150.957 14V12.633H156.692C156.747 12.633 156.811 12.6305 156.885 12.6256C156.96 12.6206 157.029 12.5909 157.093 12.5364C157.153 12.4869 157.187 12.4349 157.197 12.3804C157.207 12.3259 157.212 12.2665 157.212 12.2021V8.41314C157.212 8.29427 157.2 8.17045 157.175 8.04167C157.15 7.90794 157.086 7.77917 156.982 7.65535C156.863 7.50181 156.724 7.40522 156.566 7.3656C156.407 7.32598 156.259 7.30617 156.12 7.30617H152.145V5.93917H156.729C157.071 5.93917 157.388 5.99613 157.68 6.11004C157.977 6.21901 158.218 6.37007 158.401 6.56323C158.574 6.73163 158.715 6.97432 158.824 7.29131C158.938 7.60829 158.995 7.99957 158.995 8.46514V12.633H160.184V14H150.957ZM154.508 16.6523V15.2333H156.284V16.6523H154.508Z" fill="black"/>
<path d="M4.59499 28.2554L3.46896 24.9783L2.27225 28.2554H4.59499ZM2.94382 23.8775H4.07994L6.77129 31.2952H5.67052L4.91815 29.0734H1.98443L1.18157 31.2952H0.151483L2.94382 23.8775ZM9.06556 28.9017C9.08912 29.3225 9.18843 29.6642 9.36347 29.9268C9.69674 30.4182 10.2842 30.664 11.1257 30.664C11.5028 30.664 11.8461 30.6101 12.1558 30.5024C12.755 30.2937 13.0546 29.92 13.0546 29.3814C13.0546 28.9775 12.9284 28.6897 12.6759 28.518C12.4201 28.3497 12.0195 28.2032 11.4741 28.0787L10.4693 27.8515C9.81287 27.7033 9.34832 27.5401 9.07565 27.3617C8.60437 27.052 8.36873 26.5891 8.36873 25.9731C8.36873 25.3065 8.59932 24.7595 9.06051 24.332C9.52169 23.9045 10.1747 23.6907 11.0197 23.6907C11.7973 23.6907 12.4571 23.8792 12.9991 24.2563C13.5444 24.6299 13.8171 25.2291 13.8171 26.0539H12.8728C12.8223 25.6566 12.7146 25.352 12.5497 25.1399C12.2433 24.7528 11.7232 24.5592 10.9894 24.5592C10.3969 24.5592 9.97109 24.6838 9.71188 24.9329C9.45268 25.182 9.32308 25.4715 9.32308 25.8014C9.32308 26.1649 9.47456 26.4309 9.77753 26.5992C9.97614 26.7069 10.4255 26.8416 11.1257 27.0031L12.1659 27.2405C12.6675 27.3549 13.0546 27.5115 13.3273 27.7101C13.7986 28.0568 14.0342 28.5601 14.0342 29.2198C14.0342 30.0412 13.7346 30.6286 13.1354 30.9821C12.5396 31.3356 11.8461 31.5123 11.055 31.5123C10.1327 31.5123 9.4106 31.2767 8.88883 30.8054C8.36705 30.3375 8.11121 29.7029 8.12131 28.9017H9.06556ZM16.0305 23.8775H17.0354V30.4115H20.7922V31.2952H16.0305V23.8775ZM26.3181 28.2554L25.192 24.9783L23.9953 28.2554H26.3181ZM24.6669 23.8775H25.803L28.4944 31.2952H27.3936L26.6412 29.0734H23.7075L22.9046 31.2952H21.8746L24.6669 23.8775ZM30.107 23.8775H31.5461L33.6769 30.1489L35.7926 23.8775H37.2166V31.2952H36.2622V26.9173C36.2622 26.7658 36.2656 26.515 36.2723 26.1649C36.2791 25.8148 36.2824 25.4395 36.2824 25.0389L34.1667 31.2952H33.172L31.0411 25.0389V25.2661C31.0411 25.4479 31.0445 25.7256 31.0512 26.0993C31.0613 26.4696 31.0664 26.7423 31.0664 26.9173V31.2952H30.107V23.8775ZM43.0977 23.8775H44.1127V26.9426H47.9705V23.8775H48.9854V31.2952H47.9705V27.8262H44.1127V31.2952H43.0977V23.8775ZM54.4709 23.6756C55.7804 23.6756 56.7499 24.0964 57.3794 24.9379C57.8709 25.5944 58.1166 26.4342 58.1166 27.4576C58.1166 28.5651 57.8355 29.4858 57.2733 30.2196C56.6135 31.0814 55.6727 31.5123 54.4507 31.5123C53.3095 31.5123 52.4124 31.1353 51.7593 30.3812C51.177 29.6541 50.8858 28.7351 50.8858 27.6242C50.8858 26.6211 51.1349 25.7627 51.6331 25.049C52.2727 24.1334 53.2186 23.6756 54.4709 23.6756ZM54.5719 30.6135C55.4572 30.6135 56.0968 30.2971 56.4907 29.6642C56.8879 29.028 57.0865 28.2975 57.0865 27.4727C57.0865 26.6009 56.8576 25.899 56.3998 25.3671C55.9453 24.8353 55.3226 24.5693 54.5315 24.5693C53.764 24.5693 53.1378 24.8336 52.6531 25.3621C52.1684 25.8872 51.926 26.6631 51.926 27.6899C51.926 28.5112 52.133 29.2047 52.5471 29.7702C52.9645 30.3324 53.6394 30.6135 54.5719 30.6135ZM60.0422 23.8775H61.0471V30.4115H64.8039V31.2952H60.0422V23.8775ZM65.1793 23.8775H66.3508L68.4817 27.4424L70.6125 23.8775H71.7891L68.9866 28.3059V31.2952H67.9818V28.3059L65.1793 23.8775ZM83.5831 31.275L83.0782 31.886L81.932 31.0124C81.6559 31.1639 81.3563 31.2851 81.0332 31.376C80.7134 31.4668 80.3633 31.5123 79.9829 31.5123C78.8316 31.5123 77.9294 31.1353 77.2764 30.3812C76.7007 29.6474 76.4129 28.7284 76.4129 27.6242C76.4129 26.6211 76.662 25.7627 77.1602 25.049C77.7998 24.1334 78.7458 23.6756 79.998 23.6756C81.3075 23.6756 82.277 24.0964 82.9065 24.9379C83.398 25.5944 83.6437 26.4342 83.6437 27.4576C83.6437 27.9356 83.5848 28.3951 83.467 28.8361C83.2886 29.5093 82.9873 30.0581 82.5631 30.4822L83.5831 31.275ZM80.1041 30.6135C80.3128 30.6135 80.508 30.6 80.6898 30.5731C80.8716 30.5428 81.0298 30.4856 81.1644 30.4014L80.3515 29.7652L80.8564 29.1441L81.8259 29.8965C82.1322 29.5464 82.3393 29.1542 82.447 28.72C82.5581 28.2857 82.6136 27.87 82.6136 27.4727C82.6136 26.6009 82.3847 25.899 81.9269 25.3671C81.4725 24.8353 80.8497 24.5693 80.0586 24.5693C79.2574 24.5693 78.6229 24.8252 78.155 25.3368C77.6871 25.8451 77.4531 26.6295 77.4531 27.6899C77.4531 28.5819 77.677 29.2922 78.1247 29.8207C78.5758 30.3492 79.2356 30.6135 80.1041 30.6135ZM86.66 23.8775V28.4624C86.66 29.001 86.761 29.4488 86.963 29.8056C87.2626 30.3442 87.7676 30.6135 88.4778 30.6135C89.3295 30.6135 89.9085 30.3223 90.2148 29.7399C90.3798 29.4235 90.4623 28.9977 90.4623 28.4624V23.8775H91.4823V28.0433C91.4823 28.9556 91.3594 29.6575 91.1136 30.1489C90.6626 31.0444 89.8109 31.4921 88.5586 31.4921C87.3064 31.4921 86.4564 31.0444 86.0087 30.1489C85.7629 29.6575 85.6401 28.9556 85.6401 28.0433V23.8775H86.66ZM97.2152 27.2758C97.6865 27.2758 98.0584 27.1816 98.3311 26.993C98.6071 26.8045 98.7452 26.4645 98.7452 25.9731C98.7452 25.4446 98.5533 25.0844 98.1695 24.8925C97.9642 24.7915 97.6898 24.741 97.3465 24.741H94.8924V27.2758H97.2152ZM93.8876 23.8775H97.3212C97.8868 23.8775 98.353 23.96 98.7199 24.125C99.4167 24.4414 99.7651 25.0254 99.7651 25.8771C99.7651 26.3215 99.6726 26.685 99.4874 26.9678C99.3057 27.2506 99.0498 27.4778 98.7199 27.6495C99.0094 27.7673 99.2265 27.9221 99.3713 28.114C99.5194 28.3059 99.6019 28.6173 99.6187 29.0482L99.6541 30.0429C99.6642 30.3257 99.6877 30.5361 99.7248 30.6741C99.7853 30.9097 99.8931 31.0612 100.048 31.1285V31.2952H98.8159C98.7822 31.2312 98.7553 31.1487 98.7351 31.0477C98.7149 30.9468 98.698 30.7515 98.6846 30.462L98.624 29.2249C98.6004 28.7402 98.4203 28.4153 98.0837 28.2504C97.8918 28.1595 97.5905 28.114 97.1798 28.114H94.8924V31.2952H93.8876V23.8775ZM102.034 26.0337C102.219 26.0034 102.359 25.899 102.453 25.7206C102.551 25.5422 102.6 25.3368 102.6 25.1046C102.6 25.081 102.598 25.0608 102.595 25.044C102.595 25.0238 102.591 25.0019 102.585 24.9783H102.034V23.8775H103.115V24.8925C103.115 25.3234 103.026 25.6903 102.847 25.9933C102.669 26.2929 102.398 26.4645 102.034 26.5083V26.0337ZM108.797 28.2554L107.671 24.9783L106.474 28.2554H108.797ZM107.146 23.8775H108.282L110.973 31.2952H109.873L109.12 29.0734H106.187L105.384 31.2952H104.354L107.146 23.8775ZM112.611 23.8775H113.798L117.545 29.8864V23.8775H118.499V31.2952H117.373L113.571 25.2914V31.2952H112.611V23.8775ZM127.652 28.2554L126.526 24.9783L125.329 28.2554H127.652ZM126.001 23.8775H127.137L129.828 31.2952H128.728L127.975 29.0734H125.042L124.239 31.2952H123.209L126.001 23.8775ZM131.572 23.8775L132.971 29.9116L134.647 23.8775H135.738L137.415 29.9116L138.813 23.8775H139.914L137.965 31.2952H136.91L135.198 25.145L133.476 31.2952H132.421L130.482 23.8775H131.572ZM144.996 28.2554L143.87 24.9783L142.673 28.2554H144.996ZM143.344 23.8775H144.481L147.172 31.2952H146.071L145.319 29.0734H142.385L141.582 31.2952H140.552L143.344 23.8775ZM152.258 27.2758C152.73 27.2758 153.102 27.1816 153.374 26.993C153.65 26.8045 153.788 26.4645 153.788 25.9731C153.788 25.4446 153.597 25.0844 153.213 24.8925C153.007 24.7915 152.733 24.741 152.39 24.741H149.936V27.2758H152.258ZM148.931 23.8775H152.365C152.93 23.8775 153.396 23.96 153.763 24.125C154.46 24.4414 154.808 25.0254 154.808 25.8771C154.808 26.3215 154.716 26.685 154.531 26.9678C154.349 27.2506 154.093 27.4778 153.763 27.6495C154.053 27.7673 154.27 27.9221 154.415 28.114C154.563 28.3059 154.645 28.6173 154.662 29.0482L154.697 30.0429C154.707 30.3257 154.731 30.5361 154.768 30.6741C154.829 30.9097 154.936 31.0612 155.091 31.1285V31.2952H153.859C153.825 31.2312 153.799 31.1487 153.778 31.0477C153.758 30.9468 153.741 30.7515 153.728 30.462L153.667 29.2249C153.644 28.7402 153.464 28.4153 153.127 28.2504C152.935 28.1595 152.634 28.114 152.223 28.114H149.936V31.2952H148.931V23.8775ZM159.855 30.4368C160.195 30.4368 160.474 30.4014 160.693 30.3307C161.083 30.1994 161.403 29.947 161.652 29.5733C161.851 29.2737 161.994 28.89 162.081 28.422C162.132 28.1426 162.157 27.8834 162.157 27.6444C162.157 26.7254 161.974 26.0118 161.607 25.5035C161.243 24.9952 160.656 24.741 159.845 24.741H158.062V30.4368H159.855ZM157.052 23.8775H160.057C161.077 23.8775 161.868 24.2394 162.43 24.9632C162.931 25.6162 163.182 26.4528 163.182 27.4727C163.182 28.2605 163.034 28.9724 162.738 29.6087C162.216 30.733 161.319 31.2952 160.047 31.2952H157.052V23.8775Z" fill="black"/>
</svg>
