<svg width="164" height="29" viewBox="0 0 164 29" fill="none" xmlns="http://www.w3.org/2000/svg">
<g clip-path="url(#clip0_258_59)">
<path d="M163.416 26.2845C163.271 26.2845 163.161 26.2845 163.051 26.2845C160.528 26.2845 158.006 26.2816 155.483 26.2893C154.772 26.2912 154.098 26.1611 153.483 25.8023C153.179 25.6244 152.897 25.4053 152.622 25.1815C152.395 24.9959 152.195 24.7768 151.946 24.5376C151.857 24.64 151.765 24.7548 151.664 24.861C151.235 25.3087 150.751 25.6789 150.183 25.9382C149.72 26.1487 149.24 26.2816 148.732 26.2826C146.028 26.2855 143.325 26.2845 140.622 26.2845C140.596 26.2845 140.569 26.2816 140.522 26.2788V26.0759C140.522 22.5688 140.522 19.0617 140.522 15.5536C140.522 15.1183 140.499 14.6821 140.512 14.2468C140.528 13.7197 140.567 13.1935 140.604 12.6674C140.627 12.3392 140.654 12.0101 140.703 11.6858C140.757 11.3386 140.838 10.9951 140.909 10.6507C141.055 9.93514 141.284 9.24443 141.57 8.57572C141.918 7.7616 142.35 6.99053 142.868 6.26825C143.371 5.56893 143.922 4.90788 144.563 4.33484C145.159 3.80293 145.783 3.29877 146.426 2.82331C147.232 2.22827 148.106 1.74037 149 1.28787C149.94 0.811449 150.903 0.390518 151.886 0.0116793C151.934 -0.00649727 152.002 -0.00649727 152.05 0.0116793C153.183 0.445047 154.293 0.930075 155.365 1.49738C156.466 2.07998 157.517 2.74391 158.495 3.51689C159.211 4.08228 159.876 4.70602 160.473 5.39769C161.558 6.65379 162.37 8.06486 162.857 9.65771C163.045 10.2748 163.195 10.9004 163.267 11.5423C163.311 11.9327 163.37 12.323 163.39 12.7142C163.424 13.4011 163.453 14.089 163.452 14.7759C163.448 17.488 163.431 20.1992 163.421 22.9113C163.417 24.0268 163.421 25.1422 163.421 26.2816L163.416 26.2845ZM161.883 24.7558C161.883 24.5003 161.883 24.2621 161.883 24.0239C161.895 20.887 161.91 17.7511 161.92 14.6142C161.921 14.2765 161.909 13.9378 161.891 13.6001C161.865 13.1065 161.844 12.6128 161.792 12.1221C161.746 11.6935 161.691 11.262 161.584 10.8459C161.452 10.3322 161.272 9.82991 161.097 9.32861C160.783 8.43414 160.286 7.63915 159.71 6.89678C159.373 6.46245 158.992 6.05874 158.602 5.66938C158.255 5.32116 157.883 4.99493 157.498 4.68976C157.083 4.36354 156.65 4.05741 156.206 3.77232C155.714 3.45662 155.215 3.14953 154.695 2.88645C153.907 2.48848 153.101 2.12782 152.298 1.76142C152.16 1.69828 152.018 1.594 151.846 1.66958C151.347 1.88865 150.843 2.09338 150.351 2.3268C149.25 2.84818 148.18 3.42792 147.203 4.15881C146.624 4.59122 146.052 5.04085 145.532 5.54023C145.055 5.99656 144.63 6.51316 144.22 7.03358C143.675 7.72621 143.261 8.5011 142.929 9.31714C142.634 10.0404 142.401 10.7818 142.29 11.5576C142.209 12.1316 142.132 12.7066 142.074 13.2825C142.044 13.5896 142.059 13.9015 142.057 14.2114C142.055 14.7902 142.055 15.369 142.055 15.9487C142.055 18.813 142.055 21.6772 142.055 24.5415V24.7538C142.137 24.7538 142.201 24.7538 142.264 24.7538C144.404 24.7538 146.545 24.7529 148.685 24.7538C149.274 24.7538 149.756 24.4936 150.191 24.1339C150.432 23.934 150.63 23.6824 150.863 23.4719C150.998 23.3504 151.001 23.2576 150.899 23.117C150.653 22.7726 150.423 22.4177 150.066 22.1661C149.594 21.8322 149.069 21.6925 148.5 21.6925C147.178 21.6916 145.855 21.6925 144.533 21.6925C144.477 21.6925 144.422 21.6925 144.37 21.6925V20.1619H144.486C145.883 20.1619 147.279 20.1571 148.676 20.1666C148.953 20.1686 149.234 20.2011 149.504 20.2633C150.382 20.4651 151.119 20.909 151.693 21.6112C151.787 21.727 151.882 21.8418 151.98 21.9604C152.251 21.5806 152.545 21.2544 152.903 20.9789C153.608 20.4364 154.403 20.1686 155.285 20.1638C156.682 20.1571 158.078 20.1619 159.475 20.1619C159.526 20.1619 159.576 20.1619 159.624 20.1619V21.6925C159.512 21.6925 159.407 21.6925 159.302 21.6925C157.865 21.703 156.427 21.6983 154.99 21.7317C154.386 21.7461 153.892 22.0628 153.495 22.5019C153.28 22.7401 153.114 23.0232 152.929 23.2825C153.243 23.7159 153.613 24.0689 154.035 24.3607C154.361 24.5855 154.728 24.7462 155.126 24.7491C157.32 24.7605 159.512 24.7558 161.706 24.7567C161.758 24.7567 161.809 24.7567 161.883 24.7567V24.7558Z" fill="#858585"/>
<path d="M159.595 18.6252H158.095C158.095 18.5602 158.095 18.4989 158.095 18.4367C158.095 16.9118 158.102 15.3859 158.092 13.861C158.087 13.1387 158.01 12.4203 157.803 11.7248C157.578 10.9662 157.226 10.2688 156.766 9.6211C156.388 9.08919 155.946 8.6166 155.474 8.17654C154.851 7.59393 154.166 7.08403 153.435 6.64109C153.004 6.37993 152.565 6.13119 152.125 5.88724C152.065 5.85376 151.958 5.85376 151.896 5.88533C150.896 6.39619 149.929 6.95966 149.071 7.6896C148.644 8.05217 148.22 8.42431 147.838 8.83376C147.096 9.62875 146.537 10.5443 146.194 11.5832C145.908 12.4461 145.87 13.3358 145.881 14.237C145.898 15.693 145.886 17.1491 145.886 18.6176H144.358C144.358 18.5602 144.358 18.4989 144.358 18.4377C144.357 17.0295 144.357 15.6213 144.353 14.2131C144.353 13.8964 144.32 13.5788 144.337 13.2631C144.356 12.9158 144.397 12.5667 144.464 12.2251C144.543 11.8186 144.625 11.4081 144.766 11.0207C144.943 10.5385 145.162 10.0698 145.396 9.61249C145.724 8.97439 146.156 8.40135 146.634 7.86945C146.919 7.55279 147.217 7.24284 147.539 6.9654C147.959 6.60378 148.402 6.268 148.846 5.93603C149.77 5.24341 150.788 4.71055 151.82 4.20161C151.953 4.13655 152.068 4.11264 152.214 4.19013C153.089 4.65411 153.968 5.1133 154.775 5.69113C155.307 6.07188 155.825 6.47559 156.324 6.89748C157.064 7.52314 157.705 8.24159 158.235 9.05667C158.829 9.97124 159.259 10.9537 159.435 12.0338C159.511 12.4987 159.582 12.9694 159.59 13.4391C159.616 15.1592 159.614 16.8793 159.622 18.6003C159.613 18.6089 159.604 18.6185 159.597 18.6271L159.595 18.6252Z" fill="#858585"/>
<path d="M151.939 8.32808C152.802 8.88869 153.629 9.48182 154.336 10.228C154.986 10.9149 155.498 11.686 155.689 12.6235C155.78 13.0683 155.81 13.5314 155.819 13.9867C155.834 14.7195 155.807 15.4524 155.803 16.1852C155.799 16.9926 155.803 17.8 155.803 18.6179H154.273C154.273 18.5644 154.273 18.5079 154.273 18.4515C154.278 16.8835 154.281 15.3165 154.288 13.7485C154.29 12.9765 154.045 12.2944 153.57 11.6879C153.141 11.1416 152.632 10.6863 152.068 10.2883C152.033 10.2634 151.948 10.2653 151.914 10.2912C151.749 10.4127 151.586 10.5389 151.436 10.6776C150.994 11.0861 150.557 11.5023 150.227 12.0131C149.937 12.4628 149.729 12.9497 149.72 13.4921C149.7 14.7549 149.695 16.0187 149.686 17.2824C149.683 17.7235 149.686 18.1645 149.686 18.617H148.156C148.156 18.5653 148.156 18.5089 148.156 18.4534C148.158 16.918 148.163 15.3816 148.159 13.8461C148.158 13.3094 148.24 12.7861 148.405 12.2791C148.596 11.6888 148.907 11.1569 149.302 10.6776C149.479 10.4624 149.661 10.2491 149.861 10.0558C150.414 9.52104 150.997 9.02071 151.624 8.57395C151.733 8.49646 151.836 8.4094 151.942 8.32617L151.939 8.32808Z" fill="#858585"/>
<path d="M151.948 18.5907C151.609 18.2521 151.256 17.8991 150.891 17.5336C151.158 17.2667 151.431 16.9941 151.704 16.7214C151.877 16.5486 152.049 16.5486 152.222 16.7214C152.493 16.9912 152.765 17.26 153.023 17.5155C152.657 17.8819 152.298 18.2416 151.948 18.5907Z" fill="#858585"/>
<path d="M159.594 18.6262C159.602 18.6177 159.611 18.6082 159.618 18.5996C159.61 18.6082 159.601 18.6177 159.594 18.6262Z" fill="#858585"/>
</g>
<path d="M2.54423 8.69329C2.54423 8.47535 2.57976 8.25267 2.65083 8.02525C2.7219 7.79784 2.81902 7.5799 2.94221 7.37143C3.06539 7.16297 3.21226 6.96634 3.38283 6.78157C3.55813 6.59679 3.75001 6.43807 3.95848 6.30541C4.16694 6.16802 4.39199 6.06141 4.63362 5.98561C4.86104 5.91928 5.09556 5.88611 5.33719 5.88611H5.38694L7.54029 5.91454C7.64453 5.91454 7.74165 5.93586 7.83167 5.9785C7.92643 6.0164 8.00697 6.07089 8.0733 6.14196C8.14437 6.20829 8.19885 6.28646 8.23676 6.37648C8.2794 6.4665 8.30072 6.56363 8.30072 6.66786V10.4273H9.37384V11.9553H3.23358C3.03933 11.9553 2.86166 11.9671 2.70058 11.9908C2.54423 12.0098 2.4092 12.0548 2.29549 12.1259C2.18652 12.1969 2.10124 12.3012 2.03965 12.4386C1.97805 12.5712 1.94726 12.7513 1.94726 12.9787V15.4234H0.4193V12.9787C0.4193 12.5902 0.471416 12.2514 0.575649 11.9624C0.68462 11.6687 0.833862 11.4199 1.02338 11.2162C1.21289 11.0125 1.43794 10.8514 1.69852 10.7329C1.9591 10.6098 2.241 10.5245 2.54423 10.4771V8.69329ZM4.07218 10.4345L6.77276 10.4273V7.42828C6.42216 7.42355 6.1521 7.42118 5.96259 7.42118C5.77781 7.41644 5.64041 7.41407 5.55039 7.41407C5.46038 7.40933 5.40589 7.40696 5.38694 7.40696H5.36562C5.19979 7.40696 5.03871 7.4425 4.88236 7.51357C4.73075 7.58463 4.59335 7.68176 4.47016 7.80494C4.35172 7.92339 4.25459 8.06316 4.17879 8.22424C4.10772 8.38059 4.07218 8.54879 4.07218 8.72883V10.4345ZM9.23881 10.4273H11.7973V6.12064H13.3181V11.1238C13.3228 11.1428 13.3252 11.1665 13.3252 11.1949C13.3252 11.2991 13.3039 11.3986 13.2613 11.4934C13.2233 11.5834 13.1689 11.6639 13.0978 11.735C13.0315 11.8013 12.9509 11.8558 12.8562 11.8984C12.7614 11.9364 12.6619 11.9553 12.5577 11.9553H9.23881V10.4273ZM11.2856 13.8955C11.2856 13.7817 11.3069 13.6728 11.3495 13.5685C11.3922 13.469 11.449 13.3814 11.5201 13.3056C11.5959 13.2345 11.6835 13.1777 11.783 13.135C11.8825 13.0924 11.9891 13.0711 12.1028 13.0711C12.2166 13.0711 12.3232 13.0924 12.4227 13.135C12.5269 13.1777 12.6145 13.2345 12.6856 13.3056C12.7614 13.3814 12.8206 13.469 12.8633 13.5685C12.9059 13.6728 12.9272 13.7817 12.9272 13.8955C12.9272 14.0092 12.9059 14.1158 12.8633 14.2153C12.8206 14.3148 12.7614 14.4 12.6856 14.4711C12.6145 14.5469 12.5269 14.6061 12.4227 14.6488C12.3232 14.6914 12.2166 14.7127 12.1028 14.7127C11.9891 14.7127 11.8825 14.6914 11.783 14.6488C11.6835 14.6061 11.5959 14.5469 11.5201 14.4711C11.449 14.4 11.3922 14.3148 11.3495 14.2153C11.3069 14.1158 11.2856 14.0092 11.2856 13.8955ZM9.38095 13.8955C9.38095 13.7817 9.40227 13.6728 9.44491 13.5685C9.48755 13.469 9.5444 13.3814 9.61547 13.3056C9.69128 13.2345 9.77893 13.1777 9.87842 13.135C9.97792 13.0924 10.0845 13.0711 10.1982 13.0711C10.3119 13.0711 10.4185 13.0924 10.518 13.135C10.6223 13.1777 10.7099 13.2345 10.781 13.3056C10.8568 13.3814 10.916 13.469 10.9587 13.5685C11.0013 13.6728 11.0226 13.7817 11.0226 13.8955C11.0226 14.0092 11.0013 14.1158 10.9587 14.2153C10.916 14.3148 10.8568 14.4 10.781 14.4711C10.7099 14.5469 10.6223 14.6061 10.518 14.6488C10.4185 14.6914 10.3119 14.7127 10.1982 14.7127C10.0845 14.7127 9.97792 14.6914 9.87842 14.6488C9.77893 14.6061 9.69128 14.5469 9.61547 14.4711C9.5444 14.4 9.48755 14.3148 9.44491 14.2153C9.40227 14.1158 9.38095 14.0092 9.38095 13.8955ZM18.0086 6.85974C18.0086 7.23877 18.0204 7.6557 18.0441 8.11054C18.0678 8.56063 18.0796 9.03442 18.0796 9.53189C18.0796 9.83038 18.0725 10.1289 18.0583 10.4273H19.1101V11.9553H17.8664C17.7622 12.4433 17.613 12.9005 17.4187 13.3269C17.2292 13.7533 16.9757 14.1229 16.6583 14.4356C16.3456 14.753 15.9618 15.0017 15.507 15.1818C15.0522 15.3618 14.5097 15.4518 13.8795 15.4518V13.9239C14.287 13.9239 14.6352 13.8623 14.9242 13.7391C15.218 13.6207 15.462 13.4548 15.6562 13.2416C15.8552 13.0284 16.0139 12.7797 16.1324 12.4954C16.2508 12.2064 16.3385 11.8984 16.3953 11.5715C16.4569 11.2399 16.4972 10.8964 16.5162 10.5411C16.5351 10.181 16.5446 9.82564 16.5446 9.47504C16.5446 9.00125 16.5351 8.53931 16.5162 8.08922C16.4972 7.63438 16.4877 7.22456 16.4877 6.85974H18.0086ZM18.8472 10.4273H25.7479V9.68824C25.7479 9.42766 25.7384 9.2263 25.7194 9.08416C25.7052 8.94203 25.6673 8.8378 25.6057 8.77147C25.5489 8.7004 25.4589 8.65776 25.3357 8.64354C25.2172 8.62459 25.0538 8.61512 24.8453 8.61512L21.1569 8.6009C20.8631 8.6009 20.6262 8.53931 20.4462 8.41613C20.2709 8.29294 20.1477 8.13186 20.0767 7.93287C20.0198 7.79073 19.9914 7.63438 19.9914 7.46382C19.9914 7.40223 19.9961 7.34063 20.0056 7.27904C20.0293 7.03741 20.1003 6.79578 20.2188 6.55415C20.4746 6.03772 20.8134 5.58526 21.2351 5.19676C21.6615 4.80351 22.1329 4.47897 22.6493 4.22313C23.1657 3.96255 23.7106 3.77303 24.2839 3.65458C24.7719 3.55035 25.2528 3.49824 25.7265 3.49824C25.8023 3.49824 25.8782 3.5006 25.954 3.50534L25.9042 5.02619H25.7265C25.3902 5.02619 25.0443 5.05936 24.689 5.12569C24.2673 5.20623 23.8646 5.33415 23.4808 5.50945C23.097 5.68002 22.7464 5.89796 22.429 6.16328C22.1116 6.42386 21.8581 6.73182 21.6686 7.08716H24.362C24.7411 7.08716 25.0751 7.09427 25.3641 7.10848C25.6578 7.11796 25.9113 7.14638 26.1245 7.19376C26.3425 7.24114 26.5249 7.31458 26.6717 7.41407C26.8186 7.51357 26.9371 7.65096 27.0271 7.82626C27.1171 7.99683 27.1811 8.21477 27.219 8.48009C27.2616 8.74067 27.2829 9.06048 27.2829 9.4395V10.4273H28.4555V11.9553H18.8472V10.4273ZM28.2779 10.4273H29.6424V3.37031H31.1632V11.1238C31.168 11.1428 31.1703 11.1665 31.1703 11.1949C31.1703 11.2991 31.149 11.3986 31.1064 11.4934C31.0685 11.5834 31.014 11.6639 30.9429 11.735C30.8719 11.8013 30.7889 11.8558 30.6942 11.8984C30.6042 11.9364 30.507 11.9553 30.4028 11.9553H28.2779V10.4273ZM34.3329 11.9411H32.812V3.37031H34.3329V11.9411ZM40.9919 8.87096V11.4934C40.9919 11.7208 41.0345 11.9174 41.1198 12.0832C41.2051 12.2491 41.3164 12.3888 41.4538 12.5025C41.5912 12.6115 41.75 12.692 41.93 12.7442C42.11 12.7963 42.2972 12.8223 42.4914 12.8223C42.6809 12.8223 42.8657 12.7963 43.0458 12.7442C43.2305 12.692 43.3916 12.6115 43.529 12.5025C43.6664 12.3888 43.7778 12.2491 43.863 12.0832C43.9483 11.9174 43.991 11.7208 43.991 11.4934V6.21303H45.526V11.4934C45.526 11.9577 45.4384 12.3675 45.2631 12.7228C45.0878 13.0782 44.858 13.3767 44.5737 13.6183C44.2895 13.8599 43.9649 14.0423 43.6001 14.1655C43.24 14.2887 42.8705 14.3503 42.4914 14.3503C42.1077 14.3503 41.7334 14.2887 41.3686 14.1655C41.0085 14.0423 40.6863 13.8599 40.402 13.6183C40.1225 13.3767 39.8951 13.0782 39.7198 12.7228C39.5492 12.3675 39.4639 11.9577 39.4639 11.4934V8.87096H40.9919ZM41.4965 4.79878C41.4965 4.68507 41.5178 4.57847 41.5604 4.47897C41.6031 4.37474 41.6599 4.28709 41.731 4.21602C41.8068 4.14021 41.8945 4.08099 41.994 4.03835C42.0935 3.99571 42.2001 3.97439 42.3138 3.97439C42.4275 3.97439 42.5341 3.99571 42.6336 4.03835C42.7378 4.08099 42.8255 4.14021 42.8965 4.21602C42.9723 4.28709 43.0316 4.37474 43.0742 4.47897C43.1168 4.57847 43.1382 4.68507 43.1382 4.79878C43.1382 4.91248 43.1168 5.01909 43.0742 5.11858C43.0316 5.21808 42.9723 5.30573 42.8965 5.38153C42.8255 5.4526 42.7378 5.50945 42.6336 5.55209C42.5341 5.59474 42.4275 5.61606 42.3138 5.61606C42.2001 5.61606 42.0935 5.59474 41.994 5.55209C41.8945 5.50945 41.8068 5.4526 41.731 5.38153C41.6599 5.30573 41.6031 5.21808 41.5604 5.11858C41.5178 5.01909 41.4965 4.91248 41.4965 4.79878ZM48.518 11.9411H46.9971V3.37031H48.518V11.9411ZM53.5851 6.85974C53.5851 7.23877 53.597 7.6557 53.6207 8.11054C53.6443 8.56063 53.6562 9.03442 53.6562 9.53189C53.6562 9.83038 53.6491 10.1289 53.6349 10.4273H54.6867V11.9553H53.443C53.3387 12.4433 53.1895 12.9005 52.9953 13.3269C52.8057 13.7533 52.5523 14.1229 52.2348 14.4356C51.9221 14.753 51.5384 15.0017 51.0835 15.1818C50.6287 15.3618 50.0862 15.4518 49.4561 15.4518V13.9239C49.8635 13.9239 50.2118 13.8623 50.5008 13.7391C50.7945 13.6207 51.0385 13.4548 51.2328 13.2416C51.4318 13.0284 51.5905 12.7797 51.7089 12.4954C51.8274 12.2064 51.915 11.8984 51.9719 11.5715C52.0335 11.2399 52.0737 10.8964 52.0927 10.5411C52.1116 10.181 52.1211 9.82564 52.1211 9.47504C52.1211 9.00125 52.1116 8.53931 52.0927 8.08922C52.0737 7.63438 52.0643 7.22456 52.0643 6.85974H53.5851ZM54.5445 11.9553V10.4273H55.909C55.7953 10.1999 55.71 9.96067 55.6532 9.70956C55.6011 9.45372 55.575 9.19314 55.575 8.92782C55.575 8.54405 55.6342 8.16976 55.7527 7.80494C55.8759 7.44013 56.0559 7.11559 56.2928 6.83132C56.5297 6.54704 56.8234 6.31963 57.174 6.14906C57.5246 5.97376 57.9297 5.88611 58.3893 5.88611H60.2584C60.391 5.88611 60.5166 5.91217 60.635 5.96429C60.7535 6.0164 60.8554 6.08747 60.9406 6.17749C61.0307 6.26751 61.0994 6.37411 61.1467 6.4973C61.1988 6.61574 61.2249 6.7413 61.2249 6.87396V10.4273H62.298V11.9553H54.5445ZM57.2167 9.59585C57.302 9.83275 57.4417 10.0317 57.636 10.1928C57.8302 10.3492 58.0813 10.4273 58.3893 10.4273H59.7041V7.41407H58.3893C58.1666 7.41407 57.9747 7.45908 57.8137 7.5491C57.6526 7.63438 57.5175 7.75046 57.4086 7.89733C57.3043 8.03947 57.2262 8.20055 57.174 8.38059C57.1219 8.56063 57.0959 8.74304 57.0959 8.92782C57.0959 9.04152 57.1053 9.15523 57.1243 9.26894C57.1432 9.37791 57.174 9.48688 57.2167 9.59585ZM56.8613 4.25866C56.8613 4.14495 56.8827 4.03835 56.9253 3.93886C56.9679 3.83462 57.0248 3.74697 57.0959 3.67591C57.1717 3.6001 57.2593 3.54088 57.3588 3.49824C57.4583 3.45559 57.5649 3.43427 57.6786 3.43427C57.7923 3.43427 57.8989 3.45559 57.9984 3.49824C58.1027 3.54088 58.1903 3.6001 58.2614 3.67591C58.3372 3.74697 58.3964 3.83462 58.439 3.93886C58.4817 4.03835 58.503 4.14495 58.503 4.25866C58.503 4.37237 58.4817 4.47897 58.439 4.57847C58.3964 4.67796 58.3372 4.76561 58.2614 4.84142C58.1903 4.91248 58.1027 4.96934 57.9984 5.01198C57.8989 5.05462 57.7923 5.07594 57.6786 5.07594C57.5649 5.07594 57.4583 5.05462 57.3588 5.01198C57.2593 4.96934 57.1717 4.91248 57.0959 4.84142C57.0248 4.76561 56.9679 4.67796 56.9253 4.57847C56.8827 4.47897 56.8613 4.37237 56.8613 4.25866ZM58.766 4.25866C58.766 4.14495 58.7873 4.03835 58.8299 3.93886C58.8726 3.83462 58.9294 3.74697 59.0005 3.67591C59.0763 3.6001 59.1639 3.54088 59.2634 3.49824C59.3629 3.45559 59.4695 3.43427 59.5832 3.43427C59.6969 3.43427 59.8035 3.45559 59.903 3.49824C60.0073 3.54088 60.0949 3.6001 60.166 3.67591C60.2418 3.74697 60.301 3.83462 60.3437 3.93886C60.3863 4.03835 60.4076 4.14495 60.4076 4.25866C60.4076 4.37237 60.3863 4.47897 60.3437 4.57847C60.301 4.67796 60.2418 4.76561 60.166 4.84142C60.0949 4.91248 60.0073 4.96934 59.903 5.01198C59.8035 5.05462 59.6969 5.07594 59.5832 5.07594C59.4695 5.07594 59.3629 5.05462 59.2634 5.01198C59.1639 4.96934 59.0763 4.91248 59.0005 4.84142C58.9294 4.76561 58.8726 4.67796 58.8299 4.57847C58.7873 4.47897 58.766 4.37237 58.766 4.25866ZM62.1559 11.9553V10.4273H63.563V3.37031H65.0839V10.4273H66.3844V11.9553H62.1559ZM66.2565 10.4273H67.621V3.37031H69.1419V11.1238C69.1466 11.1428 69.149 11.1665 69.149 11.1949C69.149 11.2991 69.1276 11.3986 69.085 11.4934C69.0471 11.5834 68.9926 11.6639 68.9215 11.735C68.8505 11.8013 68.7676 11.8558 68.6728 11.8984C68.5828 11.9364 68.4857 11.9553 68.3814 11.9553H66.2565V10.4273ZM75.9288 8.69329C75.9288 8.47535 75.9644 8.25267 76.0354 8.02525C76.1065 7.79784 76.2036 7.5799 76.3268 7.37143C76.45 7.16297 76.5969 6.96634 76.7674 6.78157C76.9427 6.59679 77.1346 6.43807 77.3431 6.30541C77.5515 6.16802 77.7766 6.06141 78.0182 5.98561C78.2456 5.91928 78.4802 5.88611 78.7218 5.88611H78.7715L80.9249 5.91454C81.0291 5.91454 81.1263 5.93586 81.2163 5.9785C81.311 6.0164 81.3916 6.07089 81.4579 6.14196C81.529 6.20829 81.5835 6.28646 81.6214 6.37648C81.664 6.4665 81.6853 6.56363 81.6853 6.66786V10.4273H82.7584V11.9553H76.6182C76.4239 11.9553 76.2463 11.9671 76.0852 11.9908C75.9288 12.0098 75.7938 12.0548 75.6801 12.1259C75.5711 12.1969 75.4858 12.3012 75.4243 12.4386C75.3627 12.5712 75.3319 12.7513 75.3319 12.9787V15.4234H73.8039V12.9787C73.8039 12.5902 73.856 12.2514 73.9603 11.9624C74.0692 11.6687 74.2185 11.4199 74.408 11.2162C74.5975 11.0125 74.8225 10.8514 75.0831 10.7329C75.3437 10.6098 75.6256 10.5245 75.9288 10.4771V8.69329ZM77.4568 10.4345L80.1574 10.4273V7.42828C79.8068 7.42355 79.5367 7.42118 79.3472 7.42118C79.1624 7.41644 79.025 7.41407 78.935 7.41407C78.845 7.40933 78.7905 7.40696 78.7715 7.40696H78.7502C78.5844 7.40696 78.4233 7.4425 78.267 7.51357C78.1154 7.58463 77.978 7.68176 77.8548 7.80494C77.7363 7.92339 77.6392 8.06316 77.5634 8.22424C77.4923 8.38059 77.4568 8.54879 77.4568 8.72883V10.4345ZM82.6234 11.9553V10.4273H84.0306V3.37031H85.5514V10.4273H86.852V11.9553H82.6234ZM86.7169 10.4273H88.2236V6.12064H89.7515V10.4273H91.3434V6.12064H92.8643V10.4273H94.4633V6.12064H95.9842V11.1949C95.9842 11.2991 95.9628 11.3986 95.9202 11.4934C95.8823 11.5834 95.8278 11.6639 95.7568 11.735C95.6904 11.8013 95.6099 11.8558 95.5151 11.8984C95.4251 11.9364 95.328 11.9553 95.2237 11.9553H92.8288V11.4365C92.7766 11.5881 92.6843 11.7137 92.5516 11.8132C92.4237 11.9079 92.2744 11.9553 92.1039 11.9553H89.716V11.4365C89.6639 11.5881 89.5715 11.7137 89.4388 11.8132C89.3062 11.9079 89.1569 11.9553 88.9911 11.9553H86.7169V10.4273ZM99.0188 11.9411H97.4979V3.37031H99.0188V11.9411ZM97.5192 2.03424C97.4955 1.98212 97.479 1.92764 97.4695 1.87078C97.4647 1.81393 97.4624 1.75707 97.4624 1.70022C97.4624 1.58177 97.4813 1.46807 97.5192 1.3591C97.5571 1.24539 97.6116 1.14589 97.6827 1.06061C97.7585 0.970591 97.8509 0.899523 97.9598 0.847407C98.0736 0.79529 98.2015 0.769232 98.3436 0.769232H99.1325V1.3591L98.3436 1.35199C98.2157 1.35199 98.1233 1.38989 98.0664 1.4657C98.0096 1.53676 97.9812 1.61494 97.9812 1.70022C97.9812 1.78076 98.0072 1.8542 98.0593 1.92053C98.1115 1.98686 98.1944 2.02476 98.3081 2.03424H99.1964V2.6241H97.2492V2.03424H97.5192ZM109.324 11.7492C108.968 11.844 108.599 11.9174 108.215 11.9695C107.836 12.0169 107.455 12.0406 107.071 12.0406C106.867 12.0406 106.668 12.0335 106.474 12.0193C106.28 12.0051 106.085 11.9861 105.891 11.9624C105.711 11.934 105.521 11.9056 105.322 11.8771C105.128 11.844 104.948 11.7966 104.782 11.735C104.617 11.6734 104.479 11.5858 104.37 11.472C104.266 11.3583 104.214 11.202 104.214 11.003V8.75015C104.214 8.3569 104.287 7.98735 104.434 7.64149C104.586 7.29089 104.789 6.98766 105.045 6.73182C105.306 6.47124 105.609 6.26514 105.955 6.11353C106.301 5.96192 106.673 5.88611 107.071 5.88611H108.961C109.094 5.88611 109.217 5.91217 109.331 5.96429C109.449 6.01167 109.551 6.08037 109.636 6.17038C109.726 6.25567 109.797 6.35753 109.849 6.47598C109.902 6.59442 109.928 6.72234 109.928 6.85974L109.935 11.003C109.935 11.1878 109.876 11.3489 109.757 11.4863C109.643 11.6237 109.499 11.7113 109.324 11.7492ZM107.071 10.5126C107.308 10.5126 107.535 10.5032 107.753 10.4842C107.976 10.4605 108.194 10.4297 108.407 10.3918V7.41407L107.071 7.40696C106.891 7.40696 106.718 7.4425 106.552 7.51357C106.391 7.58463 106.249 7.68176 106.126 7.80494C106.007 7.92813 105.912 8.07263 105.841 8.23846C105.77 8.39954 105.735 8.57011 105.735 8.75015L105.742 10.3918C105.884 10.425 106.009 10.451 106.118 10.47C106.232 10.4842 106.339 10.496 106.438 10.5055C106.538 10.5103 106.637 10.5126 106.737 10.5126H107.071ZM105.593 4.25866C105.593 4.14495 105.614 4.03835 105.656 3.93886C105.699 3.83462 105.756 3.74697 105.827 3.67591C105.903 3.6001 105.991 3.54088 106.09 3.49824C106.189 3.45559 106.296 3.43427 106.41 3.43427C106.524 3.43427 106.63 3.45559 106.73 3.49824C106.834 3.54088 106.921 3.6001 106.993 3.67591C107.068 3.74697 107.128 3.83462 107.17 3.93886C107.213 4.03835 107.234 4.14495 107.234 4.25866C107.234 4.37237 107.213 4.47897 107.17 4.57847C107.128 4.67796 107.068 4.76561 106.993 4.84142C106.921 4.91248 106.834 4.96934 106.73 5.01198C106.63 5.05462 106.524 5.07594 106.41 5.07594C106.296 5.07594 106.189 5.05462 106.09 5.01198C105.991 4.96934 105.903 4.91248 105.827 4.84142C105.756 4.76561 105.699 4.67796 105.656 4.57847C105.614 4.47897 105.593 4.37237 105.593 4.25866ZM107.497 4.25866C107.497 4.14495 107.518 4.03835 107.561 3.93886C107.604 3.83462 107.661 3.74697 107.732 3.67591C107.807 3.6001 107.895 3.54088 107.995 3.49824C108.094 3.45559 108.201 3.43427 108.314 3.43427C108.428 3.43427 108.535 3.45559 108.634 3.49824C108.738 3.54088 108.826 3.6001 108.897 3.67591C108.973 3.74697 109.032 3.83462 109.075 3.93886C109.117 4.03835 109.139 4.14495 109.139 4.25866C109.139 4.37237 109.117 4.47897 109.075 4.57847C109.032 4.67796 108.973 4.76561 108.897 4.84142C108.826 4.91248 108.738 4.96934 108.634 5.01198C108.535 5.05462 108.428 5.07594 108.314 5.07594C108.201 5.07594 108.094 5.05462 107.995 5.01198C107.895 4.96934 107.807 4.91248 107.732 4.84142C107.661 4.76561 107.604 4.67796 107.561 4.57847C107.518 4.47897 107.497 4.37237 107.497 4.25866ZM114.533 6.85974C114.533 7.23877 114.545 7.6557 114.568 8.11054C114.592 8.56063 114.604 9.03442 114.604 9.53189C114.604 9.83038 114.597 10.1289 114.583 10.4273H115.634V11.9553H114.391C114.286 12.4433 114.137 12.9005 113.943 13.3269C113.753 13.7533 113.5 14.1229 113.183 14.4356C112.87 14.753 112.486 15.0017 112.031 15.1818C111.576 15.3618 111.034 15.4518 110.404 15.4518V13.9239C110.811 13.9239 111.16 13.8623 111.449 13.7391C111.742 13.6207 111.986 13.4548 112.181 13.2416C112.38 13.0284 112.538 12.7797 112.657 12.4954C112.775 12.2064 112.863 11.8984 112.92 11.5715C112.981 11.2399 113.021 10.8964 113.04 10.5411C113.059 10.181 113.069 9.82564 113.069 9.47504C113.069 9.00125 113.059 8.53931 113.04 8.08922C113.021 7.63438 113.012 7.22456 113.012 6.85974H114.533ZM112.877 4.69217C112.877 4.57847 112.898 4.47186 112.941 4.37237C112.984 4.26814 113.04 4.18049 113.112 4.10942C113.187 4.03361 113.275 3.97439 113.374 3.93175C113.474 3.88911 113.581 3.86779 113.694 3.86779C113.808 3.86779 113.915 3.88911 114.014 3.93175C114.118 3.97439 114.206 4.03361 114.277 4.10942C114.353 4.18049 114.412 4.26814 114.455 4.37237C114.497 4.47186 114.519 4.57847 114.519 4.69217C114.519 4.80588 114.497 4.91248 114.455 5.01198C114.412 5.11147 114.353 5.19912 114.277 5.27493C114.206 5.346 114.118 5.40285 114.014 5.44549C113.915 5.48813 113.808 5.50945 113.694 5.50945C113.581 5.50945 113.474 5.48813 113.374 5.44549C113.275 5.40285 113.187 5.346 113.112 5.27493C113.04 5.19912 112.984 5.11147 112.941 5.01198C112.898 4.91248 112.877 4.80588 112.877 4.69217ZM115.457 10.4273H117.454V7.42828H118.975V11.1238C118.979 11.1428 118.982 11.1665 118.982 11.1949C118.982 11.2991 118.96 11.3986 118.918 11.4934C118.88 11.5834 118.825 11.6639 118.754 11.735C118.688 11.8013 118.607 11.8558 118.513 11.8984C118.418 11.9364 118.318 11.9553 118.214 11.9553H115.457V10.4273ZM116.501 5.8719C116.473 5.80557 116.452 5.7345 116.437 5.6587C116.423 5.57815 116.416 5.49761 116.416 5.41707C116.416 5.26072 116.445 5.10674 116.501 4.95513C116.563 4.80351 116.651 4.66849 116.764 4.55004C116.878 4.43159 117.018 4.33684 117.184 4.26577C117.354 4.18996 117.551 4.15206 117.774 4.15206H118.982V4.95513L117.774 4.94802C117.575 4.94802 117.43 4.99777 117.34 5.09726C117.255 5.19676 117.212 5.30336 117.212 5.41707C117.212 5.53077 117.252 5.63264 117.333 5.72266C117.413 5.81268 117.541 5.86242 117.717 5.8719H119.088V6.67497H116.089V5.8719H116.501ZM123.281 11.9553H121.121C121.017 11.9553 120.917 11.9364 120.822 11.8984C120.732 11.8558 120.652 11.8013 120.581 11.735C120.51 11.6639 120.453 11.5834 120.41 11.4934C120.372 11.3986 120.353 11.2991 120.353 11.1949C120.353 11.1665 120.356 11.1428 120.36 11.1238V3.37031H121.881V10.4273H123.281V11.9553ZM123.949 5.91454C124.2 5.93823 124.473 5.95481 124.767 5.96429C125.06 5.96903 125.361 5.98324 125.669 6.00693C125.982 6.03062 126.295 6.07326 126.607 6.13485C126.92 6.19171 127.221 6.28172 127.51 6.40491C127.804 6.52809 128.078 6.69392 128.334 6.90238C128.59 7.10611 128.815 7.36906 129.009 7.69124C129.208 8.00867 129.367 8.39244 129.486 8.84253C129.609 9.28789 129.68 9.81616 129.699 10.4273H130.331V11.9553H123.118V10.4273H128.171C128.142 9.86354 128.045 9.4016 127.879 9.04152C127.714 8.67671 127.505 8.38533 127.254 8.16739C127.003 7.94945 126.723 7.7931 126.415 7.69834C126.107 7.59885 125.799 7.53252 125.492 7.49935C125.198 7.46619 124.916 7.44961 124.646 7.44961H124.589C124.546 7.45434 124.504 7.45671 124.461 7.45671C124.219 7.45671 124.006 7.44961 123.821 7.43539L123.949 5.91454ZM125.527 13.8955C125.527 13.7817 125.548 13.6728 125.591 13.5685C125.634 13.469 125.691 13.3814 125.762 13.3056C125.837 13.2345 125.925 13.1777 126.025 13.135C126.124 13.0924 126.231 13.0711 126.344 13.0711C126.458 13.0711 126.565 13.0924 126.664 13.135C126.768 13.1777 126.856 13.2345 126.927 13.3056C127.003 13.3814 127.062 13.469 127.105 13.5685C127.147 13.6728 127.169 13.7817 127.169 13.8955C127.169 14.0092 127.147 14.1158 127.105 14.2153C127.062 14.3148 127.003 14.4 126.927 14.4711C126.856 14.5469 126.768 14.6061 126.664 14.6488C126.565 14.6914 126.458 14.7127 126.344 14.7127C126.231 14.7127 126.124 14.6914 126.025 14.6488C125.925 14.6061 125.837 14.5469 125.762 14.4711C125.691 14.4 125.634 14.3148 125.591 14.2153C125.548 14.1158 125.527 14.0092 125.527 13.8955Z" fill="#858585"/>
<path d="M2.82522 20.3538H3.46064L5.8853 26.29H5.08265L4.38034 24.551H1.8888L1.19485 26.29H0.392203L2.82522 20.3538ZM4.21312 23.9657L3.14293 21.2233L2.0393 23.9657H4.21312ZM10.6677 21.5996C10.6008 21.5216 10.5116 21.4463 10.4001 21.3738C10.2886 21.3014 10.1632 21.2373 10.0239 21.1815C9.88452 21.1202 9.73124 21.0729 9.56402 21.0394C9.40238 21.0004 9.23237 20.9809 9.05401 20.9809C8.59694 20.9809 8.25972 21.0673 8.04234 21.2401C7.82496 21.4129 7.71627 21.6498 7.71627 21.9507C7.71627 22.1626 7.772 22.3298 7.88348 22.4524C7.99496 22.575 8.16497 22.6754 8.3935 22.7534C8.6276 22.8314 8.92302 22.9122 9.27975 22.9959C9.69222 23.085 10.049 23.1937 10.3499 23.3219C10.6509 23.4501 10.8823 23.6229 11.0439 23.8403C11.2055 24.0521 11.2864 24.3364 11.2864 24.6931C11.2864 24.9774 11.2306 25.2254 11.1191 25.4372C11.0132 25.6435 10.8627 25.8163 10.6677 25.9556C10.4726 26.0894 10.244 26.1897 9.98206 26.2566C9.72009 26.3179 9.43582 26.3486 9.12925 26.3486C8.82826 26.3486 8.53284 26.3179 8.243 26.2566C7.95873 26.1897 7.6884 26.095 7.432 25.9723C7.1756 25.8497 6.93592 25.6964 6.71296 25.5125L7.07248 24.8771C7.16166 24.9718 7.27593 25.0666 7.41527 25.1613C7.5602 25.2505 7.72184 25.3341 7.9002 25.4121C8.08414 25.4902 8.28202 25.5543 8.49383 25.6044C8.70564 25.649 8.92302 25.6713 9.14598 25.6713C9.56959 25.6713 9.89845 25.5961 10.1326 25.4456C10.3667 25.2895 10.4837 25.0638 10.4837 24.7684C10.4837 24.5454 10.4168 24.367 10.2831 24.2333C10.1549 24.0995 9.96255 23.988 9.70615 23.8988C9.44975 23.8096 9.13761 23.7205 8.76974 23.6313C8.36841 23.5309 8.03119 23.4223 7.75807 23.3052C7.48495 23.1826 7.27871 23.0237 7.13936 22.8286C7.00559 22.6335 6.9387 22.3799 6.9387 22.0678C6.9387 21.6888 7.03067 21.3683 7.21461 21.1063C7.39855 20.8443 7.65217 20.6464 7.97545 20.5127C8.29874 20.3789 8.66383 20.312 9.07073 20.312C9.33828 20.312 9.58632 20.3399 9.81485 20.3956C10.049 20.4514 10.2663 20.5294 10.467 20.6297C10.6677 20.7301 10.8516 20.8499 11.0188 20.9892L10.6677 21.5996ZM12.8613 26.29V20.3538H13.6138V25.6212H16.9247V26.29H12.8613ZM20.1352 20.3538H20.7706L23.1953 26.29H22.3926L21.6903 24.551H19.1988L18.5048 26.29H17.7022L20.1352 20.3538ZM21.5231 23.9657L20.4529 21.2233L19.3493 23.9657H21.5231ZM29.7064 26.29V21.7584L27.7499 25.2449H27.2901L25.3253 21.7584V26.29H24.5728V20.3538H25.3671L27.5158 24.2082L29.6729 20.3538H30.4588V26.29H29.7064ZM39.9397 20.3538V26.29H39.1872V23.5895H35.9181V26.29H35.1656V20.3538H35.9181V22.9206H39.1872V20.3538H39.9397ZM44.356 26.3318C43.9379 26.3318 43.5589 26.2482 43.2189 26.081C42.8789 25.9138 42.5835 25.6881 42.3326 25.4038C42.0874 25.1139 41.8979 24.7907 41.7641 24.4339C41.6303 24.0716 41.5634 23.701 41.5634 23.3219C41.5634 22.9262 41.6331 22.5499 41.7725 22.1932C41.9174 21.8309 42.1153 21.5104 42.3661 21.2317C42.6225 20.9474 42.9207 20.7245 43.2607 20.5628C43.6007 20.3956 43.9714 20.312 44.3727 20.312C44.7907 20.312 45.1698 20.3984 45.5098 20.5712C45.8498 20.744 46.1424 20.9753 46.3877 21.2652C46.6329 21.555 46.8224 21.8783 46.9562 22.235C47.09 22.5917 47.1569 22.9568 47.1569 23.3303C47.1569 23.726 47.0872 24.1051 46.9479 24.4674C46.8085 24.8241 46.6106 25.1446 46.3542 25.4289C46.1034 25.7076 45.808 25.9277 45.468 26.0894C45.128 26.251 44.7573 26.3318 44.356 26.3318ZM42.3243 23.3219C42.3243 23.6229 42.3717 23.9155 42.4664 24.1998C42.5668 24.4785 42.7061 24.7266 42.8845 24.9439C43.0628 25.1613 43.2774 25.3341 43.5283 25.4623C43.7791 25.5905 44.0578 25.6546 44.3643 25.6546C44.6821 25.6546 44.9663 25.5877 45.2172 25.454C45.468 25.3202 45.6798 25.1418 45.8526 24.9189C46.0309 24.6959 46.1647 24.4451 46.2539 24.1664C46.3487 23.8877 46.396 23.6062 46.396 23.3219C46.396 23.0209 46.3459 22.7311 46.2455 22.4524C46.1508 22.1737 46.0114 21.9257 45.8275 21.7083C45.6491 21.4853 45.4345 21.3125 45.1837 21.1899C44.9385 21.0617 44.6653 20.9976 44.3643 20.9976C44.0466 20.9976 43.7624 21.0645 43.5115 21.1983C43.2607 21.3265 43.0461 21.502 42.8677 21.725C42.695 21.948 42.5612 22.1988 42.4664 22.4775C42.3717 22.7506 42.3243 23.0321 42.3243 23.3219ZM48.7876 26.29V20.3538H49.5401V25.6212H52.851V26.29H48.7876ZM53.5668 20.3538L55.3644 23.4473L57.1787 20.3538H57.9981L55.7406 24.1246V26.29H54.9881V24.1079L52.7391 20.3538H53.5668ZM64.2026 26.3318C63.7846 26.3318 63.4055 26.2482 63.0655 26.081C62.7255 25.9082 62.4301 25.6797 62.1793 25.3954C61.934 25.1112 61.7445 24.7907 61.6107 24.4339C61.477 24.0716 61.4101 23.701 61.4101 23.3219C61.4101 22.9262 61.4798 22.5499 61.6191 22.1932C61.764 21.8309 61.9619 21.5104 62.2127 21.2317C62.4691 20.9474 62.7673 20.7245 63.1073 20.5628C63.4473 20.3956 63.818 20.312 64.2193 20.312C64.6374 20.312 65.0164 20.3984 65.3564 20.5712C65.6964 20.744 65.9891 20.9753 66.2343 21.2652C66.4796 21.555 66.6691 21.8783 66.8028 22.235C66.9366 22.5917 67.0035 22.9568 67.0035 23.3303C67.0035 23.726 66.9338 24.1051 66.7945 24.4674C66.6551 24.8241 66.4573 25.1446 66.2009 25.4289C65.95 25.7076 65.6546 25.9277 65.3146 26.0894C64.9746 26.251 64.6039 26.3318 64.2026 26.3318ZM64.211 25.6546C64.5287 25.6546 64.813 25.5877 65.0638 25.454C65.3146 25.3202 65.5264 25.1418 65.6992 24.9189C65.8776 24.6959 66.0113 24.4451 66.1005 24.1664C66.1953 23.8877 66.2427 23.6062 66.2427 23.3219C66.2427 23.0209 66.1925 22.7311 66.0922 22.4524C65.9974 22.1681 65.8581 21.9173 65.6741 21.6999C65.4958 21.4825 65.2812 21.3097 65.0303 21.1815C64.7851 21.0533 64.512 20.9892 64.211 20.9892C63.8933 20.9892 63.609 21.0561 63.3582 21.1899C63.1073 21.3237 62.8927 21.502 62.7144 21.725C62.5416 21.948 62.4078 22.1988 62.3131 22.4775C62.2183 22.7506 62.1709 23.0321 62.1709 23.3219C62.1709 23.6229 62.2183 23.9155 62.3131 24.1998C62.4134 24.4785 62.5527 24.7266 62.7311 24.9439C62.9095 25.1613 63.1241 25.3341 63.3749 25.4623C63.6257 25.5905 63.9044 25.6546 64.211 25.6546ZM64.5454 24.3503H65.2812L66.945 26.29H66.2092L64.5454 24.3503ZM71.0677 26.3318C70.5939 26.3318 70.1954 26.251 69.8721 26.0894C69.5488 25.9222 69.2896 25.6992 69.0945 25.4205C68.8994 25.1362 68.7573 24.8157 68.6681 24.459C68.5789 24.1023 68.5343 23.7344 68.5343 23.3554V20.3538H69.2868V23.3554C69.2868 23.6452 69.3147 23.9295 69.3704 24.2082C69.4317 24.4813 69.5293 24.7266 69.663 24.9439C69.7968 25.1613 69.978 25.3341 70.2065 25.4623C70.435 25.5905 70.7193 25.6546 71.0593 25.6546C71.4049 25.6546 71.692 25.5905 71.9205 25.4623C72.149 25.3285 72.3302 25.153 72.4639 24.9356C72.5977 24.7126 72.6925 24.4646 72.7482 24.1915C72.8095 23.9183 72.8402 23.6396 72.8402 23.3554V20.3538H73.5927V23.3554C73.5927 23.7567 73.5453 24.1385 73.4505 24.5008C73.3613 24.8575 73.2164 25.1725 73.0158 25.4456C72.8151 25.7187 72.5531 25.9361 72.2298 26.0977C71.9121 26.2538 71.5247 26.3318 71.0677 26.3318ZM75.5147 26.29V20.3538H78.0564C78.3184 20.3538 78.558 20.4096 78.7754 20.521C78.9928 20.6269 79.1823 20.7719 79.344 20.9558C79.5056 21.1342 79.631 21.3376 79.7202 21.5661C79.8094 21.7891 79.854 22.0176 79.854 22.2517C79.854 22.5249 79.801 22.784 79.6951 23.0293C79.5948 23.2745 79.4499 23.4836 79.2604 23.6564C79.0764 23.8292 78.859 23.949 78.6082 24.0159L80.0463 26.29H79.1935L77.839 24.158H76.2672V26.29H75.5147ZM76.2672 23.4891H78.0648C78.271 23.4891 78.4494 23.4334 78.5998 23.3219C78.7559 23.2049 78.8758 23.0516 78.9594 22.8621C79.0485 22.6726 79.0931 22.4691 79.0931 22.2517C79.0931 22.0288 79.043 21.8253 78.9426 21.6414C78.8423 21.4519 78.7113 21.3014 78.5497 21.1899C78.388 21.0784 78.2097 21.0227 78.0146 21.0227H76.2672V23.4891ZM80.939 22.1012L81.1062 21.1397H80.8554V20.1866H81.5493V21.1397L81.2985 22.1012H80.939ZM84.5495 20.3538H85.1849L87.6096 26.29H86.807L86.1046 24.551H83.6131L82.9192 26.29H82.1165L84.5495 20.3538ZM85.9374 23.9657L84.8672 21.2233L83.7636 23.9657H85.9374ZM89.7396 21.7417V26.29H88.9871V20.3538H89.6226L93.2512 24.9941V20.3622H94.0037V26.29H93.3181L89.7396 21.7417ZM100.251 20.3538H100.886L103.311 26.29H102.508L101.806 24.551H99.3146L98.6206 26.29H97.818L100.251 20.3538ZM101.639 23.9657L100.569 21.2233L99.4651 23.9657H101.639ZM106.373 20.3873H107.083L107.869 22.4524L108.663 20.3873H109.374L108.346 22.9708L109.366 25.4205L111.372 20.3538H112.192L109.709 26.29H109.056L107.877 23.4891L106.69 26.29H106.038L103.563 20.3538H104.374L106.389 25.4205L107.401 22.9708L106.373 20.3873ZM114.869 20.3538H115.505L117.929 26.29H117.127L116.424 24.551H113.933L113.239 26.29H112.436L114.869 20.3538ZM116.257 23.9657L115.187 21.2233L114.083 23.9657H116.257ZM119.307 26.29V20.3538H121.848C122.11 20.3538 122.35 20.4096 122.567 20.521C122.785 20.6269 122.974 20.7719 123.136 20.9558C123.298 21.1342 123.423 21.3376 123.512 21.5661C123.601 21.7891 123.646 22.0176 123.646 22.2517C123.646 22.5249 123.593 22.784 123.487 23.0293C123.387 23.2745 123.242 23.4836 123.052 23.6564C122.868 23.8292 122.651 23.949 122.4 24.0159L123.838 26.29H122.986L121.631 24.158H120.059V26.29H119.307ZM120.059 23.4891H121.857C122.063 23.4891 122.241 23.4334 122.392 23.3219C122.548 23.2049 122.668 23.0516 122.751 22.8621C122.841 22.6726 122.885 22.4691 122.885 22.2517C122.885 22.0288 122.835 21.8253 122.735 21.6414C122.634 21.4519 122.503 21.3014 122.342 21.1899C122.18 21.0784 122.002 21.0227 121.807 21.0227H120.059V23.4891ZM125.387 26.29V20.3538H127.444C128.079 20.3538 128.609 20.4876 129.032 20.7551C129.462 21.0171 129.782 21.3738 129.994 21.8253C130.206 22.2712 130.312 22.7673 130.312 23.3136C130.312 23.9155 130.194 24.4395 129.96 24.8854C129.726 25.3313 129.395 25.6769 128.965 25.9222C128.536 26.1674 128.029 26.29 127.444 26.29H125.387ZM129.551 23.3136C129.551 22.8677 129.467 22.4719 129.3 22.1263C129.138 21.7807 128.901 21.5104 128.589 21.3153C128.277 21.1202 127.895 21.0227 127.444 21.0227H126.139V25.6212H127.444C127.901 25.6212 128.285 25.5208 128.598 25.3202C128.91 25.1139 129.147 24.838 129.308 24.4925C129.47 24.1413 129.551 23.7483 129.551 23.3136Z" fill="#858585"/>
<defs>
<clipPath id="clip0_258_59">
<rect width="22.9417" height="26.29" fill="white" transform="translate(140.504)"/>
</clipPath>
</defs>
</svg>
